<svg width="337" height="600" viewBox="0 0 337 600" fill="none" xmlns="http://www.w3.org/2000/svg">
<path d="M130.656 484.618C135.696 484.106 142.837 474.545 142.837 474.545L159.688 481.438C159.688 481.438 151.566 502.886 158.331 513.379C165.634 524.706 191.025 524.422 191.025 524.422L193.735 537.749C193.735 537.749 182.022 546.022 177.073 552.579C172.123 559.137 168.387 571.332 168.387 571.332C168.387 571.332 156.056 570.55 148.09 572.864C140.125 575.179 129.945 584.503 129.945 584.503L116.259 575.203C116.259 575.203 128.585 554.492 115.74 542.393C102.895 530.295 84.5016 533.619 84.5016 533.619L84.397 514.667C84.397 514.667 94.0558 512.991 97.5853 507.337C101.115 501.683 97.5636 491.156 97.5636 491.156L117.025 477.166C117.025 477.166 125.616 485.13 130.656 484.618Z" stroke="#434C63"/>
<path d="M130.794 489.239C134.793 489.149 144.375 479.586 144.375 479.586L154.703 484.825C154.703 484.825 147.28 507.072 153.349 515.811C159.9 525.243 186.543 529.181 186.543 529.181L188.136 536.068C188.136 536.068 174.385 545.174 170.837 550.06C167.289 554.946 165.065 564.375 165.065 564.375C165.065 564.375 154.15 565.988 147.924 567.323C141.698 568.657 131.151 578.458 131.151 578.458L122.195 572.716C122.195 572.716 130.412 550.828 119.38 540.437C108.348 530.045 89.4303 528.387 89.4303 528.387L89.0987 517.301C89.0987 517.301 99.3148 512.858 101.784 508.6C104.252 504.341 102.238 492.867 102.238 492.867L117.193 481.755C117.193 481.755 126.794 489.328 130.794 489.239Z" stroke="#D4D4D4" stroke-linecap="round" stroke-dasharray="4 4"/>
<circle r="13.7071" transform="matrix(-0.936108 0.351713 0.351713 0.936108 253.511 555.652)" stroke="#434C63"/>
<path d="M252.455 552.4C253.169 553.32 254.494 553.488 255.414 552.774C256.334 552.06 256.502 550.735 255.788 549.815C255.074 548.895 253.749 548.728 252.829 549.441C251.909 550.155 251.742 551.48 252.455 552.4Z" fill="#D4D4D4"/>
<path d="M256.33 557.4C257.044 558.32 258.369 558.487 259.289 557.773C260.209 557.06 260.377 555.735 259.663 554.815C258.949 553.894 257.624 553.727 256.704 554.441C255.784 555.155 255.617 556.479 256.33 557.4Z" fill="#D4D4D4"/>
<path d="M247.233 556.604C247.946 557.525 249.271 557.692 250.191 556.978C251.112 556.264 251.279 554.94 250.565 554.02C249.851 553.099 248.527 552.932 247.606 553.646C246.686 554.36 246.519 555.684 247.233 556.604Z" fill="#D4D4D4"/>
<path d="M251.141 561.579C251.855 562.5 253.179 562.667 254.1 561.953C255.02 561.239 255.187 559.915 254.473 558.994C253.76 558.074 252.435 557.907 251.515 558.621C250.594 559.334 250.427 560.659 251.141 561.579Z" fill="#D4D4D4"/>
<path fill-rule="evenodd" clip-rule="evenodd" d="M106.024 415.254L105.437 415.023L101.333 413.401L100.747 413.17L100.512 413.763L99.4843 416.365L96.1769 416.671L95.493 414.114L95.3037 413.406L94.6344 413.701L90.5301 415.511L89.9497 415.767L90.1985 416.351L91.4417 419.267L89.6785 421.151L86.5574 419.918L85.971 419.686L85.7365 420.28L83.8604 425.029L83.6259 425.623L84.2122 425.854L87.3333 427.087L87.3333 429.667L83.6118 431.309L82.9633 431.595L83.3112 432.211L85.3048 435.744L85.5539 436.185L86.0374 436.033L89.5204 434.938L91.8072 437.514L90.545 440.709L90.3105 441.303L90.8968 441.535L95.0012 443.156L95.5876 443.388L95.8221 442.794L97.0964 439.568L99.9452 439.08L101.722 442.229L102.001 442.723L102.521 442.494L105.804 441.046L106.323 440.817L106.16 440.272L105.086 436.708L107.15 434.229L110.246 435.452L110.832 435.684L111.067 435.09L112.708 430.935L112.943 430.341L112.356 430.109L109.261 428.887L109.449 425.654L111.864 424.15L112.332 423.859L112.116 423.352L110.708 420.051L110.46 419.468L109.879 419.724L107.014 420.987L104.761 418.449L105.789 415.848L106.024 415.254ZM104.382 415.978L103.444 418.353L103.299 418.72L103.558 419.012L106.373 422.183L106.675 422.523L107.093 422.339L109.796 421.147L110.739 423.358L108.51 424.747L108.227 424.923L108.208 425.256L107.973 429.281L107.947 429.74L108.369 429.907L111.301 431.065L110.128 434.033L107.197 432.875L106.774 432.708L106.48 433.061L103.9 436.16L103.678 436.427L103.778 436.758L104.787 440.108L102.542 441.098L100.828 438.059L100.611 437.675L100.178 437.749L96.5423 438.372L96.1893 438.433L96.0565 438.769L94.8839 441.737L91.9522 440.579L93.1248 437.611L93.2698 437.244L93.0105 436.952L90.196 433.781L89.9275 433.479L89.5408 433.6L86.1545 434.665L84.7578 432.19L88.2136 430.666L88.5964 430.497L88.5964 430.077L88.5963 426.645L88.5963 426.214L88.1993 426.057L85.2676 424.899L86.6747 421.337L89.6064 422.495L90.0034 422.652L90.2982 422.337L92.6435 419.832L92.9307 419.525L92.7666 419.14L91.6081 416.423L94.4627 415.164L95.0944 417.525L95.2314 418.038L95.7566 417.989L99.9782 417.598L100.367 417.562L100.512 417.195L101.45 414.82L104.382 415.978ZM95.7046 434.512C92.1425 433.105 90.4098 429.04 91.8345 425.434C93.2593 421.827 97.3019 420.044 100.864 421.452C104.426 422.859 106.159 426.923 104.734 430.53C103.309 434.136 99.2667 435.919 95.7046 434.512ZM95.2356 435.699C91.0258 434.036 88.9781 429.233 90.6619 424.971C92.3456 420.708 97.1233 418.601 101.333 420.264C105.543 421.927 107.591 426.731 105.907 430.993C104.223 435.255 99.4453 437.362 95.2356 435.699ZM95.3526 426.824C94.705 428.463 95.4926 430.311 97.1117 430.95C98.7308 431.59 100.568 430.779 101.216 429.14C101.864 427.501 101.076 425.653 99.4569 425.014C97.8378 424.374 96.0002 425.184 95.3526 426.824ZM94.1799 426.36C93.2733 428.656 94.3759 431.242 96.6427 432.137C98.9095 433.033 101.482 431.898 102.389 429.603C103.295 427.308 102.193 424.722 99.9259 423.826C97.6591 422.931 95.0866 424.065 94.1799 426.36Z" fill="#434C63"/>
<path d="M315.787 427.376L237.788 337.511M315.787 427.376C315.787 427.376 321.096 437.689 366.677 454.014C412.258 470.338 417.566 480.651 417.566 480.651L322.717 576L243.99 497.87M315.787 427.376L279.889 462.623M237.788 337.511C237.788 337.511 217.525 340.619 207.532 337.866C197.54 335.113 186.614 323.413 186.614 323.413M237.788 337.511L187.856 384.783M79.5946 339.365L158.266 412.796M79.5946 339.365L141.511 279.122M79.5946 339.365C79.5946 339.365 88.9898 324.554 91.7564 315.743C92.8873 312.142 93.429 307.892 93.6742 304.126M158.266 412.796L243.99 497.87M158.266 412.796L187.856 384.783M186.614 323.413L141.511 279.122M186.614 323.413L162.038 281.901M243.99 497.87L255.102 486.961M187.856 384.783L262.662 451.648M262.662 451.648L282.908 425.168L279.889 462.623M262.662 451.648L243.752 477.501L255.102 486.961M279.889 462.623L255.102 486.961M279.889 462.623L332.452 521.418L267.495 474.792M141.511 279.122L156.625 272.756L162.038 281.901M141.511 279.122L93.7633 294.242C93.7633 294.242 94.0289 298.678 93.6742 304.126M93.6742 304.126L162.038 281.901" stroke="#434C63"/>
<path d="M142.646 293.016L142.302 292.653L142.694 292.281L143.034 292.701L142.646 293.016ZM204.63 344.541L204.725 344.05L204.63 344.541ZM220.569 344.745L220.474 344.254L222.193 343.92L220.909 345.112L220.569 344.745ZM159.167 401.726L159.507 402.093L159.169 402.407L158.829 402.095L159.167 401.726ZM92.5241 340.576L92.1861 340.944L91.7912 340.582L92.1799 340.213L92.5241 340.576ZM144.309 294.24C144.486 294.451 144.458 294.767 144.246 294.944C144.035 295.121 143.719 295.093 143.542 294.882L144.309 294.24ZM146.202 298.009C146.022 297.8 146.045 297.485 146.254 297.304C146.464 297.124 146.779 297.147 146.96 297.356L146.202 298.009ZM149.645 300.43C149.828 300.637 149.808 300.953 149.601 301.136C149.395 301.319 149.079 301.299 148.896 301.093L149.645 300.43ZM151.627 304.145C151.442 303.94 151.457 303.624 151.662 303.439C151.867 303.254 152.183 303.269 152.368 303.474L151.627 304.145ZM155.117 306.475C155.305 306.677 155.293 306.994 155.091 307.181C154.888 307.369 154.572 307.357 154.384 307.155L155.117 306.475ZM157.187 310.142C156.997 309.941 157.005 309.625 157.205 309.435C157.405 309.245 157.722 309.253 157.912 309.453L157.187 310.142ZM160.742 312.395C160.935 312.593 160.931 312.909 160.733 313.102C160.535 313.295 160.219 313.291 160.026 313.093L160.742 312.395ZM162.898 316C162.703 315.805 162.703 315.488 162.898 315.293C163.093 315.097 163.409 315.097 163.605 315.292L162.898 316ZM166.513 318.151C166.711 318.344 166.716 318.66 166.524 318.858C166.332 319.057 166.015 319.062 165.817 318.87L166.513 318.151ZM168.781 321.695C168.58 321.506 168.57 321.19 168.758 320.988C168.947 320.787 169.264 320.777 169.465 320.966L168.781 321.695ZM172.464 323.726C172.669 323.911 172.685 324.228 172.5 324.432C172.315 324.637 171.999 324.653 171.794 324.468L172.464 323.726ZM174.86 327.183C174.651 327.002 174.629 326.686 174.81 326.478C174.991 326.269 175.306 326.246 175.515 326.427L174.86 327.183ZM178.624 329.06C178.837 329.236 178.867 329.551 178.691 329.764C178.515 329.977 178.2 330.007 177.987 329.831L178.624 329.06ZM181.181 332.398C180.964 332.228 180.925 331.914 181.095 331.697C181.265 331.479 181.579 331.44 181.797 331.61L181.181 332.398ZM185.038 334.06C185.261 334.223 185.31 334.536 185.147 334.759C184.984 334.982 184.672 335.031 184.449 334.868L185.038 334.06ZM187.815 337.227C187.585 337.073 187.524 336.763 187.678 336.533C187.832 336.304 188.142 336.243 188.372 336.397L187.815 337.227ZM191.798 338.579C192.035 338.721 192.111 339.028 191.969 339.265C191.827 339.502 191.52 339.578 191.283 339.436L191.798 338.579ZM194.861 341.442C194.615 341.315 194.52 341.014 194.647 340.768C194.774 340.523 195.075 340.427 195.321 340.554L194.861 341.442ZM198.995 342.272C199.25 342.377 199.372 342.67 199.266 342.925C199.161 343.18 198.868 343.301 198.613 343.196L198.995 342.272ZM202.516 344.555C202.25 344.481 202.095 344.206 202.168 343.94C202.242 343.674 202.518 343.518 202.784 343.592L202.516 344.555ZM206.677 344.378C206.95 344.417 207.14 344.67 207.101 344.944C207.062 345.217 206.809 345.407 206.535 345.368L206.677 344.378ZM210.564 345.76C210.288 345.745 210.077 345.51 210.091 345.234C210.106 344.958 210.342 344.747 210.617 344.761L210.564 345.76ZM214.58 344.809C214.856 344.801 215.086 345.019 215.094 345.295C215.102 345.571 214.885 345.801 214.609 345.809L214.58 344.809ZM218.644 345.526C218.37 345.558 218.122 345.36 218.091 345.086C218.059 344.812 218.256 344.564 218.531 344.533L218.644 345.526ZM219.374 346.536C219.172 346.724 218.856 346.712 218.668 346.51C218.48 346.307 218.492 345.991 218.694 345.803L219.374 346.536ZM215.624 348.652C215.826 348.464 216.143 348.476 216.331 348.679C216.518 348.881 216.507 349.197 216.304 349.385L215.624 348.652ZM213.234 352.234C213.032 352.422 212.715 352.41 212.528 352.208C212.34 352.006 212.352 351.689 212.554 351.501L213.234 352.234ZM209.484 354.35C209.686 354.163 210.003 354.174 210.19 354.377C210.378 354.579 210.366 354.896 210.164 355.083L209.484 354.35ZM207.094 357.932C206.892 358.12 206.575 358.109 206.387 357.906C206.2 357.704 206.211 357.387 206.414 357.199L207.094 357.932ZM203.344 360.049C203.546 359.861 203.862 359.873 204.05 360.075C204.238 360.277 204.226 360.594 204.024 360.782L203.344 360.049ZM200.954 363.631C200.751 363.818 200.435 363.807 200.247 363.604C200.059 363.402 200.071 363.085 200.274 362.898L200.954 363.631ZM197.203 365.747C197.406 365.559 197.722 365.571 197.91 365.773C198.098 365.975 198.086 366.292 197.884 366.48L197.203 365.747ZM194.814 369.329C194.611 369.517 194.295 369.505 194.107 369.302C193.919 369.1 193.931 368.784 194.133 368.596L194.814 369.329ZM191.063 371.445C191.266 371.257 191.582 371.269 191.77 371.471C191.958 371.674 191.946 371.99 191.743 372.178L191.063 371.445ZM188.673 375.027C188.471 375.215 188.155 375.203 187.967 375C187.779 374.798 187.791 374.482 187.993 374.294L188.673 375.027ZM184.923 377.143C185.125 376.955 185.442 376.967 185.63 377.169C185.818 377.372 185.806 377.688 185.603 377.876L184.923 377.143ZM182.533 380.725C182.331 380.913 182.014 380.901 181.827 380.699C181.639 380.496 181.651 380.18 181.853 379.992L182.533 380.725ZM178.783 382.841C178.985 382.653 179.302 382.665 179.49 382.867C179.677 383.07 179.666 383.386 179.463 383.574L178.783 382.841ZM176.393 386.423C176.191 386.611 175.874 386.599 175.686 386.397C175.499 386.194 175.51 385.878 175.713 385.69L176.393 386.423ZM172.643 388.539C172.845 388.351 173.161 388.363 173.349 388.565C173.537 388.768 173.525 389.084 173.323 389.272L172.643 388.539ZM170.253 392.121C170.05 392.309 169.734 392.297 169.546 392.095C169.358 391.892 169.37 391.576 169.573 391.388L170.253 392.121ZM166.503 394.237C166.705 394.049 167.021 394.061 167.209 394.264C167.397 394.466 167.385 394.782 167.183 394.97L166.503 394.237ZM164.113 397.819C163.91 398.007 163.594 397.995 163.406 397.793C163.218 397.59 163.23 397.274 163.432 397.086L164.113 397.819ZM160.362 399.935C160.565 399.747 160.881 399.759 161.069 399.962C161.257 400.164 161.245 400.48 161.043 400.668L160.362 399.935ZM157.315 400.705C157.111 400.518 157.098 400.202 157.284 399.999C157.471 399.795 157.787 399.781 157.991 399.968L157.315 400.705ZM154.962 397.189C155.165 397.375 155.179 397.692 154.992 397.895C154.805 398.099 154.489 398.112 154.285 397.925L154.962 397.189ZM151.256 395.146C151.053 394.959 151.039 394.643 151.226 394.439C151.413 394.236 151.729 394.222 151.932 394.409L151.256 395.146ZM148.903 391.629C149.107 391.816 149.12 392.132 148.933 392.336C148.747 392.539 148.43 392.553 148.227 392.366L148.903 391.629ZM145.198 389.587C144.994 389.4 144.981 389.084 145.167 388.88C145.354 388.677 145.67 388.663 145.874 388.85L145.198 389.587ZM142.845 386.07C143.048 386.257 143.062 386.573 142.875 386.777C142.688 386.98 142.372 386.994 142.169 386.807L142.845 386.07ZM139.139 384.028C138.936 383.841 138.922 383.525 139.109 383.321C139.296 383.118 139.612 383.104 139.815 383.291L139.139 384.028ZM136.786 380.511C136.99 380.698 137.003 381.014 136.816 381.218C136.63 381.421 136.313 381.435 136.11 381.248L136.786 380.511ZM133.081 378.468C132.877 378.282 132.864 377.965 133.05 377.762C133.237 377.559 133.553 377.545 133.757 377.732L133.081 378.468ZM130.728 374.952C130.931 375.139 130.945 375.455 130.758 375.659C130.571 375.862 130.255 375.876 130.052 375.689L130.728 374.952ZM127.022 372.909C126.819 372.723 126.805 372.406 126.992 372.203C127.179 371.999 127.495 371.986 127.698 372.173L127.022 372.909ZM124.669 369.393C124.873 369.58 124.886 369.896 124.7 370.099C124.513 370.303 124.197 370.316 123.993 370.13L124.669 369.393ZM120.964 367.35C120.76 367.164 120.747 366.847 120.933 366.644C121.12 366.44 121.436 366.427 121.64 366.613L120.964 367.35ZM118.611 363.834C118.814 364.021 118.828 364.337 118.641 364.54C118.454 364.744 118.138 364.757 117.935 364.571L118.611 363.834ZM114.905 361.791C114.702 361.604 114.688 361.288 114.875 361.085C115.062 360.881 115.378 360.868 115.581 361.054L114.905 361.791ZM112.552 358.275C112.756 358.461 112.769 358.778 112.583 358.981C112.396 359.185 112.08 359.198 111.876 359.012L112.552 358.275ZM108.847 356.232C108.643 356.045 108.63 355.729 108.816 355.526C109.003 355.322 109.319 355.308 109.523 355.495L108.847 356.232ZM106.494 352.716C106.697 352.902 106.711 353.219 106.524 353.422C106.337 353.626 106.021 353.639 105.818 353.452L106.494 352.716ZM102.788 350.673C102.585 350.486 102.571 350.17 102.758 349.966C102.945 349.763 103.261 349.749 103.464 349.936L102.788 350.673ZM100.435 347.156C100.639 347.343 100.652 347.659 100.466 347.863C100.279 348.066 99.9626 348.08 99.7591 347.893L100.435 347.156ZM96.7299 345.114C96.5264 344.927 96.5128 344.611 96.6995 344.407C96.8862 344.204 97.2025 344.19 97.406 344.377L96.7299 345.114ZM94.3768 341.597C94.5802 341.784 94.5938 342.1 94.4071 342.304C94.2204 342.507 93.9041 342.521 93.7007 342.334L94.3768 341.597ZM93.5722 338.892C93.7725 338.702 94.089 338.71 94.2791 338.911C94.4692 339.111 94.4609 339.427 94.2605 339.618L93.5722 338.892ZM97.0451 336.975C96.8448 337.165 96.5283 337.157 96.3382 336.957C96.1482 336.756 96.1565 336.44 96.3568 336.25L97.0451 336.975ZM99.1413 333.608C99.3416 333.418 99.6581 333.426 99.8482 333.626C100.038 333.827 100.03 334.143 99.8297 334.333L99.1413 333.608ZM102.614 331.691C102.414 331.881 102.097 331.873 101.907 331.672C101.717 331.472 101.726 331.156 101.926 330.965L102.614 331.691ZM104.71 328.323C104.911 328.133 105.227 328.141 105.417 328.342C105.607 328.542 105.599 328.859 105.399 329.049L104.71 328.323ZM108.183 326.406C107.983 326.596 107.667 326.588 107.476 326.388C107.286 326.188 107.295 325.871 107.495 325.681L108.183 326.406ZM110.28 323.039C110.48 322.849 110.796 322.857 110.986 323.057C111.177 323.258 111.168 323.574 110.968 323.764L110.28 323.039ZM113.752 321.122C113.552 321.312 113.236 321.304 113.046 321.103C112.856 320.903 112.864 320.587 113.064 320.397L113.752 321.122ZM115.849 317.754C116.049 317.564 116.365 317.573 116.556 317.773C116.746 317.973 116.737 318.29 116.537 318.48L115.849 317.754ZM119.322 315.838C119.121 316.028 118.805 316.019 118.615 315.819C118.425 315.619 118.433 315.302 118.633 315.112L119.322 315.838ZM121.418 312.47C121.618 312.28 121.935 312.288 122.125 312.488C122.315 312.689 122.306 313.005 122.106 313.195L121.418 312.47ZM124.891 310.553C124.69 310.743 124.374 310.735 124.184 310.535C123.994 310.334 124.002 310.018 124.202 309.828L124.891 310.553ZM126.987 307.185C127.187 306.995 127.504 307.004 127.694 307.204C127.884 307.404 127.876 307.721 127.675 307.911L126.987 307.185ZM130.46 305.269C130.259 305.459 129.943 305.45 129.753 305.25C129.563 305.05 129.571 304.733 129.771 304.543L130.46 305.269ZM132.556 301.901C132.756 301.711 133.073 301.719 133.263 301.919C133.453 302.12 133.445 302.436 133.244 302.626L132.556 301.901ZM136.029 299.984C135.829 300.174 135.512 300.166 135.322 299.966C135.132 299.765 135.14 299.449 135.341 299.259L136.029 299.984ZM138.125 296.616C138.325 296.426 138.642 296.435 138.832 296.635C139.022 296.835 139.014 297.152 138.813 297.342L138.125 296.616ZM141.598 294.7C141.398 294.89 141.081 294.881 140.891 294.681C140.701 294.481 140.709 294.164 140.91 293.974L141.598 294.7ZM142.646 293.016C143.034 292.701 143.034 292.701 143.034 292.701C143.034 292.701 143.034 292.701 143.034 292.701C143.034 292.701 143.034 292.701 143.034 292.701C143.035 292.701 143.035 292.701 143.035 292.701C143.035 292.701 143.035 292.702 143.036 292.702C143.036 292.703 143.038 292.705 143.039 292.707C143.043 292.711 143.048 292.717 143.055 292.726C143.068 292.743 143.089 292.768 143.116 292.801C143.171 292.868 143.253 292.968 143.36 293.098C143.575 293.36 143.894 293.745 144.309 294.24L143.542 294.882C143.126 294.385 142.805 293.997 142.588 293.734C142.48 293.603 142.398 293.502 142.342 293.434C142.314 293.4 142.293 293.375 142.279 293.357C142.272 293.349 142.267 293.342 142.263 293.338C142.262 293.335 142.26 293.334 142.259 293.333C142.259 293.332 142.259 293.332 142.258 293.331C142.258 293.331 142.258 293.331 142.258 293.331C142.258 293.331 142.258 293.331 142.258 293.331C142.258 293.331 142.258 293.331 142.258 293.331C142.258 293.331 142.258 293.331 142.646 293.016ZM146.96 297.356C147.752 298.275 148.651 299.307 149.645 300.43L148.896 301.093C147.899 299.966 146.997 298.931 146.202 298.009L146.96 297.356ZM152.368 303.474C153.238 304.435 154.156 305.438 155.117 306.475L154.384 307.155C153.42 306.115 152.499 305.109 151.627 304.145L152.368 303.474ZM157.912 309.453C158.827 310.416 159.772 311.399 160.742 312.395L160.026 313.093C159.052 312.094 158.105 311.108 157.187 310.142L157.912 309.453ZM163.605 315.292C164.556 316.241 165.526 317.196 166.513 318.151L165.817 318.87C164.826 317.91 163.853 316.952 162.898 316L163.605 315.292ZM169.465 320.966C170.453 321.892 171.454 322.813 172.464 323.726L171.794 324.468C170.779 323.551 169.774 322.625 168.781 321.695L169.465 320.966ZM175.515 326.427C176.545 327.32 177.583 328.199 178.624 329.06L177.987 329.831C176.939 328.965 175.896 328.081 174.86 327.183L175.515 326.427ZM181.797 331.61C182.877 332.454 183.959 333.272 185.038 334.06L184.449 334.868C183.36 334.073 182.269 333.248 181.181 332.398L181.797 331.61ZM188.372 336.397C189.521 337.168 190.665 337.897 191.798 338.579L191.283 339.436C190.134 338.745 188.977 338.007 187.815 337.227L188.372 336.397ZM195.321 340.554C196.566 341.199 197.793 341.775 198.995 342.272L198.613 343.196C197.381 342.687 196.128 342.099 194.861 341.442L195.321 340.554ZM202.784 343.592C203.442 343.774 204.089 343.928 204.725 344.05L204.535 345.032C203.871 344.904 203.198 344.744 202.516 344.555L202.784 343.592ZM204.725 344.05C205.383 344.178 206.035 344.286 206.677 344.378L206.535 345.368C205.878 345.274 205.21 345.163 204.535 345.032L204.725 344.05ZM210.617 344.761C212.047 344.838 213.382 344.844 214.58 344.809L214.609 345.809C213.386 345.844 212.024 345.838 210.564 345.76L210.617 344.761ZM218.531 344.533C219.152 344.462 219.64 344.392 219.972 344.34C220.138 344.314 220.265 344.292 220.35 344.277C220.392 344.27 220.424 344.264 220.445 344.26C220.455 344.258 220.463 344.257 220.468 344.256C220.47 344.255 220.472 344.255 220.473 344.255C220.473 344.255 220.474 344.254 220.474 344.254C220.474 344.254 220.474 344.254 220.474 344.254C220.474 344.254 220.474 344.254 220.474 344.254C220.474 344.254 220.474 344.254 220.474 344.254C220.474 344.254 220.474 344.254 220.569 344.745C220.665 345.236 220.665 345.236 220.665 345.236C220.665 345.236 220.665 345.236 220.664 345.236C220.664 345.236 220.664 345.236 220.664 345.236C220.664 345.236 220.664 345.236 220.664 345.236C220.663 345.236 220.662 345.237 220.661 345.237C220.66 345.237 220.657 345.237 220.654 345.238C220.648 345.239 220.639 345.241 220.627 345.243C220.603 345.248 220.568 345.254 220.523 345.262C220.433 345.278 220.3 345.3 220.127 345.328C219.783 345.382 219.28 345.454 218.644 345.526L218.531 344.533ZM220.909 345.112L219.374 346.536L218.694 345.803L220.229 344.379L220.909 345.112ZM216.304 349.385L213.234 352.234L212.554 351.501L215.624 348.652L216.304 349.385ZM210.164 355.083L207.094 357.932L206.414 357.199L209.484 354.35L210.164 355.083ZM204.024 360.782L200.954 363.631L200.274 362.898L203.344 360.049L204.024 360.782ZM197.884 366.48L194.814 369.329L194.133 368.596L197.203 365.747L197.884 366.48ZM191.743 372.178L188.673 375.027L187.993 374.294L191.063 371.445L191.743 372.178ZM185.603 377.876L182.533 380.725L181.853 379.992L184.923 377.143L185.603 377.876ZM179.463 383.574L176.393 386.423L175.713 385.69L178.783 382.841L179.463 383.574ZM173.323 389.272L170.253 392.121L169.573 391.388L172.643 388.539L173.323 389.272ZM167.183 394.97L164.113 397.819L163.432 397.086L166.503 394.237L167.183 394.97ZM161.043 400.668L159.507 402.093L158.827 401.36L160.362 399.935L161.043 400.668ZM158.829 402.095L157.315 400.705L157.991 399.968L159.505 401.358L158.829 402.095ZM154.285 397.925L151.256 395.146L151.932 394.409L154.962 397.189L154.285 397.925ZM148.227 392.366L145.198 389.587L145.874 388.85L148.903 391.629L148.227 392.366ZM142.169 386.807L139.139 384.028L139.815 383.291L142.845 386.07L142.169 386.807ZM136.11 381.248L133.081 378.468L133.757 377.732L136.786 380.511L136.11 381.248ZM130.052 375.689L127.022 372.909L127.698 372.173L130.728 374.952L130.052 375.689ZM123.993 370.13L120.964 367.35L121.64 366.613L124.669 369.393L123.993 370.13ZM117.935 364.571L114.905 361.791L115.581 361.054L118.611 363.834L117.935 364.571ZM111.876 359.012L108.847 356.232L109.523 355.495L112.552 358.275L111.876 359.012ZM105.818 353.452L102.788 350.673L103.464 349.936L106.494 352.716L105.818 353.452ZM99.7591 347.893L96.7299 345.114L97.406 344.377L100.435 347.156L99.7591 347.893ZM93.7007 342.334L92.1861 340.944L92.8621 340.208L94.3768 341.597L93.7007 342.334ZM92.1799 340.213L93.5722 338.892L94.2605 339.618L92.8683 340.939L92.1799 340.213ZM96.3568 336.25L99.1413 333.608L99.8297 334.333L97.0451 336.975L96.3568 336.25ZM101.926 330.965L104.71 328.323L105.399 329.049L102.614 331.691L101.926 330.965ZM107.495 325.681L110.28 323.039L110.968 323.764L108.183 326.406L107.495 325.681ZM113.064 320.397L115.849 317.754L116.537 318.48L113.752 321.122L113.064 320.397ZM118.633 315.112L121.418 312.47L122.106 313.195L119.322 315.838L118.633 315.112ZM124.202 309.828L126.987 307.185L127.675 307.911L124.891 310.553L124.202 309.828ZM129.771 304.543L132.556 301.901L133.244 302.626L130.46 305.269L129.771 304.543ZM135.341 299.259L138.125 296.616L138.813 297.342L136.029 299.984L135.341 299.259ZM140.91 293.974L142.302 292.653L142.99 293.379L141.598 294.7L140.91 293.974Z" fill="#D4D4D4"/>
<path d="M307.376 320.866L315.164 322.5L296.164 334.908M307.376 320.866L274.664 314L287.164 333.141M307.376 320.866C306.275 323.383 306.698 324.655 308.164 326.5M296.164 334.908L290.664 338.5L287.164 333.141M296.164 334.908L292.664 329.5L287.164 333.141" stroke="#434C63"/>
<path fill-rule="evenodd" clip-rule="evenodd" d="M78.6252 213.391L78.0979 213.649L74.4066 215.453L73.8792 215.711L74.1408 216.246L75.2872 218.592L73.4233 221.061L71.2335 219.922L70.6274 219.607L70.4108 220.253L69.0822 224.218L68.8943 224.779L69.4522 224.975L72.2401 225.955L72.4306 228.355L69.6237 229.727L69.0963 229.985L69.358 230.52L71.4509 234.802L71.7125 235.337L72.2398 235.079L75.0468 233.707L76.8232 235.332L75.6185 238.927L75.4086 239.553L76.0512 239.702L79.7344 240.554L80.1945 240.661L80.3932 240.232L81.8245 237.145L85.0329 237.193L86.4409 240.074L86.7025 240.609L87.2299 240.351L90.9212 238.547L91.4485 238.289L91.1869 237.754L89.7653 234.846L91.2165 232.577L94.4997 233.337L95.0145 233.456L95.1827 232.954L96.2455 229.782L96.4137 229.28L95.936 229.05L92.809 227.545L92.3969 224.564L95.1808 223.203L95.7082 222.945L95.4466 222.41L93.6152 218.663L93.3536 218.128L92.8263 218.386L90.0424 219.747L87.9345 217.581L88.4139 214.972L88.5068 214.467L88.023 214.297L84.8672 213.187L84.3093 212.991L84.1214 213.551L83.194 216.319L80.0332 216.272L78.8868 213.927L78.6252 213.391ZM78.0938 214.977L79.1403 217.118L79.3019 217.449L79.6658 217.454L83.6146 217.514L84.0389 217.52L84.1743 217.116L85.0493 214.505L87.1634 215.248L86.7207 217.657L86.6646 217.962L86.882 218.185L89.5064 220.881L89.8055 221.189L90.1855 221.003L92.8222 219.714L94.1303 222.39L91.4936 223.679L91.1135 223.865L91.1722 224.289L91.6873 228.016L91.7316 228.337L92.0219 228.477L94.9616 229.892L94.2351 232.06L91.0668 231.327L90.6669 231.234L90.446 231.58L88.5942 234.474L88.4144 234.755L88.5625 235.058L89.8706 237.734L87.234 239.023L85.9259 236.347L85.7642 236.016L85.4004 236.011L81.4515 235.952L81.0749 235.946L80.916 236.289L79.5245 239.29L76.9442 238.693L78.0628 235.354L78.1867 234.985L77.8974 234.72L75.5347 232.559L75.2376 232.288L74.8806 232.462L72.2439 233.751L70.6742 230.54L73.3109 229.251L73.6679 229.076L73.6361 228.675L73.3826 225.484L73.3516 225.093L72.9838 224.963L70.3858 224.05L71.3099 221.292L73.3322 222.344L73.7709 222.573L74.0669 222.18L76.4461 219.028L76.6653 218.738L76.5036 218.407L75.4571 216.266L78.0938 214.977ZM85.4108 232.62C82.2072 234.186 78.3218 232.819 76.7324 229.568C75.1431 226.316 76.4517 222.411 79.6553 220.845C82.8589 219.279 86.7444 220.646 88.3337 223.897C89.9231 227.149 88.6145 231.054 85.4108 232.62ZM85.9341 233.691C82.148 235.541 77.5561 233.926 75.6777 230.083C73.7994 226.241 75.346 221.625 79.1321 219.775C82.9181 217.924 87.5101 219.539 89.3884 223.382C91.2667 227.224 89.7202 231.84 85.9341 233.691ZM79.8964 228.021C80.6188 229.499 82.385 230.12 83.8411 229.409C85.2973 228.697 85.8922 226.922 85.1697 225.444C84.4473 223.966 82.6812 223.345 81.225 224.056C79.7688 224.768 79.174 226.543 79.8964 228.021ZM78.8417 228.537C79.8531 230.606 82.3257 231.476 84.3644 230.479C86.403 229.483 87.2358 226.997 86.2244 224.928C85.213 222.859 82.7404 221.989 80.7017 222.986C78.6631 223.982 77.8303 226.468 78.8417 228.537Z" fill="#434C63"/>
<path d="M190.166 219L188.164 218M188.164 223.001L186.162 222M186.164 227.001L184.162 226M184.164 231.001L182.162 230M182.164 235.001L180.162 234M180.164 239.001L178.162 238M178.164 243.001L176.162 242M176.164 247.001L174.162 246M183.164 215L184.664 212.5L191.664 216.5L174.664 249.5L168.164 245.5L170.164 241.5C170.164 241.5 155.364 235.563 164.664 219.5C170.164 210 183.164 215 183.164 215ZM180.664 220.5L172.164 236C172.164 236 164.164 231.5 168.664 224C173.164 216.5 180.664 220.5 180.664 220.5Z" stroke="#434C63"/>
<circle r="15.693" transform="matrix(-0.936108 0.351713 0.351713 0.936108 313.956 244.642)" stroke="#434C63"/>
<path d="M312.746 240.919C313.563 241.973 315.08 242.164 316.134 241.347C317.187 240.53 317.379 239.013 316.562 237.96C315.744 236.906 314.228 236.714 313.174 237.532C312.121 238.349 311.929 239.865 312.746 240.919Z" fill="#D4D4D4"/>
<path d="M317.184 246.643C318.001 247.697 319.518 247.888 320.571 247.071C321.625 246.254 321.816 244.737 320.999 243.683C320.182 242.63 318.665 242.438 317.612 243.256C316.558 244.073 316.367 245.589 317.184 246.643Z" fill="#D4D4D4"/>
<path d="M306.768 245.733C307.585 246.786 309.102 246.978 310.155 246.16C311.209 245.343 311.4 243.827 310.583 242.773C309.766 241.719 308.249 241.528 307.196 242.345C306.142 243.162 305.95 244.679 306.768 245.733Z" fill="#D4D4D4"/>
<path d="M311.242 251.428C312.06 252.482 313.576 252.673 314.63 251.856C315.683 251.039 315.875 249.522 315.058 248.469C314.24 247.415 312.724 247.223 311.67 248.041C310.617 248.858 310.425 250.375 311.242 251.428Z" fill="#D4D4D4"/>
<path d="M157.228 85.9919C160.489 90.7171 173.883 92.5873 173.883 92.5873L176.239 113.083C176.239 113.083 150.507 116.73 143.782 129.178C136.523 142.614 150.669 167.671 150.669 167.671L138.916 177.639C138.916 177.639 124.306 170.526 115.091 169.192C105.877 167.858 91.7276 170.808 91.7276 170.808C91.7276 170.808 85.7713 158.136 79.1236 151.49C72.4758 144.845 57.6587 139.828 57.6587 139.828L59.4197 121.161C59.4197 121.161 86.7156 122.09 91.7152 102.729C96.7149 83.3684 83.3702 66.9193 83.3702 66.9193L102.132 56.4664C102.132 56.4664 109.07 65.1421 116.611 65.5597C124.153 65.9773 132.667 56.7026 132.667 56.7026L157.185 68.3883C157.185 68.3883 153.968 81.2668 157.228 85.9919Z" stroke="#434C63"/>
<path d="M152.717 88.6515C154.99 92.5737 169.718 96.8662 169.718 96.8662L170.155 109.982C170.155 109.982 144.011 114.76 138.648 125.558C132.86 137.213 143.498 165.819 143.498 165.819L137.529 171.162C137.529 171.162 120.979 162.48 114.19 161.625C107.401 160.77 96.8238 163.71 96.8238 163.71C96.8238 163.71 89.2621 153.752 84.5369 148.299C79.8117 142.845 64.3209 137.724 64.3209 137.724L65.1325 125.696C65.1325 125.696 91.353 121.904 95.6472 105.275C99.9413 88.6456 91.2578 68.9562 91.2578 68.9562L102.085 62.5734C102.085 62.5734 112.075 70.2916 117.651 70.4177C123.228 70.5439 133.522 62.2777 133.522 62.2777L152.721 71.0602C152.721 71.0602 150.444 84.7293 152.717 88.6515Z" stroke="#D5D5D5" stroke-linecap="round" stroke-dasharray="4 4"/>
<path d="M231.327 136.904L196.256 110.129L241.065 17.3077L281.191 42.6141M231.327 136.904L230.741 147.121M231.327 136.904L298.151 169.163M270.82 178.737C264.741 182.725 261.82 191.006 261.992 203.396C262.165 215.786 266.863 250.666 266.863 250.666L223.946 265.638L230.741 147.121M270.82 178.737C279.151 173.271 296.047 174.916 296.047 174.916M270.82 178.737L323.616 69.3702M296.047 174.916L230.741 147.121M296.047 174.916L298.151 169.163M230.741 147.121L281.191 42.6141M323.616 69.3702L332.579 75.0227L298.151 169.163M323.616 69.3702L281.191 42.6141" stroke="#434C63"/>
<path d="M243.633 26.4159L274.096 45.1081L232.416 130.253L204.976 106.239L243.633 26.4159Z" stroke="#D4D4D4" stroke-linecap="round" stroke-dasharray="4 4"/>
<path d="M230.293 258.298L259.637 247.273C259.637 247.273 251.449 207.654 259.23 183.802C261.262 177.575 268.119 169.579 268.119 169.579L234.907 156.942L230.293 258.298Z" stroke="#D4D4D4" stroke-linecap="round" stroke-dasharray="4 4"/>
<path d="M82.0378 11.374L84.6641 14.0002L77.6641 21.0002L55.6641 -0.999756L62.6641 -7.99976L69.8688 -0.795002M82.0378 11.374L80.6641 13.0002M82.0378 11.374L79.5194 8.85562M79.5194 8.85562L76.6641 12.0002M79.5194 8.85562L77.1641 6.50024M77.1641 6.50024L75.1641 8.50024M77.1641 6.50024L74.6641 4.00024M74.6641 4.00024L71.6641 7.00024M74.6641 4.00024L72.1641 1.50024M72.1641 1.50024L70.1641 3.50024M72.1641 1.50024L69.8688 -0.795002M69.8688 -0.795002L66.6641 2.50024" stroke="#434C63"/>
<circle r="20.8598" transform="matrix(-0.936108 0.351713 0.351713 0.936108 162.499 6.86363)" stroke="#434C63"/>
<path d="M160.888 1.9148C161.974 3.31526 163.99 3.56994 165.39 2.48364C166.791 1.39733 167.046 -0.618591 165.959 -2.01906C164.873 -3.41952 162.857 -3.6742 161.457 -2.5879C160.056 -1.5016 159.801 0.514329 160.888 1.9148Z" fill="#D4D4D4"/>
<path d="M166.792 9.52295C167.878 10.9234 169.894 11.1781 171.295 10.0918C172.695 9.00549 172.95 6.98956 171.864 5.5891C170.777 4.18863 168.761 3.93395 167.361 5.02025C165.96 6.10656 165.706 8.12248 166.792 9.52295Z" fill="#D4D4D4"/>
<path d="M152.942 8.31274C154.029 9.71321 156.045 9.96789 157.445 8.88158C158.846 7.79528 159.1 5.77936 158.014 4.37889C156.928 2.97842 154.912 2.72374 153.511 3.81005C152.111 4.89635 151.856 6.91228 152.942 8.31274Z" fill="#D4D4D4"/>
<path d="M158.892 15.8833C159.978 17.2838 161.994 17.5384 163.394 16.4521C164.795 15.3658 165.049 13.3499 163.963 11.9494C162.877 10.549 160.861 10.2943 159.46 11.3806C158.06 12.4669 157.805 14.4828 158.892 15.8833Z" fill="#D4D4D4"/>
<path fill-rule="evenodd" clip-rule="evenodd" d="M308.664 7.00024L308.164 7.00024L304.664 7.00024L304.164 7.00024L304.164 7.50024L304.164 9.69123L301.814 10.8664L300.564 9.20024L300.218 8.73904L299.811 9.14669L297.311 11.6467L296.957 12.0002L297.311 12.3538L299.077 14.1207L298.326 16.0002L295.664 16.0002L295.164 16.0002L295.164 16.5002L295.164 20.5002L295.164 21.0002L295.664 21.0002L298.326 21.0002L299.077 22.8798L296.811 25.1467L296.415 25.5417L296.852 25.8907L299.352 27.8907L299.664 28.1406L299.976 27.8907L302.227 26.0905L304.664 27.3093L304.664 30.0002L304.664 30.5002L305.164 30.5002L308.664 30.5002L309.164 30.5002L309.164 30.0002L309.164 27.2833L311.123 26.1079L313.352 27.8907L313.701 28.1702L314.018 27.8538L316.018 25.8538L316.334 25.5374L316.054 25.1879L314.224 22.9003L315.024 20.5002L317.664 20.5002L318.164 20.5002L318.164 20.0002L318.164 16.5002L318.164 16.0002L317.664 16.0002L315.024 16.0002L314.221 13.5907L315.564 11.8002L315.824 11.4533L315.518 11.1467L313.518 9.14669L313.164 8.79314L312.811 9.14669L311.065 10.8919L308.664 9.69123L308.664 7.50024L308.664 7.00024ZM307.664 8.00024L307.664 10.0002L307.664 10.3093L307.94 10.4475L310.94 11.9475L311.263 12.1086L311.518 11.8538L313.164 10.2074L314.504 11.5472L313.264 13.2002L313.107 13.4098L313.19 13.6584L314.19 16.6584L314.304 17.0002L314.664 17.0002L317.164 17.0002L317.164 19.5002L314.664 19.5002L314.304 19.5002L314.19 19.8421L313.19 22.8421L313.104 23.1002L313.274 23.3126L314.994 25.4631L313.627 26.8302L311.476 25.1098L311.205 24.8926L310.907 25.0715L308.407 26.5715L308.164 26.7171L308.164 27.0002L308.164 29.5002L305.664 29.5002L305.664 27.0002L305.664 26.6912L305.388 26.553L302.388 25.053L302.102 24.91L301.852 25.1098L299.664 26.8599L297.913 25.4588L300.018 23.3538L300.251 23.1207L300.128 22.8145L299.128 20.3145L299.003 20.0002L298.664 20.0002L296.164 20.0002L296.164 17.0002L298.664 17.0002L299.003 17.0002L299.128 16.6859L300.128 14.1859L300.251 13.8798L300.018 13.6467L298.371 12.0002L300.11 10.2614L301.264 11.8002L301.514 12.1341L301.888 11.9475L304.888 10.4475L305.164 10.3093L305.164 10.0002L305.164 8.00024L307.664 8.00024ZM306.664 24.0002C303.626 24.0002 301.164 21.5378 301.164 18.5002C301.164 15.4627 303.626 13.0002 306.664 13.0002C309.702 13.0002 312.164 15.4627 312.164 18.5002C312.164 21.5378 309.702 24.0002 306.664 24.0002ZM306.664 25.0002C303.074 25.0002 300.164 22.0901 300.164 18.5002C300.164 14.9104 303.074 12.0002 306.664 12.0002C310.254 12.0002 313.164 14.9104 313.164 18.5002C313.164 22.0901 310.254 25.0002 306.664 25.0002ZM304.164 18.5002C304.164 19.881 305.283 21.0002 306.664 21.0002C308.045 21.0002 309.164 19.881 309.164 18.5002C309.164 17.1195 308.045 16.0002 306.664 16.0002C305.283 16.0002 304.164 17.1195 304.164 18.5002ZM303.164 18.5002C303.164 20.4332 304.731 22.0002 306.664 22.0002C308.597 22.0002 310.164 20.4332 310.164 18.5002C310.164 16.5672 308.597 15.0002 306.664 15.0002C304.731 15.0002 303.164 16.5672 303.164 18.5002Z" fill="#434C63"/>
</svg>
