<svg width="341" height="600" viewBox="0 0 341 600" fill="none" xmlns="http://www.w3.org/2000/svg">
<path d="M209.508 484.618C204.468 484.106 197.327 474.545 197.327 474.545L180.477 481.438C180.477 481.438 188.598 502.886 181.833 513.379C174.53 524.705 149.139 524.422 149.139 524.422L146.429 537.748C146.429 537.748 158.142 546.021 163.091 552.579C168.041 559.137 171.777 571.332 171.777 571.332C171.777 571.332 184.109 570.549 192.074 572.864C200.039 575.179 210.219 584.503 210.219 584.503L223.905 575.203C223.905 575.203 211.579 554.492 224.424 542.393C237.269 530.294 255.662 533.619 255.662 533.619L255.767 514.666C255.767 514.666 246.108 512.99 242.579 507.337C239.049 501.683 242.6 491.156 242.6 491.156L223.139 477.166C223.139 477.166 214.548 485.13 209.508 484.618Z" stroke="#434C63"/>
<path d="M209.37 489.239C205.371 489.149 195.789 479.586 195.789 479.586L185.461 484.825C185.461 484.825 192.884 507.072 186.815 515.81C180.264 525.243 153.621 529.181 153.621 529.181L152.028 536.068C152.028 536.068 165.779 545.174 169.327 550.06C172.875 554.946 175.099 564.375 175.099 564.375C175.099 564.375 186.014 565.987 192.24 567.322C198.466 568.657 209.013 578.458 209.013 578.458L217.969 572.715C217.969 572.715 209.752 550.828 220.784 540.436C231.817 530.045 250.734 528.387 250.734 528.387L251.065 517.301C251.065 517.301 240.849 512.858 238.38 508.6C235.912 504.341 237.926 492.867 237.926 492.867L222.971 481.755C222.971 481.755 213.37 489.328 209.37 489.239Z" stroke="#D4D4D4" stroke-linecap="round" stroke-dasharray="4 4"/>
<circle cx="86.6529" cy="555.652" r="13.7071" transform="rotate(20.5921 86.6529 555.652)" stroke="#434C63"/>
<path d="M87.7107 552.4C86.9969 553.32 85.6722 553.488 84.7519 552.774C83.8317 552.06 83.6643 550.735 84.3782 549.815C85.092 548.895 86.4167 548.728 87.3369 549.441C88.2572 550.155 88.4245 551.48 87.7107 552.4Z" fill="#D4D4D4"/>
<path d="M83.8357 557.4C83.1219 558.32 81.7972 558.487 80.8769 557.773C79.9567 557.06 79.7893 555.735 80.5032 554.815C81.217 553.894 82.5417 553.727 83.4619 554.441C84.3822 555.155 84.5495 556.479 83.8357 557.4Z" fill="#D4D4D4"/>
<path d="M92.9334 556.604C92.2195 557.525 90.8949 557.692 89.9746 556.978C89.0543 556.264 88.887 554.94 89.6008 554.02C90.3146 553.099 91.6393 552.932 92.5596 553.646C93.4798 554.36 93.6472 555.684 92.9334 556.604Z" fill="#D4D4D4"/>
<path d="M89.0251 561.579C88.3113 562.5 86.9867 562.667 86.0664 561.953C85.1461 561.239 84.9788 559.915 85.6926 558.994C86.4064 558.074 87.7311 557.907 88.6514 558.621C89.5716 559.334 89.739 560.659 89.0251 561.579Z" fill="#D4D4D4"/>
<path fill-rule="evenodd" clip-rule="evenodd" d="M234.14 415.254L234.727 415.022L238.831 413.401L239.418 413.169L239.652 413.763L240.68 416.364L243.987 416.671L244.671 414.114L244.86 413.406L245.53 413.701L249.634 415.511L250.214 415.767L249.966 416.351L248.722 419.267L250.486 421.15L253.607 419.918L254.193 419.686L254.428 420.28L256.304 425.029L256.538 425.622L255.952 425.854L252.831 427.087L252.831 429.667L256.552 431.308L257.201 431.594L256.853 432.211L254.859 435.743L254.61 436.185L254.127 436.033L250.644 434.938L248.357 437.514L249.619 440.709L249.854 441.303L249.267 441.534L245.163 443.156L244.576 443.387L244.342 442.794L243.068 439.568L240.219 439.08L238.442 442.229L238.163 442.723L237.644 442.494L234.36 441.046L233.841 440.817L234.005 440.272L235.078 436.708L233.014 434.229L229.918 435.452L229.332 435.684L229.097 435.09L227.456 430.934L227.221 430.341L227.808 430.109L230.903 428.886L230.715 425.653L228.3 424.15L227.833 423.858L228.048 423.352L229.456 420.051L229.704 419.467L230.285 419.723L233.15 420.987L235.403 418.449L234.375 415.848L234.14 415.254ZM235.782 415.978L236.72 418.353L236.865 418.72L236.606 419.012L233.791 422.183L233.489 422.523L233.071 422.339L230.368 421.147L229.425 423.358L231.654 424.746L231.937 424.922L231.956 425.256L232.191 429.281L232.217 429.74L231.795 429.907L228.863 431.065L230.036 434.033L232.967 432.875L233.39 432.708L233.684 433.061L236.264 436.16L236.486 436.426L236.386 436.757L235.377 440.108L237.622 441.098L239.337 438.059L239.553 437.675L239.987 437.749L243.622 438.372L243.975 438.433L244.108 438.769L245.28 441.737L248.212 440.579L247.039 437.61L246.894 437.244L247.154 436.951L249.968 433.781L250.237 433.478L250.623 433.6L254.01 434.664L255.406 432.189L251.95 430.665L251.568 430.496L251.568 430.076L251.568 426.645L251.568 426.213L251.965 426.057L254.896 424.898L253.489 421.336L250.558 422.495L250.161 422.651L249.866 422.336L247.521 419.831L247.233 419.525L247.397 419.14L248.556 416.422L245.701 415.163L245.07 417.525L244.933 418.037L244.407 417.989L240.186 417.598L239.797 417.562L239.652 417.195L238.714 414.82L235.782 415.978ZM244.459 434.512C248.022 433.105 249.754 429.04 248.33 425.434C246.905 421.827 242.862 420.044 239.3 421.451C235.738 422.859 234.005 426.923 235.43 430.53C236.855 434.136 240.897 435.919 244.459 434.512ZM244.928 435.699C249.138 434.036 251.186 429.233 249.502 424.97C247.818 420.708 243.041 418.601 238.831 420.264C234.621 421.927 232.574 426.731 234.257 430.993C235.941 435.255 240.719 437.362 244.928 435.699ZM244.811 426.823C245.459 428.463 244.671 430.31 243.052 430.95C241.433 431.59 239.596 430.779 238.948 429.14C238.3 427.5 239.088 425.653 240.707 425.013C242.326 424.374 244.164 425.184 244.811 426.823ZM245.984 426.36C246.891 428.655 245.788 431.242 243.521 432.137C241.255 433.033 238.682 431.898 237.775 429.603C236.869 427.308 237.971 424.722 240.238 423.826C242.505 422.931 245.078 424.065 245.984 426.36Z" fill="#434C63"/>
<path d="M24.3766 427.376L102.376 337.511M24.3766 427.376C24.3766 427.376 19.0683 437.689 -26.5126 454.013C-72.0936 470.338 -77.4018 480.651 -77.4018 480.651L17.4473 576L96.1737 497.87M24.3766 427.376L60.2751 462.623M102.376 337.511C102.376 337.511 122.639 340.618 132.632 337.866C142.624 335.113 153.551 323.413 153.551 323.413M102.376 337.511L152.308 384.783M260.569 339.365L181.898 412.796M260.569 339.365L198.653 279.122M260.569 339.365C260.569 339.365 251.174 324.554 248.408 315.743C247.277 312.142 246.735 307.892 246.49 304.126M181.898 412.796L96.1737 497.87M181.898 412.796L152.308 384.783M153.551 323.413L198.653 279.122M153.551 323.413L178.126 281.9M96.1737 497.87L85.0623 486.96M152.308 384.783L77.5022 451.648M77.5022 451.648L57.2559 425.168L60.2751 462.623M77.5022 451.648L96.4125 477.501L85.0623 486.96M60.2751 462.623L85.0623 486.96M60.2751 462.623L7.7122 521.418L72.6687 474.792M198.653 279.122L183.539 272.755L178.126 281.9M198.653 279.122L246.401 294.242C246.401 294.242 246.135 298.678 246.49 304.126M246.49 304.126L178.126 281.9" stroke="#434C63"/>
<path d="M197.518 293.016L197.862 292.653L197.47 292.281L197.13 292.701L197.518 293.016ZM135.534 344.541L135.439 344.05L135.534 344.541ZM119.595 344.745L119.69 344.254L117.971 343.92L119.255 345.112L119.595 344.745ZM180.997 401.726L180.657 402.093L180.995 402.406L181.335 402.095L180.997 401.726ZM247.64 340.576L247.978 340.944L248.373 340.582L247.984 340.213L247.64 340.576ZM195.855 294.239C195.678 294.451 195.706 294.766 195.918 294.944C196.129 295.121 196.445 295.093 196.622 294.881L195.855 294.239ZM193.962 298.009C194.142 297.8 194.119 297.484 193.91 297.304C193.701 297.124 193.385 297.147 193.204 297.356L193.962 298.009ZM190.519 300.43C190.336 300.637 190.356 300.953 190.563 301.136C190.77 301.319 191.085 301.299 191.268 301.092L190.519 300.43ZM188.537 304.145C188.722 303.94 188.707 303.624 188.502 303.439C188.297 303.253 187.981 303.269 187.796 303.474L188.537 304.145ZM185.047 306.475C184.859 306.677 184.871 306.993 185.074 307.181C185.276 307.369 185.592 307.357 185.78 307.154L185.047 306.475ZM182.977 310.141C183.167 309.941 183.159 309.625 182.959 309.435C182.759 309.244 182.442 309.253 182.252 309.453L182.977 310.141ZM179.422 312.395C179.229 312.592 179.233 312.909 179.431 313.102C179.629 313.294 179.945 313.29 180.138 313.093L179.422 312.395ZM177.266 315.999C177.461 315.804 177.461 315.488 177.266 315.292C177.071 315.097 176.755 315.097 176.559 315.292L177.266 315.999ZM173.651 318.151C173.453 318.343 173.448 318.66 173.64 318.858C173.832 319.057 174.149 319.062 174.347 318.869L173.651 318.151ZM171.383 321.695C171.584 321.506 171.594 321.19 171.406 320.988C171.217 320.787 170.9 320.777 170.699 320.965L171.383 321.695ZM167.7 323.726C167.495 323.911 167.479 324.227 167.664 324.432C167.849 324.637 168.165 324.653 168.37 324.468L167.7 323.726ZM165.304 327.183C165.513 327.002 165.535 326.686 165.354 326.477C165.174 326.269 164.858 326.246 164.649 326.427L165.304 327.183ZM161.54 329.06C161.327 329.235 161.297 329.551 161.473 329.764C161.649 329.976 161.964 330.006 162.177 329.831L161.54 329.06ZM158.983 332.398C159.2 332.228 159.239 331.914 159.069 331.696C158.899 331.479 158.585 331.44 158.367 331.61L158.983 332.398ZM155.126 334.06C154.903 334.223 154.854 334.535 155.017 334.758C155.18 334.982 155.492 335.03 155.716 334.868L155.126 334.06ZM152.349 337.227C152.579 337.073 152.64 336.762 152.486 336.533C152.332 336.304 152.022 336.242 151.792 336.396L152.349 337.227ZM148.366 338.579C148.129 338.721 148.053 339.028 148.195 339.265C148.337 339.502 148.644 339.578 148.881 339.436L148.366 338.579ZM145.303 341.442C145.549 341.315 145.644 341.013 145.517 340.768C145.39 340.523 145.089 340.427 144.844 340.554L145.303 341.442ZM141.169 342.272C140.914 342.377 140.792 342.669 140.898 342.925C141.003 343.18 141.296 343.301 141.551 343.196L141.169 342.272ZM137.648 344.555C137.914 344.481 138.069 344.205 137.996 343.939C137.922 343.673 137.646 343.518 137.38 343.591L137.648 344.555ZM133.487 344.378C133.214 344.417 133.024 344.67 133.063 344.943C133.102 345.217 133.355 345.407 133.629 345.368L133.487 344.378ZM129.6 345.76C129.876 345.745 130.087 345.509 130.073 345.234C130.058 344.958 129.822 344.746 129.547 344.761L129.6 345.76ZM125.584 344.809C125.308 344.801 125.078 345.019 125.07 345.295C125.062 345.571 125.279 345.801 125.556 345.809L125.584 344.809ZM121.52 345.526C121.794 345.557 122.042 345.36 122.073 345.086C122.105 344.812 121.908 344.564 121.633 344.532L121.52 345.526ZM120.79 346.536C120.992 346.724 121.308 346.712 121.496 346.51C121.684 346.307 121.672 345.991 121.47 345.803L120.79 346.536ZM124.54 348.652C124.338 348.464 124.021 348.476 123.833 348.678C123.646 348.881 123.657 349.197 123.86 349.385L124.54 348.652ZM126.93 352.234C127.132 352.422 127.449 352.41 127.637 352.208C127.824 352.005 127.813 351.689 127.61 351.501L126.93 352.234ZM130.68 354.35C130.478 354.162 130.161 354.174 129.974 354.377C129.786 354.579 129.798 354.895 130 355.083L130.68 354.35ZM133.07 357.932C133.273 358.12 133.589 358.108 133.777 357.906C133.965 357.703 133.953 357.387 133.75 357.199L133.07 357.932ZM136.82 360.048C136.618 359.86 136.302 359.872 136.114 360.075C135.926 360.277 135.938 360.593 136.14 360.781L136.82 360.048ZM139.21 363.63C139.413 363.818 139.729 363.806 139.917 363.604C140.105 363.402 140.093 363.085 139.891 362.897L139.21 363.63ZM142.961 365.746C142.758 365.559 142.442 365.57 142.254 365.773C142.066 365.975 142.078 366.292 142.28 366.479L142.961 365.746ZM145.35 369.328C145.553 369.516 145.869 369.504 146.057 369.302C146.245 369.1 146.233 368.783 146.031 368.595L145.35 369.328ZM149.101 371.445C148.898 371.257 148.582 371.268 148.394 371.471C148.206 371.673 148.218 371.99 148.421 372.178L149.101 371.445ZM151.491 375.027C151.693 375.214 152.009 375.203 152.197 375C152.385 374.798 152.373 374.481 152.171 374.294L151.491 375.027ZM155.241 377.143C155.039 376.955 154.722 376.967 154.534 377.169C154.347 377.371 154.358 377.688 154.561 377.876L155.241 377.143ZM157.631 380.725C157.833 380.913 158.15 380.901 158.337 380.698C158.525 380.496 158.513 380.18 158.311 379.992L157.631 380.725ZM161.381 382.841C161.179 382.653 160.862 382.665 160.675 382.867C160.487 383.07 160.499 383.386 160.701 383.574L161.381 382.841ZM163.771 386.423C163.973 386.611 164.29 386.599 164.478 386.396C164.666 386.194 164.654 385.878 164.451 385.69L163.771 386.423ZM167.521 388.539C167.319 388.351 167.003 388.363 166.815 388.565C166.627 388.768 166.639 389.084 166.841 389.272L167.521 388.539ZM169.911 392.121C170.114 392.309 170.43 392.297 170.618 392.095C170.806 391.892 170.794 391.576 170.591 391.388L169.911 392.121ZM173.662 394.237C173.459 394.049 173.143 394.061 172.955 394.263C172.767 394.466 172.779 394.782 172.981 394.97L173.662 394.237ZM176.051 397.819C176.254 398.007 176.57 397.995 176.758 397.793C176.946 397.59 176.934 397.274 176.732 397.086L176.051 397.819ZM179.802 399.935C179.599 399.747 179.283 399.759 179.095 399.961C178.907 400.164 178.919 400.48 179.122 400.668L179.802 399.935ZM182.849 400.705C183.053 400.518 183.066 400.202 182.88 399.998C182.693 399.795 182.377 399.781 182.173 399.968L182.849 400.705ZM185.203 397.188C184.999 397.375 184.985 397.691 185.172 397.895C185.359 398.098 185.675 398.112 185.879 397.925L185.203 397.188ZM188.908 395.146C189.111 394.959 189.125 394.643 188.938 394.439C188.751 394.236 188.435 394.222 188.232 394.409L188.908 395.146ZM191.261 391.629C191.058 391.816 191.044 392.132 191.231 392.336C191.417 392.539 191.734 392.553 191.937 392.366L191.261 391.629ZM194.966 389.586C195.17 389.4 195.183 389.083 194.997 388.88C194.81 388.677 194.494 388.663 194.29 388.85L194.966 389.586ZM197.319 386.07C197.116 386.257 197.102 386.573 197.289 386.777C197.476 386.98 197.792 386.994 197.996 386.807L197.319 386.07ZM201.025 384.027C201.228 383.841 201.242 383.524 201.055 383.321C200.868 383.117 200.552 383.104 200.349 383.291L201.025 384.027ZM203.378 380.511C203.174 380.698 203.161 381.014 203.348 381.217C203.534 381.421 203.851 381.434 204.054 381.248L203.378 380.511ZM207.083 378.468C207.287 378.282 207.3 377.965 207.114 377.762C206.927 377.558 206.611 377.545 206.407 377.731L207.083 378.468ZM209.436 374.952C209.233 375.139 209.219 375.455 209.406 375.658C209.593 375.862 209.909 375.875 210.113 375.689L209.436 374.952ZM213.142 372.909C213.345 372.722 213.359 372.406 213.172 372.203C212.985 371.999 212.669 371.986 212.466 372.172L213.142 372.909ZM215.495 369.393C215.291 369.579 215.278 369.896 215.465 370.099C215.651 370.303 215.968 370.316 216.171 370.13L215.495 369.393ZM219.2 367.35C219.404 367.163 219.417 366.847 219.231 366.644C219.044 366.44 218.728 366.426 218.524 366.613L219.2 367.35ZM221.553 363.834C221.35 364.02 221.336 364.337 221.523 364.54C221.71 364.744 222.026 364.757 222.229 364.57L221.553 363.834ZM225.259 361.791C225.462 361.604 225.476 361.288 225.289 361.084C225.102 360.881 224.786 360.867 224.583 361.054L225.259 361.791ZM227.612 358.274C227.408 358.461 227.395 358.777 227.582 358.981C227.768 359.184 228.084 359.198 228.288 359.011L227.612 358.274ZM231.317 356.232C231.521 356.045 231.534 355.729 231.348 355.525C231.161 355.322 230.845 355.308 230.641 355.495L231.317 356.232ZM233.67 352.715C233.467 352.902 233.453 353.218 233.64 353.422C233.827 353.625 234.143 353.639 234.346 353.452L233.67 352.715ZM237.376 350.673C237.579 350.486 237.593 350.17 237.406 349.966C237.219 349.763 236.903 349.749 236.7 349.936L237.376 350.673ZM239.729 347.156C239.525 347.343 239.512 347.659 239.698 347.863C239.885 348.066 240.201 348.08 240.405 347.893L239.729 347.156ZM243.434 345.113C243.638 344.927 243.651 344.611 243.465 344.407C243.278 344.204 242.962 344.19 242.758 344.377L243.434 345.113ZM245.787 341.597C245.584 341.784 245.57 342.1 245.757 342.304C245.944 342.507 246.26 342.521 246.463 342.334L245.787 341.597ZM246.592 338.892C246.392 338.702 246.075 338.71 245.885 338.91C245.695 339.111 245.703 339.427 245.904 339.617L246.592 338.892ZM243.119 336.975C243.319 337.165 243.636 337.157 243.826 336.957C244.016 336.756 244.008 336.44 243.807 336.25L243.119 336.975ZM241.023 333.607C240.822 333.417 240.506 333.426 240.316 333.626C240.126 333.826 240.134 334.143 240.334 334.333L241.023 333.607ZM237.55 331.691C237.75 331.881 238.067 331.872 238.257 331.672C238.447 331.472 238.438 331.155 238.238 330.965L237.55 331.691ZM235.454 328.323C235.253 328.133 234.937 328.141 234.747 328.342C234.557 328.542 234.565 328.858 234.765 329.048L235.454 328.323ZM231.981 326.406C232.181 326.596 232.498 326.588 232.688 326.388C232.878 326.187 232.869 325.871 232.669 325.681L231.981 326.406ZM229.884 323.039C229.684 322.848 229.368 322.857 229.178 323.057C228.988 323.257 228.996 323.574 229.196 323.764L229.884 323.039ZM226.412 321.122C226.612 321.312 226.928 321.303 227.118 321.103C227.309 320.903 227.3 320.586 227.1 320.396L226.412 321.122ZM224.315 317.754C224.115 317.564 223.799 317.572 223.609 317.773C223.418 317.973 223.427 318.289 223.627 318.479L224.315 317.754ZM220.842 315.837C221.043 316.027 221.359 316.019 221.549 315.819C221.739 315.618 221.731 315.302 221.531 315.112L220.842 315.837ZM218.746 312.47C218.546 312.28 218.229 312.288 218.039 312.488C217.849 312.688 217.858 313.005 218.058 313.195L218.746 312.47ZM215.273 310.553C215.474 310.743 215.79 310.735 215.98 310.534C216.17 310.334 216.162 310.017 215.962 309.827L215.273 310.553ZM213.177 307.185C212.977 306.995 212.66 307.003 212.47 307.204C212.28 307.404 212.289 307.72 212.489 307.911L213.177 307.185ZM209.704 305.268C209.905 305.458 210.221 305.45 210.411 305.25C210.601 305.049 210.593 304.733 210.393 304.543L209.704 305.268ZM207.608 301.901C207.408 301.711 207.091 301.719 206.901 301.919C206.711 302.12 206.719 302.436 206.92 302.626L207.608 301.901ZM204.135 299.984C204.335 300.174 204.652 300.166 204.842 299.965C205.032 299.765 205.024 299.449 204.823 299.258L204.135 299.984ZM202.039 296.616C201.839 296.426 201.522 296.434 201.332 296.635C201.142 296.835 201.15 297.152 201.351 297.342L202.039 296.616ZM198.566 294.699C198.766 294.89 199.083 294.881 199.273 294.681C199.463 294.481 199.455 294.164 199.254 293.974L198.566 294.699ZM197.518 293.016C197.13 292.701 197.13 292.701 197.13 292.701C197.13 292.701 197.13 292.701 197.13 292.701C197.13 292.701 197.13 292.701 197.13 292.701C197.13 292.701 197.129 292.701 197.129 292.701C197.129 292.701 197.129 292.702 197.128 292.702C197.128 292.703 197.126 292.705 197.125 292.707C197.121 292.711 197.116 292.717 197.109 292.726C197.096 292.742 197.075 292.768 197.048 292.801C196.993 292.868 196.911 292.968 196.804 293.098C196.589 293.359 196.27 293.745 195.855 294.239L196.622 294.881C197.038 294.384 197.359 293.997 197.576 293.734C197.684 293.602 197.767 293.502 197.822 293.434C197.85 293.4 197.871 293.374 197.885 293.357C197.892 293.348 197.897 293.342 197.901 293.337C197.902 293.335 197.904 293.334 197.905 293.332C197.905 293.332 197.906 293.331 197.906 293.331C197.906 293.331 197.906 293.331 197.906 293.331C197.906 293.331 197.906 293.331 197.906 293.331C197.906 293.331 197.906 293.331 197.906 293.331C197.906 293.331 197.906 293.331 197.518 293.016ZM193.204 297.356C192.412 298.275 191.513 299.306 190.519 300.43L191.268 301.092C192.265 299.965 193.167 298.931 193.962 298.009L193.204 297.356ZM187.796 303.474C186.926 304.434 186.008 305.438 185.047 306.475L185.78 307.154C186.744 306.115 187.665 305.108 188.537 304.145L187.796 303.474ZM182.252 309.453C181.337 310.416 180.392 311.399 179.422 312.395L180.138 313.093C181.112 312.094 182.059 311.108 182.977 310.141L182.252 309.453ZM176.559 315.292C175.608 316.241 174.638 317.196 173.651 318.151L174.347 318.869C175.338 317.91 176.311 316.952 177.266 315.999L176.559 315.292ZM170.699 320.965C169.711 321.891 168.71 322.813 167.7 323.726L168.37 324.468C169.386 323.551 170.391 322.625 171.383 321.695L170.699 320.965ZM164.649 326.427C163.619 327.32 162.581 328.199 161.54 329.06L162.177 329.831C163.225 328.965 164.268 328.081 165.304 327.183L164.649 326.427ZM158.367 331.61C157.287 332.454 156.206 333.272 155.126 334.06L155.716 334.868C156.804 334.073 157.895 333.248 158.983 332.398L158.367 331.61ZM151.792 336.396C150.643 337.168 149.499 337.897 148.366 338.579L148.881 339.436C150.03 338.745 151.187 338.006 152.349 337.227L151.792 336.396ZM144.844 340.554C143.598 341.199 142.371 341.775 141.169 342.272L141.551 343.196C142.783 342.687 144.036 342.099 145.303 341.442L144.844 340.554ZM137.38 343.591C136.722 343.774 136.075 343.928 135.439 344.05L135.629 345.032C136.293 344.904 136.966 344.744 137.648 344.555L137.38 343.591ZM135.439 344.05C134.781 344.177 134.129 344.286 133.487 344.378L133.629 345.368C134.286 345.273 134.954 345.162 135.629 345.032L135.439 344.05ZM129.547 344.761C128.117 344.838 126.782 344.843 125.584 344.809L125.556 345.809C126.778 345.844 128.14 345.838 129.6 345.76L129.547 344.761ZM121.633 344.532C121.012 344.462 120.524 344.392 120.192 344.339C120.026 344.313 119.899 344.292 119.814 344.277C119.772 344.269 119.74 344.264 119.72 344.26C119.709 344.258 119.701 344.256 119.697 344.255C119.694 344.255 119.692 344.255 119.691 344.254C119.691 344.254 119.69 344.254 119.69 344.254C119.69 344.254 119.69 344.254 119.69 344.254C119.69 344.254 119.69 344.254 119.69 344.254C119.69 344.254 119.69 344.254 119.69 344.254C119.69 344.254 119.69 344.254 119.595 344.745C119.499 345.236 119.499 345.236 119.499 345.236C119.5 345.236 119.5 345.236 119.5 345.236C119.5 345.236 119.5 345.236 119.5 345.236C119.5 345.236 119.5 345.236 119.5 345.236C119.501 345.236 119.502 345.236 119.503 345.236C119.504 345.237 119.507 345.237 119.51 345.238C119.516 345.239 119.525 345.241 119.537 345.243C119.561 345.247 119.596 345.254 119.641 345.262C119.731 345.278 119.864 345.3 120.037 345.327C120.381 345.381 120.884 345.453 121.52 345.526L121.633 344.532ZM119.255 345.112L120.79 346.536L121.47 345.803L119.935 344.379L119.255 345.112ZM123.86 349.385L126.93 352.234L127.61 351.501L124.54 348.652L123.86 349.385ZM130 355.083L133.07 357.932L133.75 357.199L130.68 354.35L130 355.083ZM136.14 360.781L139.21 363.63L139.891 362.897L136.82 360.048L136.14 360.781ZM142.28 366.479L145.35 369.328L146.031 368.595L142.961 365.746L142.28 366.479ZM148.421 372.178L151.491 375.027L152.171 374.294L149.101 371.445L148.421 372.178ZM154.561 377.876L157.631 380.725L158.311 379.992L155.241 377.143L154.561 377.876ZM160.701 383.574L163.771 386.423L164.451 385.69L161.381 382.841L160.701 383.574ZM166.841 389.272L169.911 392.121L170.591 391.388L167.521 388.539L166.841 389.272ZM172.981 394.97L176.051 397.819L176.732 397.086L173.662 394.237L172.981 394.97ZM179.122 400.668L180.657 402.093L181.337 401.36L179.802 399.935L179.122 400.668ZM181.335 402.095L182.849 400.705L182.173 399.968L180.659 401.358L181.335 402.095ZM185.879 397.925L188.908 395.146L188.232 394.409L185.203 397.188L185.879 397.925ZM191.937 392.366L194.966 389.586L194.29 388.85L191.261 391.629L191.937 392.366ZM197.996 386.807L201.025 384.027L200.349 383.291L197.319 386.07L197.996 386.807ZM204.054 381.248L207.083 378.468L206.407 377.731L203.378 380.511L204.054 381.248ZM210.113 375.689L213.142 372.909L212.466 372.172L209.436 374.952L210.113 375.689ZM216.171 370.13L219.2 367.35L218.524 366.613L215.495 369.393L216.171 370.13ZM222.229 364.57L225.259 361.791L224.583 361.054L221.553 363.834L222.229 364.57ZM228.288 359.011L231.317 356.232L230.641 355.495L227.612 358.274L228.288 359.011ZM234.346 353.452L237.376 350.673L236.7 349.936L233.67 352.715L234.346 353.452ZM240.405 347.893L243.434 345.113L242.758 344.377L239.729 347.156L240.405 347.893ZM246.463 342.334L247.978 340.944L247.302 340.207L245.787 341.597L246.463 342.334ZM247.984 340.213L246.592 338.892L245.904 339.617L247.296 340.938L247.984 340.213ZM243.807 336.25L241.023 333.607L240.334 334.333L243.119 336.975L243.807 336.25ZM238.238 330.965L235.454 328.323L234.765 329.048L237.55 331.691L238.238 330.965ZM232.669 325.681L229.884 323.039L229.196 323.764L231.981 326.406L232.669 325.681ZM227.1 320.396L224.315 317.754L223.627 318.479L226.412 321.122L227.1 320.396ZM221.531 315.112L218.746 312.47L218.058 313.195L220.842 315.837L221.531 315.112ZM215.962 309.827L213.177 307.185L212.489 307.911L215.273 310.553L215.962 309.827ZM210.393 304.543L207.608 301.901L206.92 302.626L209.704 305.268L210.393 304.543ZM204.823 299.258L202.039 296.616L201.351 297.342L204.135 299.984L204.823 299.258ZM199.254 293.974L197.862 292.653L197.174 293.378L198.566 294.699L199.254 293.974Z" fill="#D4D4D4"/>
<path d="M32.7883 320.865L25 322.5L44 334.908M32.7883 320.865L65.5 314L53 333.141M32.7883 320.865C33.8886 323.382 33.4665 324.655 32 326.5M44 334.908L49.5 338.5L53 333.141M44 334.908L47.5 329.5L53 333.141" stroke="#434C63"/>
<path fill-rule="evenodd" clip-rule="evenodd" d="M261.541 213.391L262.068 213.649L265.759 215.453L266.287 215.711L266.025 216.246L264.879 218.591L266.743 221.061L268.932 219.922L269.539 219.606L269.755 220.253L271.084 224.218L271.272 224.778L270.714 224.975L267.926 225.955L267.735 228.355L270.542 229.727L271.07 229.985L270.808 230.52L268.715 234.802L268.454 235.337L267.926 235.079L265.119 233.707L263.343 235.331L264.548 238.927L264.757 239.553L264.115 239.702L260.432 240.554L259.971 240.66L259.773 240.232L258.342 237.145L255.133 237.193L253.725 240.074L253.463 240.609L252.936 240.351L249.245 238.547L248.718 238.289L248.979 237.754L250.401 234.845L248.95 232.577L245.666 233.337L245.152 233.456L244.983 232.954L243.92 229.782L243.752 229.28L244.23 229.05L247.357 227.545L247.769 224.563L244.985 223.203L244.458 222.945L244.719 222.41L246.551 218.663L246.812 218.128L247.34 218.386L250.124 219.746L252.232 217.581L251.752 214.972L251.659 214.467L252.143 214.297L255.299 213.187L255.857 212.99L256.045 213.551L256.972 216.319L260.133 216.272L261.279 213.926L261.541 213.391ZM262.072 214.977L261.026 217.118L260.864 217.449L260.5 217.454L256.551 217.513L256.127 217.52L255.992 217.116L255.117 214.504L253.003 215.248L253.445 217.656L253.501 217.962L253.284 218.185L250.66 220.881L250.361 221.188L249.98 221.003L247.344 219.714L246.036 222.39L248.672 223.679L249.052 223.864L248.994 224.289L248.479 228.016L248.434 228.337L248.144 228.476L245.204 229.892L245.931 232.06L249.099 231.327L249.499 231.234L249.72 231.579L251.572 234.474L251.752 234.755L251.603 235.058L250.295 237.734L252.932 239.023L254.24 236.347L254.402 236.016L254.766 236.01L258.714 235.951L259.091 235.946L259.25 236.288L260.642 239.29L263.222 238.693L262.103 235.354L261.979 234.984L262.269 234.72L264.631 232.559L264.928 232.288L265.285 232.462L267.922 233.751L269.492 230.54L266.855 229.251L266.498 229.076L266.53 228.675L266.783 225.483L266.814 225.092L267.182 224.963L269.78 224.049L268.856 221.292L266.834 222.344L266.395 222.572L266.099 222.18L263.72 219.028L263.501 218.737L263.662 218.407L264.709 216.266L262.072 214.977ZM254.755 232.62C257.959 234.186 261.844 232.819 263.434 229.568C265.023 226.316 263.714 222.411 260.511 220.845C257.307 219.279 253.422 220.645 251.832 223.897C250.243 227.149 251.552 231.054 254.755 232.62ZM254.232 233.69C258.018 235.541 262.61 233.926 264.488 230.083C266.367 226.24 264.82 221.625 261.034 219.774C257.248 217.924 252.656 219.539 250.778 223.381C248.899 227.224 250.446 231.84 254.232 233.69ZM260.27 228.021C259.547 229.499 257.781 230.12 256.325 229.408C254.869 228.697 254.274 226.922 254.996 225.444C255.719 223.966 257.485 223.344 258.941 224.056C260.397 224.768 260.992 226.543 260.27 228.021ZM261.324 228.537C260.313 230.606 257.84 231.475 255.802 230.479C253.763 229.482 252.93 226.997 253.942 224.928C254.953 222.859 257.426 221.989 259.464 222.986C261.503 223.982 262.336 226.467 261.324 228.537Z" fill="#434C63"/>
<path d="M149.998 219L152 218M152 223L154.002 222M154 227L156.002 226M156 231L158.002 230M158 235L160.002 234M160 239L162.002 238M162 243L164.002 242M164 247L166.002 246M157 215L155.5 212.5L148.5 216.5L165.5 249.5L172 245.5L170 241.5C170 241.5 184.8 235.563 175.5 219.5C170 210 157 215 157 215ZM159.5 220.5L168 236C168 236 176 231.5 171.5 224C167 216.5 159.5 220.5 159.5 220.5Z" stroke="#434C63"/>
<circle cx="26.208" cy="244.642" r="15.693" transform="rotate(20.5921 26.208 244.642)" stroke="#434C63"/>
<path d="M27.4178 240.919C26.6006 241.972 25.084 242.164 24.0304 241.347C22.9768 240.53 22.7852 239.013 23.6024 237.959C24.4197 236.906 25.9363 236.714 26.9899 237.531C28.0435 238.349 28.2351 239.865 27.4178 240.919Z" fill="#D4D4D4"/>
<path d="M22.9803 246.643C22.1631 247.696 20.6465 247.888 19.5929 247.071C18.5393 246.253 18.3477 244.737 19.1649 243.683C19.9822 242.63 21.4988 242.438 22.5524 243.255C23.606 244.073 23.7976 245.589 22.9803 246.643Z" fill="#D4D4D4"/>
<path d="M33.3963 245.732C32.5791 246.786 31.0625 246.977 30.0089 246.16C28.9553 245.343 28.7637 243.826 29.581 242.773C30.3982 241.719 31.9148 241.528 32.9684 242.345C34.022 243.162 34.2136 244.679 33.3963 245.732Z" fill="#D4D4D4"/>
<path d="M28.9217 251.428C28.1045 252.481 26.5879 252.673 25.5343 251.856C24.4807 251.039 24.2891 249.522 25.1063 248.468C25.9236 247.415 27.4402 247.223 28.4938 248.04C29.5474 248.858 29.739 250.374 28.9217 251.428Z" fill="#D4D4D4"/>
<path d="M182.936 85.9917C179.675 90.7168 166.281 92.587 166.281 92.587L163.925 113.083C163.925 113.083 189.657 116.73 196.382 129.178C203.641 142.613 189.495 167.671 189.495 167.671L201.248 177.639C201.248 177.639 215.858 170.526 225.073 169.192C234.287 167.858 248.436 170.807 248.436 170.807C248.436 170.807 254.393 158.135 261.04 151.49C267.688 144.845 282.505 139.828 282.505 139.828L280.744 121.16C280.744 121.16 253.448 122.09 248.449 102.729C243.449 83.3682 256.794 66.919 256.794 66.919L238.032 56.4662C238.032 56.4662 231.094 65.1419 223.553 65.5595C216.012 65.977 207.497 56.7023 207.497 56.7023L182.979 68.388C182.979 68.388 186.196 81.2665 182.936 85.9917Z" stroke="#434C63"/>
<path d="M187.447 88.6513C185.174 92.5735 170.446 96.8659 170.446 96.8659L170.009 109.982C170.009 109.982 196.153 114.759 201.516 125.557C207.304 137.212 196.666 165.819 196.666 165.819L202.635 171.162C202.635 171.162 219.185 162.48 225.974 161.625C232.763 160.769 243.34 163.71 243.34 163.71C243.34 163.71 250.902 153.752 255.627 148.299C260.352 142.845 275.843 137.724 275.843 137.724L275.032 125.695C275.032 125.695 248.811 121.903 244.517 105.274C240.223 88.6453 248.906 68.956 248.906 68.956L238.079 62.5732C238.079 62.5732 228.089 70.2913 222.513 70.4175C216.936 70.5436 206.643 62.2774 206.643 62.2774L187.443 71.0599C187.443 71.0599 189.72 84.7291 187.447 88.6513Z" stroke="#D5D5D5" stroke-linecap="round" stroke-dasharray="4 4"/>
<path d="M108.837 136.904L143.908 110.129L99.0986 17.3077L58.9726 42.6141M108.837 136.904L109.423 147.121M108.837 136.904L42.0133 169.163M69.3442 178.737C75.4229 182.725 78.3439 191.006 78.1717 203.396C77.9995 215.786 73.3014 250.666 73.3014 250.666L116.218 265.638L109.423 147.121M69.3442 178.737C61.013 173.271 44.1172 174.916 44.1172 174.916M69.3442 178.737L16.548 69.3702M44.1172 174.916L109.423 147.121M44.1172 174.916L42.0133 169.163M109.423 147.121L58.9726 42.6141M16.548 69.3702L7.58535 75.0227L42.0133 169.163M16.548 69.3702L58.9726 42.6141" stroke="#434C63"/>
<path d="M96.5332 26.4159L66.0695 45.1081L107.75 130.253L135.19 106.239L96.5332 26.4159Z" stroke="#D4D4D4" stroke-linecap="round" stroke-dasharray="4 4"/>
<path d="M109.871 258.299L80.5268 247.274C80.5268 247.274 88.7151 207.655 80.9337 183.802C78.9024 177.575 72.0456 169.579 72.0456 169.579L105.257 156.942L109.871 258.299Z" stroke="#D4D4D4" stroke-linecap="round" stroke-dasharray="4 4"/>
<path d="M258.126 11.3737L255.5 14L262.5 21L284.5 -1L277.5 -8L270.295 -0.795246M258.126 11.3737L259.5 13M258.126 11.3737L260.645 8.85537M260.645 8.85537L263.5 12M260.645 8.85537L263 6.5M263 6.5L265 8.5M263 6.5L265.5 4M265.5 4L268.5 7M265.5 4L268 1.5M268 1.5L270 3.5M268 1.5L270.295 -0.795246M270.295 -0.795246L273.5 2.5" stroke="#434C63"/>
<circle cx="177.665" cy="6.86339" r="20.8598" transform="rotate(20.5921 177.665 6.86339)" stroke="#434C63"/>
<path d="M179.276 1.91455C178.19 3.31502 176.174 3.5697 174.774 2.48339C173.373 1.39709 173.119 -0.618835 174.205 -2.0193C175.291 -3.41977 177.307 -3.67445 178.708 -2.58814C180.108 -1.50184 180.363 0.514085 179.276 1.91455Z" fill="#D4D4D4"/>
<path d="M173.372 9.5227C172.286 10.9232 170.27 11.1778 168.869 10.0915C167.469 9.00524 167.214 6.98932 168.301 5.58885C169.387 4.18838 171.403 3.93371 172.803 5.02001C174.204 6.10631 174.458 8.12224 173.372 9.5227Z" fill="#D4D4D4"/>
<path d="M187.222 8.3125C186.135 9.71296 184.119 9.96764 182.719 8.88134C181.319 7.79504 181.064 5.77911 182.15 4.37864C183.236 2.97818 185.252 2.7235 186.653 3.8098C188.053 4.89611 188.308 6.91203 187.222 8.3125Z" fill="#D4D4D4"/>
<path d="M181.272 15.8831C180.186 17.2835 178.17 17.5382 176.77 16.4519C175.369 15.3656 175.115 13.3497 176.201 11.9492C177.287 10.5487 179.303 10.2941 180.704 11.3804C182.104 12.4667 182.359 14.4826 181.272 15.8831Z" fill="#D4D4D4"/>
<path fill-rule="evenodd" clip-rule="evenodd" d="M31.5 7L32 7L35.5 7L36 7L36 7.5L36 9.69098L38.3504 10.8662L39.6 9.2L39.9459 8.7388L40.3536 9.14645L42.8536 11.6464L43.2071 12L42.8536 12.3536L41.0867 14.1204L41.8385 16L44.5 16L45 16L45 16.5L45 20.5L45 21L44.5 21L41.8385 21L41.0867 22.8796L43.3536 25.1464L43.7486 25.5415L43.3123 25.8904L40.8123 27.8904L40.5 28.1403L40.1877 27.8904L37.9375 26.0903L35.5 27.309L35.5 30L35.5 30.5L35 30.5L31.5 30.5L31 30.5L31 30L31 27.2831L29.0409 26.1076L26.8123 27.8904L26.4629 28.17L26.1464 27.8536L24.1464 25.8536L23.83 25.5371L24.1096 25.1877L25.9396 22.9001L25.1396 20.5L22.5 20.5L22 20.5L22 20L22 16.5L22 16L22.5 16L25.1396 16L25.9428 13.5904L24.6 11.8L24.3398 11.4531L24.6464 11.1464L26.6464 9.14645L27 8.79289L27.3536 9.14645L29.0987 10.8916L31.5 9.69098L31.5 7.5L31.5 7ZM32.5 8L32.5 10L32.5 10.309L32.2236 10.4472L29.2236 11.9472L28.9013 12.1084L28.6464 11.8536L27 10.2071L25.6602 11.5469L26.9 13.2L27.0572 13.4096L26.9743 13.6581L25.9743 16.6581L25.8604 17L25.5 17L23 17L23 19.5L25.5 19.5L25.8604 19.5L25.9743 19.8419L26.9743 22.8419L27.0604 23.0999L26.8904 23.3123L25.17 25.4629L26.5371 26.83L28.6877 25.1096L28.9591 24.8924L29.2572 25.0713L31.7572 26.5713L32 26.7169L32 27L32 29.5L34.5 29.5L34.5 27L34.5 26.691L34.7764 26.5528L37.7764 25.0528L38.0625 24.9097L38.3123 25.1096L40.5 26.8597L42.2514 25.4585L40.1464 23.3536L39.9133 23.1204L40.0358 22.8143L41.0358 20.3143L41.1615 20L41.5 20L44 20L44 17L41.5 17L41.1615 17L41.0358 16.6857L40.0358 14.1857L39.9133 13.8796L40.1464 13.6464L41.7929 12L40.0541 10.2612L38.9 11.8L38.6496 12.1338L38.2764 11.9472L35.2764 10.4472L35 10.309L35 10L35 8L32.5 8ZM33.5 24C36.5376 24 39 21.5376 39 18.5C39 15.4624 36.5376 13 33.5 13C30.4624 13 28 15.4624 28 18.5C28 21.5376 30.4624 24 33.5 24ZM33.5 25C37.0899 25 40 22.0899 40 18.5C40 14.9101 37.0899 12 33.5 12C29.9101 12 27 14.9101 27 18.5C27 22.0899 29.9101 25 33.5 25ZM36 18.5C36 19.8807 34.8807 21 33.5 21C32.1193 21 31 19.8807 31 18.5C31 17.1193 32.1193 16 33.5 16C34.8807 16 36 17.1193 36 18.5ZM37 18.5C37 20.433 35.433 22 33.5 22C31.567 22 30 20.433 30 18.5C30 16.567 31.567 15 33.5 15C35.433 15 37 16.567 37 18.5Z" fill="#434C63"/>
</svg>
