<svg width="21" height="16" fill="none" xmlns="http://www.w3.org/2000/svg"><path d="M5.278 3.722A.55.55 0 104.5 4.5l.778-.778zm4.505 5.284l.39-.39-.39.39zm1.1 0l.39.388-.39-.388zM16.167 4.5a.55.55 0 10-.778-.778l.778.778zM4.112 15.55h12.443v-1.1H4.112v1.1zm16.105-3.661V4.11h-1.1v7.778h1.1zM16.556.45H4.11v1.1h12.445V.45zM1.55 11.889V4.11H.45v7.778h1.1zM4.111.45A3.661 3.661 0 00.45 4.111h1.1A2.561 2.561 0 014.111 1.55V.45zm16.106 3.661A3.661 3.661 0 0016.556.45v1.1a2.561 2.561 0 012.56 2.561h1.1zM16.555 15.55a3.662 3.662 0 003.662-3.661h-1.1a2.562 2.562 0 01-2.562 2.561v1.1zm-12.443-1.1a2.562 2.562 0 01-2.562-2.561H.45a3.662 3.662 0 003.662 3.661v-1.1zM4.5 4.5l4.894 4.894.778-.777-4.894-4.895L4.5 4.5zm6.772 4.894L16.167 4.5l-.778-.778-4.895 4.895.778.777zm-1.878 0c.519.519 1.36.519 1.878 0l-.778-.777a.228.228 0 01-.322 0l-.778.777z" fill="#fff"/></svg>