<svg width="13" height="20" fill="none" xmlns="http://www.w3.org/2000/svg"><path d="M6.5 14.8a.6.6 0 100 1.2v-1.2zm.008 1.2a.6.6 0 100-1.2V16zM2.57 1.6h7.858V.4H2.57v1.2zm7.858 0c.462 0 .971.458.971 1.2h1.2c0-1.246-.898-2.4-2.171-2.4v1.2zm.971 1.2v14.4h1.2V2.8h-1.2zm0 14.4c0 .742-.509 1.2-.971 1.2v1.2c1.273 0 2.171-1.154 2.171-2.4h-1.2zm-.971 1.2H2.57v1.2h7.858v-1.2zm-7.858 0c-.462 0-.971-.458-.971-1.2H.4c0 1.246.898 2.4 2.171 2.4v-1.2zm-.97-1.2V2.8H.4v14.4h1.2zm0-14.4c0-.742.509-1.2.971-1.2V.4C1.298.4.4 1.554.4 2.8h1.2zM6.5 16h.008v-1.2H6.5V16z" fill="#fff"/></svg>