<svg width="18" height="18" fill="none" xmlns="http://www.w3.org/2000/svg"><path d="M15.857 0H2.143C.959 0 0 .96 0 2.143v13.714C0 17.041.96 18 2.143 18h13.714C17.041 18 18 17.04 18 15.857V2.143C18 .959 17.04 0 15.857 0zm-1.406 12.429l-1.599-.005s-.033.005-.089.005c-.129 0-.395-.034-.708-.248-.56-.39-1.096-1.36-1.521-1.36a.255.255 0 00-.08.014c-.37.115-.481.484-.481.934 0 .157-.11.231-.412.231h-.827c-.926 0-1.822-.022-2.828-1.123-1.483-1.624-2.873-4.512-2.873-4.512s-.077-.167.006-.266c.077-.09.257-.099.326-.099h1.739s.16.03.275.116a.523.523 0 01.149.205s.291.566.656 1.204c.613 1.055.943 1.406 1.179 1.406a.23.23 0 00.115-.03c.352-.192.25-1.753.25-1.753s.003-.565-.181-.813c-.14-.198-.412-.253-.53-.271-.096-.012.06-.235.264-.339.266-.128.708-.154 1.239-.154h.257c.5.009.514.06.712.108.59.14.39.694.39 2.019 0 .423-.077 1.02.226 1.22a.172.172 0 00.09.022c.198 0 .621-.253 1.3-1.396.376-.653.667-1.3.667-1.3s.066-.115.164-.175c.094-.056.094-.056.218-.056h.013c.138 0 1.5-.013 1.8-.013h.034c.288 0 .549.005.596.18.068.265-.21.74-.943 1.727-1.209 1.615-1.346 1.496-.343 2.43.96.891 1.158 1.325 1.192 1.38.398.66-.442.712-.442.712z" fill="#fff"/></svg>