<svg width="270" height="90" viewBox="0 0 270 90" fill="none" xmlns="http://www.w3.org/2000/svg">
<path d="M127.438 40.2993V50.7121H125.98V41.5935H119.941V50.7121H118.468V40.2993H127.438Z" fill="#2E2E2E"/>
<path d="M134.627 42.7538C135.391 42.7538 136.075 42.9224 136.68 43.2595C137.285 43.5967 137.756 44.0678 138.093 44.6727C138.44 45.2776 138.614 45.9768 138.614 46.7701C138.614 47.5635 138.44 48.2676 138.093 48.8824C137.756 49.4874 137.285 49.9584 136.68 50.2956C136.075 50.6328 135.391 50.8014 134.627 50.8014C134.062 50.8014 133.541 50.6923 133.065 50.4741C132.599 50.2559 132.203 49.9386 131.875 49.5221V53.598H130.447V42.8281H131.816V44.0777C132.133 43.6413 132.535 43.3141 133.021 43.0959C133.507 42.8678 134.042 42.7538 134.627 42.7538ZM134.508 49.5518C135.014 49.5518 135.465 49.4378 135.862 49.2097C136.268 48.9717 136.586 48.6444 136.814 48.2279C137.052 47.8015 137.171 47.3156 137.171 46.7701C137.171 46.2247 137.052 45.7437 136.814 45.3272C136.586 44.9008 136.268 44.5735 135.862 44.3454C135.465 44.1173 135.014 44.0033 134.508 44.0033C134.012 44.0033 133.561 44.1223 133.155 44.3603C132.758 44.5884 132.441 44.9107 132.203 45.3272C131.974 45.7437 131.86 46.2247 131.86 46.7701C131.86 47.3156 131.974 47.8015 132.203 48.2279C132.431 48.6444 132.748 48.9717 133.155 49.2097C133.561 49.4378 134.012 49.5518 134.508 49.5518Z" fill="#2E2E2E"/>
<path d="M144.065 50.8014C143.282 50.8014 142.578 50.6278 141.953 50.2807C141.328 49.9336 140.837 49.4576 140.48 48.8527C140.133 48.2378 139.96 47.5437 139.96 46.7701C139.96 45.9966 140.133 45.3074 140.48 44.7024C140.837 44.0876 141.328 43.6116 141.953 43.2744C142.578 42.9273 143.282 42.7538 144.065 42.7538C144.849 42.7538 145.548 42.9273 146.163 43.2744C146.788 43.6116 147.273 44.0876 147.621 44.7024C147.978 45.3074 148.156 45.9966 148.156 46.7701C148.156 47.5437 147.978 48.2378 147.621 48.8527C147.273 49.4576 146.788 49.9336 146.163 50.2807C145.548 50.6278 144.849 50.8014 144.065 50.8014ZM144.065 49.5518C144.571 49.5518 145.022 49.4378 145.419 49.2097C145.826 48.9717 146.143 48.6444 146.371 48.2279C146.599 47.8015 146.713 47.3156 146.713 46.7701C146.713 46.2247 146.599 45.7437 146.371 45.3272C146.143 44.9008 145.826 44.5735 145.419 44.3454C145.022 44.1173 144.571 44.0033 144.065 44.0033C143.56 44.0033 143.103 44.1173 142.697 44.3454C142.3 44.5735 141.983 44.9008 141.745 45.3272C141.517 45.7437 141.403 46.2247 141.403 46.7701C141.403 47.3156 141.517 47.8015 141.745 48.2279C141.983 48.6444 142.3 48.9717 142.697 49.2097C143.103 49.4378 143.56 49.5518 144.065 49.5518Z" fill="#2E2E2E"/>
<path d="M150.218 42.8281H151.646V48.5701L156.481 42.8281H157.775V50.7121H156.347V44.9702L151.527 50.7121H150.218V42.8281Z" fill="#2E2E2E"/>
<path d="M164.685 46.6065C165.211 46.7453 165.617 46.9685 165.905 47.2759C166.193 47.5833 166.336 47.9651 166.336 48.4213C166.336 48.8874 166.178 49.3039 165.86 49.6708C165.543 50.0279 165.102 50.3105 164.536 50.5187C163.981 50.7171 163.356 50.8163 162.662 50.8163C162.077 50.8163 161.502 50.7419 160.937 50.5931C160.381 50.4345 159.885 50.2113 159.449 49.9237L159.88 48.8378C160.257 49.0758 160.689 49.2643 161.175 49.4031C161.661 49.532 162.151 49.5965 162.647 49.5965C163.322 49.5965 163.857 49.4824 164.254 49.2543C164.66 49.0163 164.864 48.699 164.864 48.3023C164.864 47.9354 164.7 47.6527 164.373 47.4544C164.056 47.2561 163.604 47.1569 163.019 47.1569H161.576V46.1305H162.915C163.451 46.1305 163.872 46.0363 164.179 45.8479C164.487 45.6594 164.641 45.4016 164.641 45.0743C164.641 44.7173 164.457 44.4396 164.09 44.2413C163.733 44.043 163.247 43.9438 162.632 43.9438C161.849 43.9438 161.021 44.1471 160.148 44.5537L159.761 43.4529C160.723 42.967 161.73 42.724 162.781 42.724C163.416 42.724 163.986 42.8133 164.492 42.9918C164.998 43.1703 165.394 43.4232 165.682 43.7504C165.969 44.0777 166.113 44.4496 166.113 44.8661C166.113 45.2528 165.984 45.5999 165.727 45.9074C165.469 46.2148 165.122 46.4478 164.685 46.6065Z" fill="#2E2E2E"/>
<path d="M173.877 46.6214C174.899 46.8792 175.41 47.5189 175.41 48.5403C175.41 49.2345 175.147 49.77 174.621 50.1469C174.106 50.5237 173.332 50.7121 172.301 50.7121H168.507V42.8281H172.167C173.099 42.8281 173.828 43.0066 174.353 43.3637C174.879 43.7108 175.142 44.2066 175.142 44.8512C175.142 45.2677 175.028 45.6297 174.8 45.9371C174.582 46.2346 174.274 46.4627 173.877 46.6214ZM169.906 46.2197H172.048C172.593 46.2197 173.005 46.1206 173.282 45.9222C173.57 45.7239 173.714 45.4363 173.714 45.0595C173.714 44.3058 173.158 43.9289 172.048 43.9289H169.906V46.2197ZM172.197 49.6113C172.792 49.6113 173.238 49.5171 173.535 49.3287C173.833 49.1403 173.982 48.8477 173.982 48.4511C173.982 48.0445 173.843 47.742 173.565 47.5437C173.297 47.3453 172.871 47.2461 172.286 47.2461H169.906V49.6113H172.197Z" fill="#2E2E2E"/>
<path d="M181.021 50.8014C180.238 50.8014 179.534 50.6278 178.909 50.2807C178.284 49.9336 177.794 49.4576 177.437 48.8527C177.089 48.2378 176.916 47.5437 176.916 46.7701C176.916 45.9966 177.089 45.3074 177.437 44.7024C177.794 44.0876 178.284 43.6116 178.909 43.2744C179.534 42.9273 180.238 42.7538 181.021 42.7538C181.805 42.7538 182.504 42.9273 183.119 43.2744C183.744 43.6116 184.23 44.0876 184.577 44.7024C184.934 45.3074 185.112 45.9966 185.112 46.7701C185.112 47.5437 184.934 48.2378 184.577 48.8527C184.23 49.4576 183.744 49.9336 183.119 50.2807C182.504 50.6278 181.805 50.8014 181.021 50.8014ZM181.021 49.5518C181.527 49.5518 181.978 49.4378 182.375 49.2097C182.782 48.9717 183.099 48.6444 183.327 48.2279C183.555 47.8015 183.669 47.3156 183.669 46.7701C183.669 46.2247 183.555 45.7437 183.327 45.3272C183.099 44.9008 182.782 44.5735 182.375 44.3454C181.978 44.1173 181.527 44.0033 181.021 44.0033C180.516 44.0033 180.06 44.1173 179.653 44.3454C179.256 44.5735 178.939 44.9008 178.701 45.3272C178.473 45.7437 178.359 46.2247 178.359 46.7701C178.359 47.3156 178.473 47.8015 178.701 48.2279C178.939 48.6444 179.256 48.9717 179.653 49.2097C180.06 49.4378 180.516 49.5518 181.021 49.5518Z" fill="#2E2E2E"/>
<path d="M195.134 49.4626V52.5418H193.795V50.7121H187.205V52.5418H185.852V49.4626H186.268C186.774 49.4328 187.121 49.0758 187.31 48.3916C187.498 47.7073 187.627 46.7404 187.696 45.4908L187.815 42.8281H193.929V49.4626H195.134ZM189.005 45.595C188.966 46.5867 188.881 47.4098 188.753 48.0643C188.634 48.7089 188.41 49.175 188.083 49.4626H192.501V44.0777H189.08L189.005 45.595Z" fill="#2E2E2E"/>
<path d="M200.431 50.8014C199.627 50.8014 198.908 50.6278 198.274 50.2807C197.649 49.9336 197.158 49.4576 196.801 48.8527C196.444 48.2378 196.266 47.5437 196.266 46.7701C196.266 45.9966 196.444 45.3074 196.801 44.7024C197.158 44.0876 197.649 43.6116 198.274 43.2744C198.908 42.9273 199.627 42.7538 200.431 42.7538C201.145 42.7538 201.779 42.8976 202.335 43.1852C202.9 43.4727 203.336 43.8893 203.644 44.4347L202.558 45.1338C202.31 44.757 202.003 44.4744 201.636 44.2859C201.269 44.0975 200.862 44.0033 200.416 44.0033C199.9 44.0033 199.434 44.1173 199.018 44.3454C198.611 44.5735 198.289 44.9008 198.051 45.3272C197.823 45.7437 197.708 46.2247 197.708 46.7701C197.708 47.3255 197.823 47.8164 198.051 48.2428C198.289 48.6593 198.611 48.9816 199.018 49.2097C199.434 49.4378 199.9 49.5518 200.416 49.5518C200.862 49.5518 201.269 49.4576 201.636 49.2692C202.003 49.0808 202.31 48.7982 202.558 48.4213L203.644 49.1056C203.336 49.651 202.9 50.0725 202.335 50.37C201.779 50.6576 201.145 50.8014 200.431 50.8014Z" fill="#2E2E2E"/>
<path d="M211.267 44.0777H208.381V50.7121H206.953V44.0777H204.067V42.8281H211.267V44.0777Z" fill="#2E2E2E"/>
<path d="M218.097 46.6214C219.118 46.8792 219.629 47.5189 219.629 48.5403C219.629 49.2345 219.366 49.77 218.841 50.1469C218.325 50.5237 217.552 50.7121 216.52 50.7121H212.727V42.8281H216.386C217.319 42.8281 218.047 43.0066 218.573 43.3637C219.099 43.7108 219.361 44.2066 219.361 44.8512C219.361 45.2677 219.247 45.6297 219.019 45.9371C218.801 46.2346 218.494 46.4627 218.097 46.6214ZM214.125 46.2197H216.267C216.813 46.2197 217.224 46.1206 217.502 45.9222C217.79 45.7239 217.933 45.4363 217.933 45.0595C217.933 44.3058 217.378 43.9289 216.267 43.9289H214.125V46.2197ZM216.416 49.6113C217.011 49.6113 217.457 49.5171 217.755 49.3287C218.052 49.1403 218.201 48.8477 218.201 48.4511C218.201 48.0445 218.062 47.742 217.785 47.5437C217.517 47.3453 217.09 47.2461 216.505 47.2461H214.125V49.6113H216.416Z" fill="#2E2E2E"/>
<path d="M228.99 46.8148C228.99 46.9238 228.98 47.0676 228.96 47.2461H222.563C222.653 47.9403 222.955 48.5006 223.471 48.9271C223.996 49.3436 224.646 49.5518 225.42 49.5518C226.362 49.5518 227.12 49.2345 227.696 48.5998L228.484 49.5221C228.127 49.9386 227.681 50.2559 227.145 50.4741C226.62 50.6923 226.029 50.8014 225.375 50.8014C224.542 50.8014 223.803 50.6328 223.159 50.2956C222.514 49.9485 222.013 49.4675 221.656 48.8527C221.309 48.2378 221.135 47.5437 221.135 46.7701C221.135 46.0065 221.304 45.3173 221.641 44.7024C221.988 44.0876 222.459 43.6116 223.054 43.2744C223.659 42.9273 224.339 42.7538 225.092 42.7538C225.846 42.7538 226.515 42.9273 227.101 43.2744C227.696 43.6116 228.157 44.0876 228.484 44.7024C228.821 45.3173 228.99 46.0214 228.99 46.8148ZM225.092 43.9587C224.408 43.9587 223.833 44.1669 223.367 44.5834C222.911 45 222.643 45.5454 222.563 46.2197H227.621C227.542 45.5553 227.269 45.0148 226.803 44.5983C226.347 44.1719 225.777 43.9587 225.092 43.9587Z" fill="#2E2E2E"/>
<path d="M231.205 42.8281H232.633V46.1751H237.126V42.8281H238.554V50.7121H237.126V47.4098H232.633V50.7121H231.205V42.8281Z" fill="#2E2E2E"/>
<path d="M241.33 42.8281H242.758V46.1751H247.251V42.8281H248.679V50.7121H247.251V47.4098H242.758V50.7121H241.33V42.8281Z" fill="#2E2E2E"/>
<path d="M255.011 45.5057C256.002 45.5156 256.761 45.7437 257.287 46.19C257.812 46.6363 258.075 47.266 258.075 48.0792C258.075 48.932 257.787 49.5915 257.212 50.0576C256.647 50.5138 255.834 50.7369 254.773 50.727L251.455 50.7121V42.8281H252.883V45.4908L255.011 45.5057ZM259.25 42.8281H260.678V50.7121H259.25V42.8281ZM254.669 49.6411C255.313 49.651 255.799 49.5221 256.126 49.2543C256.464 48.9866 256.632 48.5899 256.632 48.0643C256.632 47.5486 256.468 47.1718 256.141 46.9338C255.814 46.6958 255.323 46.5718 254.669 46.5619L252.883 46.5321V49.6262L254.669 49.6411Z" fill="#2E2E2E"/>
<path d="M268.378 50.7121L266.102 47.6924L263.797 50.7121H262.205L265.314 46.6809L262.354 42.8281H263.945L266.117 45.6694L268.274 42.8281H269.836L266.861 46.6809L270 50.7121H268.378Z" fill="#2E2E2E"/>
<path d="M124.106 61.7423H121.22V68.3767H119.792V61.7423H116.906V60.4927H124.106V61.7423Z" fill="#2E2E2E"/>
<path d="M132.343 64.4793C132.343 64.5884 132.333 64.7322 132.313 64.9107H125.917C126.006 65.6049 126.308 66.1652 126.824 66.5917C127.35 67.0082 127.999 67.2164 128.773 67.2164C129.715 67.2164 130.474 66.8991 131.049 66.2644L131.837 67.1867C131.48 67.6032 131.034 67.9205 130.498 68.1387C129.973 68.3569 129.383 68.466 128.728 68.466C127.895 68.466 127.156 68.2974 126.512 67.9602C125.867 67.6131 125.366 67.1321 125.009 66.5173C124.662 65.9024 124.489 65.2082 124.489 64.4347C124.489 63.6711 124.657 62.9819 124.994 62.367C125.342 61.7522 125.813 61.2762 126.408 60.939C127.013 60.5919 127.692 60.4184 128.446 60.4184C129.199 60.4184 129.869 60.5919 130.454 60.939C131.049 61.2762 131.51 61.7522 131.837 62.367C132.174 62.9819 132.343 63.686 132.343 64.4793ZM128.446 61.6233C127.761 61.6233 127.186 61.8315 126.72 62.248C126.264 62.6645 125.996 63.21 125.917 63.8843H130.974C130.895 63.2199 130.622 62.6794 130.156 62.2629C129.7 61.8365 129.13 61.6233 128.446 61.6233Z" fill="#2E2E2E"/>
<path d="M139.264 68.3767L136.988 65.357L134.683 68.3767H133.091L136.2 64.3455L133.24 60.4927H134.831L137.003 63.3339L139.16 60.4927H140.722L137.747 64.3455L140.886 68.3767H139.264Z" fill="#2E2E2E"/>
<path d="M142.388 60.4927H143.816V63.8397H148.309V60.4927H149.737V68.3767H148.309V65.0744H143.816V68.3767H142.388V60.4927Z" fill="#2E2E2E"/>
<path d="M155.89 68.466C155.107 68.466 154.403 68.2924 153.778 67.9453C153.153 67.5982 152.662 67.1222 152.305 66.5173C151.958 65.9024 151.785 65.2082 151.785 64.4347C151.785 63.6612 151.958 62.972 152.305 62.367C152.662 61.7522 153.153 61.2762 153.778 60.939C154.403 60.5919 155.107 60.4184 155.89 60.4184C156.674 60.4184 157.373 60.5919 157.988 60.939C158.612 61.2762 159.098 61.7522 159.445 62.367C159.802 62.972 159.981 63.6612 159.981 64.4347C159.981 65.2082 159.802 65.9024 159.445 66.5173C159.098 67.1222 158.612 67.5982 157.988 67.9453C157.373 68.2924 156.674 68.466 155.89 68.466ZM155.89 67.2164C156.396 67.2164 156.847 67.1024 157.244 66.8743C157.65 66.6363 157.968 66.309 158.196 65.8925C158.424 65.4661 158.538 64.9802 158.538 64.4347C158.538 63.8893 158.424 63.4083 158.196 62.9918C157.968 62.5654 157.65 62.2381 157.244 62.01C156.847 61.7819 156.396 61.6679 155.89 61.6679C155.384 61.6679 154.928 61.7819 154.522 62.01C154.125 62.2381 153.808 62.5654 153.57 62.9918C153.341 63.4083 153.227 63.8893 153.227 64.4347C153.227 64.9802 153.341 65.4661 153.57 65.8925C153.808 66.309 154.125 66.6363 154.522 66.8743C154.928 67.1024 155.384 67.2164 155.89 67.2164Z" fill="#2E2E2E"/>
<path d="M168.753 60.4927V68.3767H167.325V61.7423H163.934L163.844 63.4976C163.795 64.5587 163.701 65.4463 163.562 66.1603C163.423 66.8644 163.195 67.4296 162.877 67.8561C162.56 68.2825 162.119 68.4957 161.553 68.4957C161.296 68.4957 161.003 68.4511 160.676 68.3618L160.765 67.1569C160.894 67.1867 161.013 67.2016 161.122 67.2016C161.519 67.2016 161.816 67.028 162.015 66.6809C162.213 66.3338 162.342 65.9223 162.401 65.4463C162.461 64.9702 162.515 64.2909 162.565 63.4083L162.699 60.4927H168.753Z" fill="#2E2E2E"/>
<path d="M174.891 68.466C174.108 68.466 173.404 68.2924 172.779 67.9453C172.154 67.5982 171.663 67.1222 171.306 66.5173C170.959 65.9024 170.786 65.2082 170.786 64.4347C170.786 63.6612 170.959 62.972 171.306 62.367C171.663 61.7522 172.154 61.2762 172.779 60.939C173.404 60.5919 174.108 60.4184 174.891 60.4184C175.675 60.4184 176.374 60.5919 176.989 60.939C177.613 61.2762 178.099 61.7522 178.446 62.367C178.803 62.972 178.982 63.6612 178.982 64.4347C178.982 65.2082 178.803 65.9024 178.446 66.5173C178.099 67.1222 177.613 67.5982 176.989 67.9453C176.374 68.2924 175.675 68.466 174.891 68.466ZM174.891 67.2164C175.397 67.2164 175.848 67.1024 176.245 66.8743C176.651 66.6363 176.969 66.309 177.197 65.8925C177.425 65.4661 177.539 64.9802 177.539 64.4347C177.539 63.8893 177.425 63.4083 177.197 62.9918C176.969 62.5654 176.651 62.2381 176.245 62.01C175.848 61.7819 175.397 61.6679 174.891 61.6679C174.385 61.6679 173.929 61.7819 173.523 62.01C173.126 62.2381 172.809 62.5654 172.571 62.9918C172.343 63.4083 172.228 63.8893 172.228 64.4347C172.228 64.9802 172.343 65.4661 172.571 65.8925C172.809 66.309 173.126 66.6363 173.523 66.8743C173.929 67.1024 174.385 67.2164 174.891 67.2164Z" fill="#2E2E2E"/>
<path d="M186.845 61.7423H182.472V68.3767H181.044V60.4927H186.845V61.7423Z" fill="#2E2E2E"/>
<path d="M188.307 60.4927H189.735V66.2347L194.57 60.4927H195.864V68.3767H194.436V62.6348L189.616 68.3767H188.307V60.4927Z" fill="#2E2E2E"/>
<path d="M198.636 60.4927H200.064V66.2347L204.899 60.4927H206.193V68.3767H204.765V62.6348L199.945 68.3767H198.636V60.4927ZM202.325 59.4663C201.591 59.4663 201.021 59.2928 200.614 58.9457C200.208 58.5887 200 58.078 199.99 57.4135H200.957C200.966 57.7804 201.09 58.078 201.328 58.306C201.576 58.5242 201.904 58.6333 202.31 58.6333C202.717 58.6333 203.044 58.5242 203.292 58.306C203.54 58.078 203.669 57.7804 203.679 57.4135H204.675C204.666 58.078 204.452 58.5887 204.036 58.9457C203.619 59.2928 203.049 59.4663 202.325 59.4663Z" fill="#2E2E2E"/>
<path d="M121.459 23.0732H123.017C123.485 23.0732 123.916 23.1512 124.308 23.3074C124.704 23.4636 125.049 23.6851 125.343 23.972C125.637 24.2553 125.866 24.5967 126.029 24.9962C126.193 25.392 126.274 25.8333 126.274 26.3199C126.274 26.7993 126.193 27.2369 126.029 27.6328C125.866 28.0286 125.637 28.37 125.343 28.6569C125.049 28.9402 124.704 29.1581 124.308 29.3106C123.916 29.4631 123.485 29.5394 123.017 29.5394H121.459C120.994 29.5394 120.564 29.4631 120.168 29.3106C119.772 29.1581 119.425 28.9402 119.127 28.6569C118.833 28.3736 118.604 28.0359 118.441 27.6437C118.281 27.2478 118.201 26.8102 118.201 26.3308C118.201 25.8442 118.281 25.4029 118.441 25.007C118.604 24.6076 118.833 24.2644 119.127 23.9775C119.425 23.6869 119.772 23.4636 120.168 23.3074C120.564 23.1512 120.994 23.0732 121.459 23.0732ZM121.459 24.1627C121.052 24.1627 120.702 24.2498 120.407 24.4242C120.113 24.5948 119.886 24.8418 119.726 25.165C119.57 25.4882 119.492 25.8768 119.492 26.3308C119.492 26.6649 119.538 26.9627 119.628 27.2242C119.719 27.4857 119.85 27.7072 120.021 27.8888C120.191 28.0704 120.398 28.2102 120.642 28.3083C120.885 28.4063 121.157 28.4553 121.459 28.4553H123.028C123.431 28.4553 123.778 28.37 124.068 28.1993C124.359 28.025 124.582 27.778 124.738 27.4584C124.898 27.1389 124.978 26.7593 124.978 26.3199C124.978 25.9822 124.933 25.6807 124.842 25.4156C124.755 25.1469 124.626 24.9199 124.455 24.7347C124.288 24.5495 124.085 24.4078 123.845 24.3098C123.605 24.2117 123.333 24.1627 123.028 24.1627H121.459ZM122.897 22V30.5853H121.584V22H122.897Z" fill="#8A2BE2"/>
<path d="M130.665 29.0764V26.2654C130.665 26.0548 130.627 25.8732 130.551 25.7207C130.475 25.5681 130.358 25.4501 130.202 25.3666C130.05 25.2831 129.857 25.2413 129.625 25.2413C129.41 25.2413 129.225 25.2776 129.069 25.3502C128.913 25.4229 128.791 25.5209 128.704 25.6444C128.617 25.7679 128.573 25.9077 128.573 26.0639H127.266C127.266 25.8314 127.322 25.6063 127.435 25.3884C127.547 25.1705 127.711 24.9762 127.925 24.8055C128.139 24.6348 128.395 24.5004 128.693 24.4024C128.991 24.3043 129.325 24.2553 129.696 24.2553C130.139 24.2553 130.531 24.3297 130.872 24.4786C131.217 24.6275 131.488 24.8527 131.684 25.1541C131.884 25.4519 131.983 25.826 131.983 26.2763V28.8966C131.983 29.1653 132.002 29.4069 132.038 29.6211C132.078 29.8318 132.134 30.0152 132.207 30.1713V30.2585H130.861C130.8 30.1168 130.751 29.9371 130.714 29.7192C130.682 29.4976 130.665 29.2834 130.665 29.0764ZM130.856 26.674L130.867 27.4857H129.924C129.681 27.4857 129.467 27.5093 129.281 27.5565C129.096 27.6001 128.942 27.6655 128.818 27.7526C128.695 27.8398 128.602 27.9451 128.541 28.0686C128.479 28.192 128.448 28.3319 128.448 28.488C128.448 28.6442 128.484 28.7876 128.557 28.9184C128.63 29.0455 128.735 29.1454 128.873 29.218C129.015 29.2906 129.185 29.327 129.385 29.327C129.654 29.327 129.888 29.2725 130.088 29.1635C130.291 29.0509 130.451 28.9148 130.567 28.755C130.683 28.5915 130.745 28.4372 130.752 28.2919L131.177 28.8748C131.134 29.0237 131.059 29.1835 130.954 29.3542C130.849 29.5249 130.711 29.6883 130.54 29.8445C130.373 29.997 130.171 30.1223 129.935 30.2204C129.703 30.3184 129.434 30.3674 129.129 30.3674C128.744 30.3674 128.401 30.2912 128.099 30.1386C127.798 29.9825 127.562 29.7737 127.391 29.5122C127.22 29.2471 127.135 28.9474 127.135 28.6133C127.135 28.301 127.193 28.025 127.309 27.7853C127.429 27.542 127.604 27.3386 127.832 27.1752C128.065 27.0117 128.348 26.8883 128.682 26.8047C129.016 26.7176 129.398 26.674 129.826 26.674H130.856Z" fill="#8A2BE2"/>
<path d="M134.773 24.3642V30.2585H133.46V24.3642H134.773ZM138.619 24.3642L135.966 27.9106H134.468L134.293 26.723H135.388L136.979 24.3642H138.619ZM137.082 30.2585L135.306 27.6872L136.342 26.9409L138.809 30.2585H137.082Z" fill="#8A2BE2"/>
<path d="M141.233 29.6157L142.835 24.3642H144.24L141.876 31.1573C141.822 31.3026 141.751 31.4606 141.664 31.6313C141.577 31.802 141.462 31.9636 141.321 32.1161C141.183 32.2723 141.01 32.3976 140.803 32.492C140.596 32.59 140.345 32.6391 140.051 32.6391C139.935 32.6391 139.822 32.6282 139.714 32.6064C139.608 32.5882 139.508 32.5682 139.414 32.5465L139.408 31.5441C139.445 31.5477 139.488 31.5514 139.539 31.555C139.594 31.5586 139.637 31.5604 139.67 31.5604C139.888 31.5604 140.069 31.5332 140.215 31.4787C140.36 31.4279 140.478 31.3444 140.569 31.2281C140.663 31.1119 140.743 30.9558 140.809 30.7597L141.233 29.6157ZM140.329 24.3642L141.729 28.7768L141.963 30.1604L141.054 30.3947L138.913 24.3642H140.329Z" fill="#8A2BE2"/>
<path d="M148.724 24.3642V25.4102H145.847V24.3642H148.724ZM149.753 24.3642V30.2585H148.441V24.3642H149.753ZM145.526 24.3642H146.823L146.665 27.2787C146.643 27.7108 146.599 28.0922 146.534 28.4227C146.472 28.7495 146.389 29.031 146.283 29.267C146.178 29.4995 146.049 29.6883 145.897 29.8336C145.744 29.9788 145.566 30.086 145.363 30.155C145.159 30.224 144.93 30.2585 144.676 30.2585H144.268L144.262 29.1799L144.469 29.1635C144.604 29.1526 144.72 29.1181 144.818 29.06C144.916 28.9983 144.999 28.9111 145.068 28.7985C145.141 28.686 145.199 28.5407 145.243 28.3627C145.29 28.1848 145.326 27.9741 145.352 27.7308C145.381 27.4875 145.403 27.2042 145.417 26.881L145.526 24.3642Z" fill="#8A2BE2"/>
<path d="M152.123 26.2382H153.861C154.369 26.2382 154.801 26.3235 155.157 26.4942C155.513 26.6649 155.784 26.9028 155.969 27.2079C156.158 27.5093 156.252 27.8543 156.252 28.2429C156.252 28.5298 156.2 28.7967 156.094 29.0437C155.989 29.287 155.833 29.4995 155.626 29.681C155.422 29.8626 155.172 30.0043 154.874 30.106C154.58 30.2076 154.242 30.2585 153.861 30.2585H151.251V24.3642H152.57V29.218H153.861C154.122 29.218 154.331 29.1726 154.487 29.0818C154.643 28.991 154.756 28.873 154.825 28.7277C154.898 28.5825 154.934 28.4281 154.934 28.2647C154.934 28.0976 154.898 27.9396 154.825 27.7907C154.756 27.6418 154.643 27.5202 154.487 27.4258C154.331 27.3313 154.122 27.2841 153.861 27.2841H152.123V26.2382Z" fill="#8A2BE2"/>
<path d="M159.494 24.3642V30.2585H158.175V24.3642H159.494ZM161.427 24.3642V25.3993H156.274V24.3642H161.427Z" fill="#8A2BE2"/>
<path d="M164.5 30.3674C164.064 30.3674 163.67 30.2966 163.318 30.155C162.969 30.0097 162.671 29.8082 162.424 29.5503C162.181 29.2925 161.994 28.9892 161.863 28.6406C161.733 28.2919 161.667 27.916 161.667 27.5129V27.295C161.667 26.8338 161.734 26.4161 161.869 26.0421C162.003 25.668 162.19 25.3484 162.43 25.0833C162.67 24.8146 162.953 24.6094 163.28 24.4677C163.607 24.3261 163.961 24.2553 164.342 24.2553C164.763 24.2553 165.132 24.3261 165.448 24.4677C165.764 24.6094 166.025 24.8091 166.232 25.067C166.443 25.3212 166.599 25.6244 166.701 25.9767C166.806 26.329 166.859 26.7176 166.859 27.1425V27.7036H162.305V26.7612H165.562V26.6577C165.555 26.4216 165.508 26.2001 165.421 25.9931C165.337 25.786 165.208 25.619 165.034 25.4919C164.859 25.3648 164.627 25.3012 164.336 25.3012C164.119 25.3012 163.924 25.3484 163.754 25.4429C163.587 25.5336 163.447 25.6662 163.334 25.8405C163.222 26.0148 163.134 26.2255 163.073 26.4724C163.015 26.7158 162.985 26.99 162.985 27.295V27.5129C162.985 27.7708 163.02 28.0105 163.089 28.232C163.162 28.4499 163.267 28.6406 163.405 28.804C163.543 28.9674 163.71 29.0963 163.906 29.1908C164.102 29.2816 164.326 29.327 164.576 29.327C164.892 29.327 165.174 29.2634 165.421 29.1363C165.667 29.0092 165.882 28.8294 166.063 28.597L166.755 29.267C166.628 29.4522 166.463 29.6302 166.259 29.8009C166.056 29.9679 165.807 30.1041 165.513 30.2095C165.223 30.3148 164.885 30.3674 164.5 30.3674Z" fill="#8A2BE2"/>
<path d="M170.552 24.3642V30.2585H169.234V24.3642H170.552ZM172.486 24.3642V25.3993H167.333V24.3642H172.486Z" fill="#8A2BE2"/>
<path d="M104.399 22.8164H103.186V68.3612H104.399V22.8164Z" fill="#37322F"/>
<path d="M5.98037 43.533C5.98037 44.1316 6.4788 44.6246 7.08404 44.6246C7.68929 44.6246 8.18773 44.1316 8.18773 43.533C8.18773 42.9344 7.68929 42.4415 7.08404 42.4415C6.46693 42.4415 5.98037 42.9227 5.98037 43.533Z" fill="#37322F"/>
<path d="M45.5 0C20.4121 0 0 20.1878 0 45C0 69.8122 20.4121 90 45.5 90C70.5879 90 91 69.8122 91 45C91 20.1878 70.5879 0 45.5 0ZM45.5 88.8263C21.0648 88.8263 1.18675 69.1667 1.18675 45C1.18675 20.8333 21.0648 1.17371 45.5 1.17371C69.9352 1.17371 89.8133 20.8333 89.8133 45C89.8133 69.1667 69.9352 88.8263 45.5 88.8263Z" fill="#37322F"/>
<path d="M13.1716 44.9648C13.1716 62.6174 27.6974 76.9836 45.5461 76.9836C63.3949 76.9836 77.9207 62.6174 77.9207 44.9648C77.9207 27.3122 63.3949 12.946 45.5461 12.946C27.6974 12.946 13.1716 27.3122 13.1716 44.9648ZM45.5461 14.237C62.6709 14.237 76.6152 28.0164 76.6152 44.9648C76.6152 61.9131 62.6828 75.6925 45.5461 75.6925C28.4095 75.6925 14.477 61.9131 14.477 44.9648C14.477 28.0164 28.4095 14.237 45.5461 14.237Z" fill="#37322F"/>
<path d="M10.2524 37.9577C10.288 37.7229 10.2998 37.4999 10.2761 37.2887C10.2524 37.0774 10.193 36.8896 10.11 36.737C10.0269 36.5727 9.90821 36.4436 9.7658 36.338C9.62339 36.2323 9.45724 36.1619 9.26737 36.1267C9.13682 36.1032 9.00628 36.1032 8.87574 36.1267C8.74519 36.1502 8.63839 36.2088 8.53159 36.2792C8.42478 36.3497 8.32983 36.4553 8.24676 36.5727C8.16369 36.7018 8.09248 36.8426 8.04501 37.0187H8.03315C8.00942 36.7253 7.91448 36.4906 7.77207 36.3145C7.62966 36.1384 7.43977 36.0328 7.19055 35.9858C6.882 35.9389 6.62091 36.0211 6.39543 36.2323C6.18182 36.4553 6.02753 36.8074 5.94446 37.2887L5.67151 38.8497L9.95568 39.5774L10.2524 37.9577ZM7.66526 37.8403L7.60592 38.2042L6.52597 38.0163L6.59718 37.6408C6.64465 37.3943 6.70399 37.2182 6.78706 37.1126C6.87013 37.007 7.01254 36.9718 7.19055 37.007C7.3923 37.0422 7.53471 37.1361 7.61778 37.2769C7.68899 37.406 7.70087 37.6056 7.66526 37.8403ZM9.56405 38.0046L9.48099 38.5093L8.2705 38.3098L8.35358 37.8521C8.40105 37.5704 8.48411 37.3591 8.61465 37.2417C8.73332 37.1126 8.89948 37.0774 9.1131 37.1126C9.32672 37.1478 9.46913 37.2417 9.54033 37.3943C9.59967 37.5469 9.61152 37.7464 9.56405 38.0046Z" fill="#37322F"/>
<path d="M10.9539 34.8122L8.93644 32.1714C8.86523 32.0775 8.80589 31.9953 8.74655 31.9249C8.68721 31.8545 8.63975 31.8075 8.60415 31.7723V31.7606C8.66348 31.7841 8.74656 31.8193 8.85337 31.8545C8.96018 31.8897 9.09071 31.9366 9.23312 31.9719L11.6185 32.6995L11.8796 31.8427L7.72594 30.5869L7.4174 31.5728L9.41115 34.1784C9.48235 34.2723 9.54168 34.3545 9.58915 34.4132C9.63662 34.4718 9.68409 34.5188 9.7197 34.554V34.5657C9.67223 34.5423 9.58915 34.5071 9.49421 34.4719C9.39927 34.4366 9.26873 34.4014 9.12632 34.3545L6.77656 33.6385L6.51547 34.4836L10.6691 35.7512L10.9539 34.8122Z" fill="#37322F"/>
<path d="M10.2302 26.7253L9.55379 26.4318L8.07035 29.7065L8.74679 29.9999L9.2927 28.8027L12.58 30.2581L12.9835 29.3779L9.68433 27.9224L10.2302 26.7253Z" fill="#37322F"/>
<path d="M15.1193 25.4107L14.5022 25.0586L13.6359 26.5609L12.6627 26.0093L13.4104 24.7182L12.7933 24.3661L12.0456 25.6572L11.1081 25.129L11.927 23.7323L11.298 23.3802L10.0044 25.6102L13.7783 27.7464L15.1193 25.4107Z" fill="#37322F"/>
<path d="M16.4719 23.4975C16.6261 23.2862 16.733 23.0867 16.8042 22.8872C16.8754 22.6876 16.8991 22.4998 16.8872 22.312C16.8754 22.136 16.8279 21.9599 16.733 21.8073C16.638 21.6548 16.5075 21.5139 16.3413 21.3848C16.187 21.2792 16.0209 21.2087 15.8548 21.1735C15.6886 21.1383 15.5225 21.1501 15.3563 21.197C15.1902 21.244 15.024 21.3261 14.8579 21.4435C14.6917 21.5609 14.5375 21.7252 14.3951 21.9247L13.9441 22.5468L13.1252 21.9599L14.217 20.4693L13.6355 20.0585L11.986 22.3355L15.5106 24.8472L16.4719 23.4975ZM14.8341 22.4764C15.0122 22.2416 15.1783 22.0891 15.3326 22.0421C15.4869 21.9834 15.6649 22.0303 15.8429 22.1594C16.0328 22.2886 16.1158 22.4412 16.1158 22.6172C16.1158 22.7933 16.0209 22.9928 15.8548 23.2275L15.5225 23.6853L14.5019 22.9576L14.8341 22.4764Z" fill="#37322F"/>
<path d="M16.0677 20.5867C16.3051 20.798 16.5662 20.9623 16.8273 21.0562C17.1002 21.1501 17.3613 21.197 17.6342 21.1736C17.9072 21.1501 18.1683 21.0797 18.4412 20.9388C18.7023 20.798 18.9515 20.5985 19.1889 20.3402C19.5568 19.9412 19.7941 19.5538 19.9128 19.19L19.3313 18.6736C19.2482 19.0374 19.0702 19.3778 18.7854 19.6947C18.6311 19.859 18.465 19.9881 18.2988 20.082C18.1327 20.1759 17.9547 20.2229 17.7766 20.2229C17.5986 20.2346 17.4206 20.1994 17.2307 20.129C17.0409 20.0586 16.8747 19.9529 16.7086 19.8004C16.5306 19.6478 16.4 19.4717 16.3051 19.2957C16.2101 19.1196 16.1627 18.9318 16.1508 18.744C16.1389 18.5562 16.1745 18.3684 16.2457 18.1806C16.3169 17.9928 16.4356 17.805 16.5899 17.6407C16.851 17.359 17.1477 17.1595 17.4918 17.0421L16.8747 16.4905C16.5899 16.6431 16.2814 16.8895 15.9728 17.2299C15.7236 17.4999 15.5456 17.7816 15.4269 18.075C15.3082 18.3684 15.2489 18.6736 15.2607 18.967C15.2726 19.2604 15.3438 19.5539 15.4744 19.8238C15.6168 20.1055 15.8185 20.352 16.0677 20.5867Z" fill="#37322F"/>
<path d="M21.2544 18.2161L19.8421 16.6433L19.854 16.6316C19.9015 16.6551 19.9489 16.6668 20.0083 16.6785C20.0557 16.6903 20.1032 16.702 20.127 16.7137L22.4293 17.2067L23.2956 16.4438L20.5067 15.9039L20.3168 13.3217L19.5098 14.0259L19.7116 16.2325C19.7116 16.2795 19.7235 16.3264 19.7353 16.3851C19.7472 16.4321 19.7472 16.479 19.7591 16.5142L19.7472 16.526L18.3943 15.0119L17.6704 15.6457L20.5542 18.8616L21.2544 18.2161Z" fill="#37322F"/>
<path d="M24.3288 15.7158L24.4238 12.4059C24.4238 12.2886 24.4238 12.1829 24.4238 12.089C24.4238 11.9951 24.4119 11.9247 24.4119 11.8778L24.4238 11.866C24.4475 11.9247 24.495 11.9951 24.5543 12.089C24.6136 12.1829 24.6848 12.2886 24.7679 12.4177L26.1801 14.4599L26.9278 13.9552L24.4831 10.4106L23.6286 10.9858L23.5456 14.2487C23.5456 14.366 23.5456 14.4717 23.5456 14.5421C23.5456 14.6125 23.5456 14.6829 23.5574 14.7299L23.5456 14.7416C23.5218 14.6947 23.4744 14.6242 23.4269 14.5303C23.3676 14.4364 23.2963 14.3308 23.2133 14.2134L21.8367 12.2064L21.089 12.7111L23.5337 16.2557L24.3288 15.7158Z" fill="#37322F"/>
<path d="M28.018 11.8076C28.0061 11.878 28.0061 11.9485 28.0061 11.9954H27.9942C27.9705 11.9485 27.9468 11.8663 27.8993 11.7724C27.8518 11.6785 27.8044 11.5611 27.7332 11.432L26.6532 9.24889L25.8462 9.63623L27.7569 13.4977L28.6351 13.0752L29.2047 9.81228C29.2285 9.69491 29.2403 9.601 29.2522 9.50711C29.2641 9.41321 29.2641 9.3428 29.2641 9.29585L29.2759 9.2841C29.2997 9.34279 29.3234 9.42496 29.3709 9.51886C29.4184 9.62449 29.4777 9.74185 29.537 9.87095L30.6407 12.0893L31.4477 11.702L29.537 7.84046L28.5995 8.28648L28.0417 11.5142C28.0417 11.6315 28.018 11.7372 28.018 11.8076Z" fill="#37322F"/>
<path d="M26.4998 8.27473C26.7846 8.35689 27.0813 8.3217 27.4017 8.18085C27.6984 8.04001 27.912 7.82872 28.0307 7.53529C28.1494 7.2536 28.1494 6.96016 28.0307 6.64326L27.5323 6.87802C27.5916 7.05407 27.5798 7.20666 27.5204 7.35924C27.4611 7.51182 27.3424 7.61747 27.1881 7.69963C26.8202 7.87568 26.5236 7.80525 26.3218 7.46487L25.8234 7.69963C25.9895 8.00479 26.215 8.19257 26.4998 8.27473Z" fill="#37322F"/>
<path d="M35.2696 10.4344L34.2727 6.99539L35.9223 6.52592L35.7205 5.83343L33.1453 6.57284L34.3439 10.6926L35.2696 10.4344Z" fill="#37322F"/>
<path d="M36.849 8.70877C37.0032 8.95525 37.1931 9.15479 37.4186 9.30737C37.6441 9.45996 37.9052 9.56558 38.19 9.62426C38.4748 9.68295 38.7834 9.68295 39.1157 9.62426C39.448 9.56558 39.7446 9.45996 40.0057 9.30737C40.2668 9.15479 40.4686 8.96699 40.6347 8.74398C40.8008 8.52098 40.9076 8.25104 40.967 7.95762C41.0263 7.66419 41.0263 7.34729 40.967 7.00692C40.9076 6.70175 40.8127 6.42003 40.6703 6.17356C40.5279 5.92708 40.338 5.72756 40.1125 5.56324C39.887 5.39892 39.6378 5.29329 39.353 5.2346C39.0682 5.17592 38.7596 5.16417 38.4392 5.22286C38.0832 5.28154 37.7746 5.38717 37.5135 5.55149C37.2525 5.70407 37.0389 5.9036 36.8727 6.13835C36.7066 6.37309 36.5998 6.63132 36.5404 6.92475C36.4811 7.21817 36.4811 7.52335 36.5404 7.85199C36.5998 8.19236 36.6947 8.46229 36.849 8.70877ZM37.6797 6.5374C37.7628 6.38482 37.8814 6.26745 38.0239 6.17356C38.1663 6.07966 38.3324 6.00926 38.5223 5.97405C38.724 5.93883 38.902 5.93881 39.0563 5.98576C39.2225 6.02097 39.3649 6.10313 39.4836 6.20877C39.6022 6.3144 39.709 6.46698 39.7921 6.64303C39.8752 6.81909 39.9345 7.01864 39.982 7.25338C40.0176 7.48813 40.0295 7.68765 40.0057 7.87545C39.982 8.06324 39.9345 8.22754 39.8514 8.36839C39.7684 8.50923 39.6616 8.62662 39.5192 8.72052C39.3767 8.81442 39.2106 8.87311 39.0088 8.90832C38.819 8.94353 38.6528 8.93178 38.4867 8.89657C38.3205 8.84962 38.1781 8.77918 38.0595 8.66181C37.9289 8.55618 37.8221 8.41535 37.739 8.2393C37.656 8.06324 37.5847 7.87544 37.5491 7.65244C37.5135 7.42944 37.5017 7.22991 37.5254 7.03038C37.5491 6.83085 37.5966 6.67825 37.6797 6.5374Z" fill="#37322F"/>
<path d="M42.2118 8.63843C42.4135 8.81448 42.6628 8.94359 42.9476 9.03748C43.2324 9.11964 43.5528 9.16659 43.9088 9.14311C44.4548 9.11964 44.8939 9.01403 45.2499 8.83797L45.2143 8.06332C44.8939 8.26285 44.526 8.38022 44.0987 8.39196C43.8732 8.4037 43.6596 8.38023 43.4816 8.32154C43.2917 8.26285 43.1375 8.16894 43.0069 8.05157C42.8764 7.9342 42.7696 7.78161 42.6984 7.60556C42.6271 7.4295 42.5797 7.23 42.5678 7.00699C42.5559 6.77225 42.5797 6.56097 42.6509 6.37318C42.7102 6.18538 42.8052 6.02105 42.9357 5.8802C43.0663 5.73936 43.2205 5.63373 43.4104 5.55157C43.6003 5.46941 43.8139 5.42246 44.0512 5.41073C44.4429 5.38725 44.7989 5.45767 45.1193 5.62199L45.0837 4.80041C44.7752 4.70651 44.3835 4.65956 43.9207 4.68303C43.5528 4.69477 43.2205 4.77692 42.9238 4.89429C42.6272 5.0234 42.3779 5.18771 42.1762 5.39898C41.9626 5.61025 41.8083 5.85674 41.7015 6.15017C41.5947 6.4436 41.5472 6.74876 41.5709 7.10087C41.5828 7.41777 41.654 7.71119 41.7727 7.96941C41.8439 8.2511 42.0101 8.46237 42.2118 8.63843Z" fill="#37322F"/>
<path d="M46.3301 9.1315C46.5674 9.14324 46.7692 9.13149 46.9353 9.08454C47.1014 9.0376 47.2676 8.95542 47.41 8.84979C47.5524 8.74415 47.683 8.60334 47.8135 8.43902C47.944 8.2747 48.0627 8.07517 48.2051 7.85216L49.8903 4.97656L48.8697 4.91789L47.9915 6.56108C47.944 6.65497 47.8847 6.7606 47.8372 6.84276C47.7898 6.93665 47.7423 7.03054 47.6948 7.12444C47.683 7.06575 47.6711 7.00708 47.6474 6.96013C47.6236 6.91319 47.6117 6.85449 47.5999 6.80755L46.7573 4.80051L45.713 4.73009L47.137 7.84042C47.0658 7.95779 46.9828 8.05168 46.9116 8.13384C46.8404 8.216 46.7691 8.27468 46.6861 8.30989C46.6149 8.35684 46.5437 8.3803 46.4725 8.40377C46.4013 8.41551 46.3301 8.42726 46.2588 8.41552C46.0571 8.40378 45.8672 8.33336 45.6892 8.22772L45.6418 9.01412C45.7248 9.04934 45.8079 9.08453 45.9147 9.10801C46.0334 9.10801 46.1639 9.11977 46.3301 9.1315Z" fill="#37322F"/>
<path d="M49.0129 8.4624L48.6806 10.3051L49.5469 10.4577L49.7486 9.30748L52.763 9.83562L52.5612 10.9741L53.4276 11.1267L53.6293 9.99996L54.5431 10.2816L55.1721 9.42485L56.7386 9.90608L56.7861 10.9624L57.7948 11.2676L57.4863 6.67838L56.4419 6.36145L53.6649 9.82391L53.7599 9.28398L53.1071 9.16664L53.7361 5.63376L51.149 5.18774C51.0778 5.50465 50.9829 5.80982 50.8642 6.11498C50.7455 6.42015 50.615 6.71358 50.4725 6.99527C50.3183 7.27696 50.164 7.54691 49.986 7.80513C49.808 8.06335 49.6181 8.29807 49.4282 8.52108L49.0129 8.4624ZM56.4538 7.68775C56.5013 7.61733 56.5487 7.54692 56.5962 7.47649C56.6437 7.40607 56.6793 7.34738 56.703 7.28869L56.7267 7.30044C56.7149 7.35913 56.703 7.44126 56.703 7.52342C56.703 7.60557 56.703 7.68775 56.703 7.75817L56.7505 9.20185L55.623 8.86146L56.4538 7.68775ZM50.8523 8.11027C50.9947 7.88726 51.1371 7.65253 51.2677 7.41779C51.3982 7.18304 51.5169 6.93658 51.6118 6.70184C51.7068 6.4671 51.7899 6.2441 51.8373 6.04457L52.6562 6.1854L52.1577 9.01405L50.4251 8.70887C50.5675 8.53282 50.7099 8.33327 50.8523 8.11027Z" fill="#37322F"/>
<path d="M59.5874 10.4342L60.0502 10.6337C60.2994 10.7393 60.5249 10.798 60.7622 10.8215C60.9877 10.845 61.2013 10.8215 61.3912 10.7745C61.5811 10.7276 61.7591 10.622 61.9015 10.4929C62.0439 10.3638 62.1745 10.1994 62.2576 9.99989C62.4356 9.60083 62.4356 9.23697 62.2576 8.92006C62.0795 8.59142 61.7354 8.32149 61.2132 8.09849L59.8247 7.49989L58.0802 11.4318L58.9702 11.8191L59.5874 10.4342ZM60.4418 8.50929L60.8216 8.6736C61.0827 8.79097 61.2488 8.92007 61.3319 9.07265C61.415 9.22523 61.4031 9.41304 61.3082 9.63604C61.2013 9.87079 61.0589 10.0116 60.8809 10.0703C60.7029 10.129 60.4774 10.0938 60.2045 9.97643L59.8484 9.82384L60.4418 8.50929Z" fill="#37322F"/>
<path d="M62.0556 11.913C62.0082 12.1947 62.0319 12.4647 62.1031 12.7229C62.1743 12.9811 62.3048 13.2276 62.5066 13.4506C62.6965 13.6736 62.9457 13.8848 63.2543 14.0492C63.729 14.3191 64.1562 14.4717 64.5359 14.5069L64.9276 13.8379C64.5478 13.8379 64.1799 13.7323 63.8002 13.521C63.5984 13.4036 63.4441 13.2745 63.3136 13.1337C63.1949 12.9811 63.1118 12.8285 63.0644 12.6524C63.0169 12.4764 63.0169 12.3003 63.0406 12.1125C63.0762 11.9247 63.1474 11.7369 63.2543 11.5374C63.3729 11.3379 63.5035 11.1735 63.6696 11.0444C63.8239 10.9153 64.0019 10.8332 64.1799 10.7863C64.3579 10.7393 64.5597 10.7275 64.7614 10.7628C64.9632 10.798 65.1649 10.8684 65.3667 10.9858C65.699 11.1853 65.9601 11.4318 66.1499 11.737L66.5653 11.021C66.3517 10.7745 66.055 10.528 65.6515 10.305C65.3311 10.1172 65.0107 9.99985 64.7021 9.9529C64.3817 9.89421 64.085 9.90597 63.7883 9.9764C63.4916 10.0468 63.2305 10.1759 62.9813 10.352C62.7321 10.528 62.5303 10.7745 62.3523 11.0797C62.2099 11.3614 62.1031 11.6431 62.0556 11.913Z" fill="#37322F"/>
<path d="M70.0424 13.3686L67.123 11.256L66.6839 11.8428L67.752 12.6175L65.6277 15.493L66.411 16.0682L68.5353 13.1808L69.6152 13.9555L70.0424 13.3686Z" fill="#37322F"/>
<path d="M69.0926 18.2628C69.2706 18.4271 69.4605 18.5562 69.6504 18.6501C69.8402 18.744 70.0301 18.7909 70.2081 18.8144C70.3861 18.8261 70.5642 18.8027 70.7303 18.744C70.8964 18.6853 71.0389 18.5797 71.1694 18.4388C71.2643 18.3449 71.3237 18.2275 71.3711 18.1102C71.4186 17.9928 71.4305 17.8637 71.4305 17.7346C71.4186 17.6055 71.3949 17.4764 71.3237 17.3355C71.2643 17.1947 71.1694 17.0656 71.0507 16.9365L71.0626 16.9247C71.3237 17.0538 71.5729 17.1125 71.8102 17.0891C72.0357 17.0656 72.2375 16.9599 72.4036 16.7839C72.6172 16.5491 72.6884 16.2909 72.6172 15.9858C72.546 15.6806 72.3324 15.3754 71.9645 15.0351L70.7778 13.9787L67.8584 17.1595L69.0926 18.2628ZM71.0507 15.1172L71.3355 15.3754C71.5254 15.5397 71.6441 15.6923 71.6797 15.8214C71.7272 15.9505 71.6797 16.0797 71.561 16.2088C71.4186 16.3614 71.2643 16.4318 71.1101 16.42C70.9439 16.4083 70.7778 16.3261 70.5998 16.1618L70.3268 15.9153L71.0507 15.1172ZM70.1963 16.7252C70.4099 16.9247 70.5404 17.1008 70.5879 17.2769C70.6235 17.4412 70.576 17.6055 70.4336 17.7698C70.2912 17.9341 70.1369 17.9928 69.9708 17.9693C69.8046 17.9459 69.6266 17.8402 69.4249 17.6759L69.0332 17.3355L69.864 16.4318L70.1963 16.7252Z" fill="#37322F"/>
<path d="M72.5828 21.8661L73.1169 21.3966L71.9538 20.1056L72.7846 19.3779L73.7814 20.4811L74.3273 19.9999L73.3186 18.8966L74.1137 18.1924L75.2055 19.3896L75.7396 18.9201L74.0069 16.9952L70.7671 19.8591L72.5828 21.8661Z" fill="#37322F"/>
<path d="M76.5455 19.8708L72.9971 22.3473L73.5549 23.1337L75.0858 22.0656L76.2132 23.6501L74.6823 24.7065L75.2401 25.5046L78.7885 23.0281L78.2307 22.2417L76.8185 23.2276L75.691 21.6431L77.1033 20.6572L76.5455 19.8708Z" fill="#37322F"/>
<path d="M76.1886 27.1596L77.8501 26.3145L78.752 28.0281L77.0905 28.8849L77.5296 29.73L81.3866 27.7582L80.9475 26.9014L79.4047 27.6878L78.5028 25.9741L80.0455 25.1878L79.5946 24.3309L75.7376 26.3028L76.1886 27.1596Z" fill="#37322F"/>
<path d="M83.3052 32.8395L79.1914 34.218L79.5037 35.1296L83.6174 33.751L83.3052 32.8395Z" fill="#37322F"/>
<path d="M78.4691 32.1362C78.5521 32.3709 78.6589 32.5822 78.7776 32.7465C78.9082 32.9226 79.0506 33.0517 79.2048 33.1456C79.3591 33.2395 79.5371 33.2982 79.7151 33.3216C79.8932 33.3451 80.0831 33.3216 80.2848 33.2512C80.4628 33.1925 80.6171 33.0986 80.7357 32.9812C80.8544 32.8639 80.9494 32.723 81.0087 32.5587C81.068 32.3944 81.0918 32.2184 81.0918 32.0188C81.0799 31.8193 81.0443 31.5963 80.9612 31.3616L80.712 30.6338L82.3497 30.0822L82.0412 29.1784L77.9232 30.5517L78.4691 32.1362ZM80.083 30.8686L80.2729 31.4085C80.3679 31.6784 80.3916 31.8897 80.3441 32.054C80.2967 32.2184 80.1661 32.3357 79.9525 32.4061C79.7389 32.4766 79.5609 32.4648 79.4185 32.3592C79.276 32.2535 79.1574 32.0658 79.0743 31.7958L78.8963 31.2676L80.083 30.8686Z" fill="#37322F"/>
<path d="M79.8675 36.9718L82.8818 38.4272C82.9886 38.4741 83.0836 38.521 83.1666 38.5563C83.2497 38.5915 83.3209 38.6149 83.3684 38.6267V38.6384C83.3091 38.6384 83.2141 38.6502 83.1073 38.6619C83.0005 38.6737 82.87 38.6971 82.7157 38.7206L80.2591 39.1431L80.4134 40.0234L84.6857 39.284L84.5077 38.2746L81.5289 36.8544C81.4221 36.8075 81.3272 36.7605 81.256 36.737C81.1848 36.7136 81.1254 36.6901 81.078 36.6666V36.6549C81.1373 36.6549 81.2204 36.6431 81.3272 36.6314C81.434 36.6197 81.5645 36.5962 81.7069 36.5727L84.1279 36.1502L83.9736 35.2699L79.7013 36.0093L79.8675 36.9718Z" fill="#37322F"/>
<path d="M85.411 37.946C85.6484 38.1338 85.9451 38.216 86.2774 38.1925L86.1824 37.6526C86.0044 37.6526 85.8501 37.6057 85.7196 37.5C85.5891 37.3944 85.5179 37.2653 85.4823 37.0892C85.411 36.6902 85.5653 36.432 85.9451 36.3381L85.8501 35.7982C85.5179 35.8686 85.2805 36.0329 85.1144 36.2794C84.9482 36.5258 84.9007 36.8193 84.9601 37.1596C85.0194 37.4883 85.1618 37.7465 85.411 37.946Z" fill="#37322F"/>
<path d="M9.14958 47.1948L5.55372 47.3591L5.58933 48.3215L9.19704 48.1572L9.25638 49.4718L9.99216 49.4366L9.82602 45.845L9.09024 45.8802L9.14958 47.1948Z" fill="#37322F"/>
<path d="M6.6338 51.432L7.73749 51.2677L7.9511 52.7466L8.66316 52.6409L8.44953 51.1738L9.50574 51.0213L9.7431 52.6175L10.4551 52.5119L10.0754 49.9649L5.77934 50.587L6.17097 53.2395L6.88303 53.1339L6.6338 51.432Z" fill="#37322F"/>
<path d="M11.4876 56.702L11.2266 55.6691L9.83806 55.2583C9.76686 55.2348 9.70751 55.2231 9.64818 55.2114C9.58884 55.1996 9.5295 55.1879 9.45829 55.1879V55.1762C9.5651 55.1057 9.66005 55.0236 9.74312 54.9414L10.7756 53.9555L10.4908 52.8405L8.75811 54.6715L6.25407 53.7794L6.53888 54.871L8.08166 55.317C8.141 55.3287 8.20033 55.3405 8.2478 55.3522C8.29527 55.3639 8.33088 55.3639 8.36648 55.3639V55.3757C8.31901 55.4109 8.27154 55.4344 8.23594 55.4696C8.20034 55.4931 8.16474 55.5283 8.12914 55.5635L7.01359 56.6903L7.29842 57.7818L9.04292 55.8686L11.4876 56.702Z" fill="#37322F"/>
<path d="M12.7228 59.8476L11.1088 60.4814L10.3968 58.6739L11.9989 58.0518L11.6429 57.1481L7.60792 58.7208L7.96395 59.6246L9.69659 58.9438L10.4205 60.7513L8.67599 61.4203L9.03202 62.3241L13.0788 60.7513L12.7228 59.8476Z" fill="#37322F"/>
<path d="M12.7946 66.5844C13.0912 66.5374 13.3998 66.4318 13.7084 66.2675C13.9813 66.1149 14.2187 65.9271 14.3967 65.7041C14.5747 65.4811 14.7052 65.2464 14.7883 64.9882C14.8714 64.7299 14.8832 64.46 14.8476 64.1666C14.812 63.8731 14.7171 63.5915 14.5509 63.3098C14.3729 63.0046 14.1712 62.7464 13.9339 62.5586C13.6965 62.3708 13.4354 62.2299 13.1625 62.1595C12.8895 62.0891 12.6047 62.0656 12.308 62.1126C12.0113 62.1595 11.7146 62.2652 11.4179 62.4295C11.1331 62.5821 10.9076 62.7698 10.7178 63.0046C10.5279 63.2393 10.4092 63.4741 10.338 63.7323C10.2668 63.9905 10.243 64.2722 10.2905 64.5539C10.338 64.8473 10.4329 65.129 10.5991 65.4224C10.7652 65.7159 10.9551 65.9506 11.1925 66.1384C11.4179 66.3262 11.6671 66.4553 11.9401 66.5375C12.2012 66.6079 12.486 66.6313 12.7946 66.5844ZM11.5841 65.4811C11.4535 65.3755 11.3349 65.2464 11.2281 65.0703C11.1331 64.906 11.0856 64.7417 11.0738 64.5774C11.0619 64.413 11.0856 64.2487 11.145 64.0961C11.2043 63.9436 11.3111 63.8027 11.4417 63.6619C11.5722 63.521 11.7384 63.4036 11.9401 63.2863C12.1418 63.1806 12.3317 63.0985 12.5216 63.0633C12.7115 63.0163 12.8895 63.0163 13.0556 63.0515C13.2218 63.075 13.3761 63.1454 13.5185 63.2393C13.6609 63.3332 13.7796 63.4741 13.8745 63.6384C13.9694 63.8145 14.0288 63.9788 14.0407 64.1431C14.0525 64.3074 14.0288 64.46 13.9695 64.6126C13.9101 64.7651 13.8033 64.906 13.6609 65.0468C13.5185 65.1877 13.3523 65.3051 13.1387 65.4224C12.937 65.5398 12.7352 65.6102 12.5572 65.6572C12.3673 65.7041 12.1893 65.7041 12.035 65.6806C11.8689 65.6572 11.7265 65.5867 11.5841 65.4811Z" fill="#37322F"/>
<path d="M16.4735 66.4789C16.2718 66.5845 16.07 66.6902 15.892 66.7958C15.7021 66.8897 15.5241 66.9836 15.3461 67.0775C15.1681 67.1714 14.9901 67.2536 14.8121 67.3357C14.634 67.4179 14.4679 67.5 14.2899 67.5822C14.0644 67.6878 13.8745 67.7582 13.7202 67.8287C13.566 67.8874 13.4236 67.9226 13.3168 67.946C13.2099 67.9578 13.115 67.9578 13.0319 67.9343C12.9607 67.8991 12.8895 67.8522 12.8302 67.77C12.759 67.6761 12.7115 67.5705 12.6759 67.4414L12.0944 67.8639C12.1537 68.0282 12.2487 68.1808 12.3673 68.3451C12.5098 68.5329 12.664 68.6737 12.8302 68.7442C12.9963 68.8263 13.1625 68.8615 13.3286 68.8615C13.4948 68.8615 13.6728 68.8263 13.8508 68.7677C14.0288 68.709 14.2068 68.6268 14.3967 68.5446C14.5272 68.486 14.6578 68.4273 14.8002 68.3568C14.9426 68.2864 15.0969 68.216 15.2512 68.1338C15.4054 68.0517 15.5835 67.9695 15.7733 67.8756C15.9514 67.7817 16.1531 67.6761 16.3786 67.5587L16.9245 68.2747L14.0407 70.4226L14.6222 71.1855L18.0875 68.6033L16.4735 66.4789Z" fill="#37322F"/>
<path d="M20.6495 73.0399C20.7682 72.7817 20.8275 72.5117 20.8393 72.2418C20.8393 71.9718 20.7919 71.7019 20.6851 71.4319C20.5783 71.1619 20.4003 70.9155 20.1629 70.6807C19.9137 70.4225 19.6407 70.2347 19.3678 70.1174C19.0948 70 18.7981 69.9296 18.5252 69.9296C18.2404 69.9296 17.9556 69.9882 17.6826 70.1056C17.4097 70.223 17.1486 70.399 16.9112 70.6338C16.6857 70.8568 16.5077 71.1033 16.389 71.3615C16.2704 71.6197 16.211 71.8896 16.211 72.1596C16.211 72.4296 16.2704 72.6995 16.389 72.9695C16.5077 73.2394 16.6857 73.4859 16.9112 73.7206C17.1486 73.9554 17.3978 74.1432 17.6707 74.2605C17.9437 74.3779 18.2166 74.4483 18.5015 74.4483C18.7863 74.4483 19.0592 74.4014 19.3441 74.2723C19.6289 74.1432 19.89 73.9788 20.1392 73.7324C20.3528 73.5328 20.5308 73.2981 20.6495 73.0399ZM19.7831 72.5822C19.6882 72.7465 19.5458 72.9108 19.3797 73.0868C19.2135 73.2512 19.0474 73.3803 18.8812 73.4624C18.7151 73.5563 18.5489 73.6033 18.3828 73.615C18.2166 73.6268 18.0505 73.6032 17.8962 73.5446C17.7419 73.4859 17.5877 73.3803 17.4452 73.2394C17.3147 73.1103 17.2198 72.9577 17.1604 72.8052C17.1011 72.6526 17.0892 72.4883 17.1011 72.3239C17.1248 72.1596 17.1723 71.9953 17.2672 71.831C17.3622 71.6666 17.4927 71.5023 17.647 71.338C17.8131 71.1854 17.9793 71.0563 18.1454 70.9742C18.3116 70.8803 18.4896 70.8333 18.6557 70.8216C18.8219 70.8099 18.988 70.8216 19.1542 70.892C19.3203 70.9624 19.4627 71.0446 19.6051 71.1854C19.7475 71.3263 19.8425 71.4789 19.9018 71.6314C19.9612 71.784 19.973 71.9483 19.9493 72.1009C19.9374 72.2535 19.8781 72.4178 19.7831 72.5822Z" fill="#37322F"/>
<path d="M23.8058 74.8943L24.2568 74.3309L22.1681 72.6642L19.4386 75.9976L20.1981 76.6079L22.4767 73.8262L23.8058 74.8943Z" fill="#37322F"/>
<path d="M27.26 76.2795L24.1982 77.5002C24.0795 77.5471 23.9965 77.5823 23.9253 77.6175C23.8541 77.6527 23.8066 77.6762 23.7591 77.6997H23.7472C23.7828 77.6527 23.8303 77.5941 23.8897 77.5002C23.949 77.4063 24.0202 77.3123 24.1033 77.1832L25.4206 75.1292L24.661 74.648L22.335 78.2748L23.1657 78.7912L26.2869 77.5706C26.3937 77.5236 26.4886 77.4884 26.5717 77.4532C26.6548 77.418 26.7141 77.3828 26.7616 77.3593L26.7735 77.371C26.7379 77.418 26.6785 77.4884 26.6192 77.5823C26.5599 77.6762 26.4886 77.7818 26.4056 77.9109L25.0645 80.0001L25.8241 80.4814L28.1501 76.8546L27.26 76.2795Z" fill="#37322F"/>
<path d="M31.3307 78.3334L30.5474 80.0118C30.3338 80.0236 30.1439 80.0118 29.9659 79.9883C29.7879 79.9649 29.6218 79.9179 29.4675 79.8475C29.2657 79.7536 29.1471 79.648 29.0996 79.5071C29.0521 79.3663 29.0759 79.202 29.1708 78.9907L29.7998 77.6292L28.9216 77.2301L28.2333 78.709C28.0553 79.0846 28.0315 79.4132 28.1502 79.6949C28.2689 79.9766 28.5181 80.2113 28.9097 80.3757C29.1233 80.4696 29.3488 80.54 29.5743 80.5752C29.7998 80.6104 30.0371 80.6222 30.2745 80.6104L29.5268 82.2301L30.405 82.6292L32.2208 78.7325L31.3307 78.3334Z" fill="#37322F"/>
<path d="M35.4373 80.5633L35.6628 79.8826L33.1824 79.0727L31.8296 83.1572L34.4048 83.9905L34.6184 83.3215L32.9688 82.7816L33.3249 81.737L34.749 82.1948L34.9744 81.5257L33.5503 81.0563L33.8826 80.0586L35.4373 80.5633Z" fill="#37322F"/>
<path d="M37.5375 80.4343C37.2171 80.4812 36.9323 80.5751 36.6712 80.7277C36.422 80.8803 36.1965 81.0798 36.0185 81.338C35.8405 81.5845 35.7218 81.8779 35.6387 82.2183C35.5675 82.5352 35.5556 82.8287 35.6031 83.1104C35.6506 83.392 35.7455 83.6385 35.8998 83.8615C36.0541 84.0845 36.2558 84.2723 36.505 84.4367C36.7542 84.5892 37.0509 84.7066 37.3951 84.7888C37.9291 84.9061 38.392 84.9179 38.7599 84.8357L38.926 84.0728C38.57 84.1901 38.1783 84.2019 37.7511 84.108C37.5256 84.061 37.3358 83.9789 37.1696 83.8733C37.0035 83.7676 36.8729 83.6385 36.778 83.4859C36.6831 83.3333 36.6237 83.169 36.5881 82.9812C36.5644 82.7934 36.5762 82.5939 36.6237 82.3709C36.6712 82.1479 36.7542 81.9484 36.8611 81.784C36.9679 81.6197 37.1103 81.4789 37.2646 81.385C37.4188 81.2794 37.6087 81.2207 37.8105 81.1854C38.0122 81.1502 38.2258 81.162 38.4632 81.2089C38.8429 81.2911 39.1633 81.4554 39.4363 81.6901L39.6143 80.8803C39.3414 80.7042 38.9735 80.5751 38.5225 80.4695C38.2021 80.3991 37.8579 80.3873 37.5375 80.4343Z" fill="#37322F"/>
<path d="M42.806 81.1268L41.3107 82.7817C41.2751 82.8169 41.2395 82.8521 41.2157 82.8991C41.192 82.946 41.1564 82.9813 41.1445 83.0047H41.1327L41.3344 80.9859L40.3613 80.892L39.9222 85.1644L40.8953 85.2582L41.1089 83.1573H41.1208C41.1445 83.2042 41.1564 83.2512 41.1801 83.2982C41.2038 83.3451 41.2276 83.3803 41.2395 83.4038L42.4381 85.3991L43.5892 85.5165L42.0939 83.1221L43.8859 81.2324L42.806 81.1268Z" fill="#37322F"/>
<path d="M47.4338 81.1619L45.5825 83.8732C45.5113 83.9788 45.4638 84.061 45.4164 84.1197C45.3808 84.1783 45.3451 84.237 45.3214 84.284H45.3096C45.3096 84.2253 45.3214 84.1431 45.3214 84.0375C45.3214 83.9319 45.3214 83.8028 45.3214 83.6502L45.2502 81.2206L44.3483 81.2441L44.4788 85.5398L45.452 85.5164L47.3389 82.7816C47.4101 82.6878 47.4576 82.5939 47.505 82.5234C47.5525 82.4413 47.5881 82.3826 47.6 82.3356H47.6118C47.6118 82.3943 47.6 82.4882 47.6 82.5938C47.6 82.6995 47.6 82.8403 47.6 82.9812L47.6712 85.4577L48.5731 85.4342L48.4544 81.1384L47.4338 81.1619Z" fill="#37322F"/>
<path d="M52.4647 80.5166L51.0169 83.4508C50.9694 83.5565 50.9219 83.6504 50.8982 83.7208C50.8745 83.7912 50.8507 83.8499 50.827 83.8968H50.8151C50.8151 83.8382 50.8033 83.756 50.7914 83.6504C50.7795 83.5447 50.7558 83.4156 50.7321 83.2748L50.3167 80.8804L49.4267 81.033L50.1624 85.2701L51.1237 85.1058L52.6071 82.1246C52.6546 82.0189 52.7021 81.925 52.7377 81.8428C52.7733 81.7607 52.797 81.6903 52.8089 81.6433H52.8207C52.8207 81.702 52.8326 81.7959 52.8445 81.9016C52.8563 82.0072 52.8801 82.1363 52.9038 82.2889L53.3311 84.7302L54.2211 84.5776L53.4853 80.3405L52.4647 80.5166Z" fill="#37322F"/>
<path d="M51.2672 79.554C50.8518 79.6244 50.6026 79.4718 50.5076 79.0962L49.9618 79.1901C50.033 79.5188 50.1991 79.7535 50.4483 79.9178C50.6975 80.0821 50.9942 80.1291 51.3384 80.0704C51.6707 80.0117 51.9199 79.8709 52.1216 79.6244C52.3115 79.3897 52.3946 79.0962 52.3709 78.7676L51.8249 78.8615C51.8249 79.0376 51.7775 79.1901 51.6707 79.3192C51.5757 79.4483 51.4333 79.5305 51.2672 79.554Z" fill="#37322F"/>
<path d="M58.9221 80.399C58.9102 80.5047 58.9102 80.622 58.8983 80.7159C58.8983 80.8215 58.8865 80.9272 58.8865 81.0328C58.8509 80.9859 58.8153 80.9389 58.7797 80.892C58.7441 80.845 58.7085 80.8098 58.6729 80.7746L57.0707 79.284L56.0857 79.6478L58.6729 81.9131C58.6491 82.0539 58.6254 82.1713 58.5898 82.2652C58.5542 82.3591 58.5186 82.453 58.4592 82.5234C58.4118 82.5939 58.3524 82.6525 58.2931 82.6877C58.2338 82.7347 58.1744 82.7699 58.1032 82.7934C57.9133 82.8638 57.7116 82.8755 57.5098 82.8521L57.7828 83.5915C57.8659 83.5915 57.9608 83.5798 58.0676 83.5563C58.1744 83.5328 58.305 83.4976 58.4592 83.4389C58.6729 83.3568 58.8509 83.2629 58.9933 83.1455C59.1357 83.0281 59.2425 82.899 59.3374 82.7347C59.4205 82.5821 59.4917 82.3943 59.5392 82.1948C59.5867 81.9953 59.6223 81.7605 59.646 81.5023L59.9902 78.2042L59.0408 78.5563L58.9221 80.399Z" fill="#37322F"/>
<path d="M62.9092 76.69L63.7043 78.1924L61.9716 79.0961L61.1647 77.582L60.3102 78.0398L62.3395 81.8309L63.194 81.3848L62.3277 79.7534L64.0603 78.8496L64.9267 80.4811L65.793 80.0351L63.7636 76.2322L62.9092 76.69Z" fill="#37322F"/>
<path d="M67.1101 73.9319L67.1219 77.1948C67.1219 77.3122 67.1219 77.4178 67.1219 77.4882C67.1219 77.5586 67.1338 77.6173 67.1338 77.676L67.1219 77.6878C67.0982 77.6408 67.0508 77.5704 66.9914 77.4765C66.9321 77.3826 66.8609 77.277 66.7778 77.1596L65.3418 75.1878L64.6179 75.7159L67.1576 79.1901L67.9527 78.6267V75.3169C67.9527 75.1995 67.9527 75.0938 67.9408 75.0117C67.9289 74.9178 67.9289 74.8474 67.9171 74.8004L67.929 74.7887C67.9646 74.8474 68.0002 74.9178 68.0714 75.0117C68.1307 75.1056 68.2138 75.2112 68.2968 75.3404L69.7565 77.3474L70.4805 76.8192L67.9408 73.345L67.1101 73.9319Z" fill="#37322F"/>
<path d="M73.2215 72.6408C73.1266 72.5469 73.0198 72.4647 72.913 72.4177C72.7943 72.3591 72.6756 72.3356 72.5451 72.3356C72.4145 72.3356 72.284 72.3591 72.1416 72.406C71.9992 72.453 71.8568 72.5351 71.7143 72.6408L71.7025 72.629C71.8567 72.3825 71.928 72.1361 71.9161 71.9131C71.9042 71.6783 71.8211 71.4788 71.655 71.3027C71.4414 71.0797 71.1803 70.9858 70.8717 71.0328C70.5632 71.0797 70.2309 71.2675 69.863 71.6079L68.7 72.6877L71.6669 75.8215L72.8773 74.6947C73.0554 74.5304 73.1978 74.3544 73.3046 74.1783C73.4114 74.0023 73.4826 73.8145 73.5063 73.6384C73.5301 73.4624 73.5301 73.2863 73.4826 73.122C73.4351 72.9342 73.352 72.7816 73.2215 72.6408ZM70.6107 73.298L69.863 72.5117L70.1478 72.2534C70.3258 72.0774 70.492 71.9835 70.6225 71.9483C70.7531 71.9131 70.8836 71.9717 71.0141 72.1009C71.1566 72.2534 71.2159 72.406 71.1922 72.5703C71.1684 72.7347 71.0735 72.899 70.8955 73.0516L70.6107 73.298ZM72.2958 74.3192L71.9161 74.6713L71.0735 73.7793L71.4177 73.4624C71.6313 73.2628 71.8211 73.1455 71.9992 73.122C72.1772 73.0985 72.3315 73.1572 72.4857 73.3215C72.64 73.4741 72.6875 73.6384 72.6519 73.8027C72.6044 73.967 72.4857 74.1431 72.2958 74.3192Z" fill="#37322F"/>
<path d="M74.978 71.4905L74.1354 70.7745L75.1086 69.6478L74.5627 69.1783L73.5895 70.3168L72.7707 69.6243L73.8388 68.3919L73.2928 67.9341L71.5958 69.8825L74.8831 72.6877L76.6513 70.6571L76.1173 70.1877L74.978 71.4905Z" fill="#37322F"/>
<path d="M76.9381 67.6996C77.0924 67.4883 77.1992 67.2653 77.2704 67.054C77.3416 66.8428 77.3653 66.6315 77.3416 66.4319C77.3297 66.2324 77.2704 66.0446 77.1636 65.8803C77.0686 65.7042 76.9262 65.5634 76.7482 65.446C76.3922 65.1996 76.0243 65.1291 75.6682 65.2348C75.3122 65.3404 74.9681 65.6221 74.6477 66.0916L73.7813 67.324L77.3416 69.777L77.8993 68.9907L76.6414 68.1338L76.9381 67.6996ZM76.3091 67.4179L76.0955 67.7348L74.9087 66.9132L75.1461 66.5728C75.3122 66.3381 75.4784 66.209 75.6445 66.1503C75.8107 66.1033 76.0005 66.1385 76.1904 66.2794C76.404 66.4202 76.5108 66.5963 76.5346 66.7841C76.5464 66.9719 76.4752 67.1832 76.3091 67.4179Z" fill="#37322F"/>
<path d="M80.224 63.9789C80.1172 64.1785 79.9866 64.3428 79.8442 64.4602C79.7018 64.5893 79.5357 64.6714 79.3695 64.7184C79.1915 64.7653 79.0135 64.777 78.8236 64.7536C78.6337 64.7301 78.432 64.6597 78.2421 64.5541C78.0404 64.4484 77.8623 64.3076 77.7318 64.155C77.6013 64.0024 77.5063 63.8381 77.4589 63.6503C77.4114 63.4742 77.3995 63.2865 77.4232 63.0752C77.447 62.8757 77.5182 62.6761 77.6369 62.4649C77.8267 62.1245 78.0641 61.8663 78.3727 61.6785L77.6487 61.2912C77.3995 61.5024 77.1622 61.8076 76.9485 62.2184C76.7705 62.5353 76.6637 62.8522 76.6163 63.1691C76.5688 63.486 76.5925 63.7912 76.6637 64.0728C76.7468 64.3545 76.8773 64.6245 77.0672 64.8592C77.2571 65.0939 77.5063 65.3052 77.8149 65.4578C78.0997 65.6104 78.3845 65.7043 78.6693 65.7395C78.9542 65.7747 79.2271 65.7512 79.4763 65.6691C79.7374 65.5869 79.9748 65.4461 80.2002 65.2583C80.4257 65.0587 80.6275 64.8123 80.7936 64.5071C81.0547 64.0259 81.1971 63.6033 81.2208 63.216L80.5325 62.8404C80.5325 63.2278 80.4257 63.6033 80.224 63.9789Z" fill="#37322F"/>
<path d="M78.9665 57.8053L80.7703 60.54C80.8415 60.6456 80.889 60.7278 80.9365 60.7865C80.9839 60.8452 81.0195 60.8921 81.0551 60.9391V60.9508C81.0077 60.9273 80.9365 60.8921 80.8297 60.8452C80.7347 60.7982 80.616 60.7513 80.4736 60.7043L78.1832 59.8241L77.8628 60.6574L81.9096 62.2184L82.2656 61.3147L80.4499 58.533C80.3906 58.4391 80.3312 58.3452 80.2719 58.2748C80.2126 58.2043 80.1769 58.1456 80.1413 58.1104V58.0987C80.2007 58.1339 80.2719 58.1691 80.3787 58.2043C80.4855 58.2513 80.6042 58.2982 80.7466 58.3569L83.0726 59.2489L83.3931 58.4156L79.3462 56.8546L78.9665 57.8053Z" fill="#37322F"/>
<path d="M80.5095 55.317L83.9985 56.1855L84.2358 55.2583L80.7468 54.378L81.0672 53.1104L80.3552 52.9343L79.4651 56.4085L80.1772 56.5846L80.5095 55.317Z" fill="#37322F"/>
<path d="M84.1509 52.0072L83.0472 51.8428L83.2727 50.364L82.5607 50.2583L82.3352 51.7372L81.279 51.5729L81.5282 49.9767L80.8162 49.871L80.4245 52.418L84.7206 53.0635L85.1241 50.3992L84.412 50.2935L84.1509 52.0072Z" fill="#37322F"/>
<path d="M81.6711 48.2866L85.267 48.4509L85.3144 47.4884L81.7186 47.3241L81.7779 46.0096L81.0421 45.9743L80.8641 49.5542L81.5999 49.5894L81.6711 48.2866Z" fill="#37322F"/>
<path d="M82.8715 43.533C82.8715 44.1316 83.3699 44.6246 83.9751 44.6246C84.5804 44.6246 85.0788 44.1316 85.0788 43.533C85.0788 42.9344 84.5804 42.4415 83.9751 42.4415C83.3699 42.4415 82.8715 42.9227 82.8715 43.533Z" fill="#37322F"/>
<path d="M50.7344 43.3803H48.3846V50.7277H50.7344V43.3803Z" fill="#37322F"/>
<path d="M54.2831 43.3803H51.9333V50.7277H54.2831V43.3803Z" fill="#37322F"/>
<path d="M57.8172 43.3803H55.4674V50.7277H57.8172V43.3803Z" fill="#37322F"/>
<path d="M61.3542 43.3803H59.0044V50.7277H61.3542V43.3803Z" fill="#37322F"/>
<path d="M33.9403 31.3967H31.2464V50.7864H33.9403V31.3967Z" fill="#37322F"/>
<path d="M38.2732 31.3967H35.5793V50.7864H38.2732V31.3967Z" fill="#37322F"/>
<path d="M42.6038 31.3967H39.9099V50.7864H42.6038V31.3967Z" fill="#37322F"/>
<path d="M48.8238 34.8357C48.5865 34.9413 48.3254 35.0118 48.0406 35.0587V36.0446C48.2423 36.0211 48.4204 35.9976 48.5746 35.9507C48.7289 35.9037 48.8832 35.8451 49.0256 35.7629V38.9437H50.3548V34.4249H49.5715C49.3223 34.5892 49.0731 34.7301 48.8238 34.8357Z" fill="#37322F"/>
<path d="M53.9726 34.695C53.7115 34.519 53.4148 34.4368 53.0707 34.4368C52.7384 34.4368 52.4536 34.5072 52.2044 34.6363C51.9551 34.7654 51.7534 34.9532 51.6228 35.1997C51.4923 35.4462 51.4211 35.7279 51.4211 36.0565C51.4211 36.3147 51.4686 36.5495 51.5754 36.7607C51.6822 36.9603 51.8246 37.1246 52.0145 37.242C52.2043 37.3593 52.4061 37.418 52.6316 37.418C53.0113 37.418 53.2962 37.2889 53.486 37.0424H53.5098C53.5098 37.3711 53.4267 37.6293 53.2606 37.7936C53.0944 37.9579 52.8571 38.0518 52.5485 38.0518C52.418 38.0518 52.2637 38.0283 52.0975 37.9814C51.9314 37.9344 51.8009 37.8875 51.7059 37.8288V38.8382C52.0026 38.9556 52.3349 39.0143 52.7265 39.0143C53.3674 39.0143 53.8658 38.7913 54.2337 38.357C54.6016 37.9227 54.7796 37.3124 54.7796 36.5377C54.7796 36.1034 54.7203 35.7396 54.5897 35.4227C54.4354 35.1175 54.2337 34.8711 53.9726 34.695ZM53.3436 36.35C53.2843 36.4439 53.1894 36.5025 53.0588 36.5025C52.952 36.5025 52.8571 36.4556 52.7859 36.3617C52.7146 36.2678 52.679 36.1387 52.679 35.9626C52.679 35.7748 52.7146 35.634 52.7859 35.5518C52.8571 35.4696 52.952 35.4227 53.0707 35.4227C53.1894 35.4227 53.2724 35.4697 53.3436 35.5753C53.4148 35.6809 53.4504 35.81 53.4504 35.9626C53.4386 36.1269 53.403 36.2561 53.3436 36.35Z" fill="#37322F"/>
<path d="M57.8406 36.0212C57.449 36.0212 57.1523 36.1502 56.9387 36.3967H56.915C56.9387 36.0915 57.0336 35.8568 57.2116 35.669C57.3897 35.4812 57.6151 35.3873 57.9 35.3873C58.1848 35.3873 58.4221 35.446 58.6239 35.5751V34.5423C58.4221 34.4718 58.1373 34.4249 57.805 34.4249C57.354 34.4249 56.9743 34.5188 56.6539 34.7183C56.3334 34.9178 56.0842 35.2113 55.9062 35.5986C55.7282 35.9859 55.6333 36.4319 55.6333 36.9249C55.6333 37.5822 55.7875 38.0869 56.0724 38.4507C56.369 38.8146 56.7844 38.9906 57.3303 38.9906C57.6389 38.9906 57.9237 38.9202 58.1729 38.7793C58.4221 38.6385 58.6239 38.4507 58.7544 38.2042C58.8968 37.9578 58.9562 37.6878 58.9562 37.3944C58.9562 36.9836 58.8493 36.6549 58.6476 36.3967C58.4696 36.1502 58.1848 36.0212 57.8406 36.0212ZM57.6151 37.8638C57.5439 37.9577 57.449 38.0164 57.3303 38.0164C57.2235 38.0164 57.1286 37.9695 57.0574 37.8638C56.9862 37.7582 56.9506 37.6291 56.9506 37.4765C56.9506 37.3122 56.9862 37.1831 57.0455 37.0775C57.1167 36.9836 57.2116 36.9249 57.3303 36.9249C57.4608 36.9249 57.5558 36.9718 57.6151 37.0657C57.6745 37.1596 57.7101 37.2887 57.7101 37.453C57.7219 37.6291 57.6863 37.77 57.6151 37.8638Z" fill="#37322F"/>
<path d="M61.4857 36.1385C61.3788 36.1385 61.272 36.1385 61.1415 36.162L61.189 35.5399H62.6843V34.5187H60.1565L59.9904 37.1713C60.2277 37.1244 60.4769 37.0892 60.7499 37.0892C61.2958 37.0892 61.5687 37.2535 61.5687 37.5821C61.5687 37.7347 61.5094 37.8521 61.3907 37.9342C61.272 38.0164 61.094 38.0634 60.8686 38.0634C60.5244 38.0634 60.1921 37.9812 59.8835 37.8169V38.838C60.026 38.8967 60.2158 38.9319 60.4294 38.9671C60.6549 39.0023 60.8686 39.0141 61.0703 39.0141C61.4382 39.0141 61.7586 38.9436 62.0316 38.8145C62.3045 38.6854 62.5181 38.4976 62.6605 38.2512C62.803 38.0164 62.8741 37.7465 62.8741 37.4413C62.8741 37.0422 62.7555 36.7253 62.5063 36.4906C62.2689 36.2559 61.9248 36.1385 61.4857 36.1385Z" fill="#37322F"/>
<path d="M22.535 59.6715L44.4899 59.6245L45.2257 60.4578H47.0533L47.7891 59.6245L69.649 59.7301L69.6609 37.8053L67.1094 37.7114L67.145 31.2207L46.5311 31.3029V27.1949H44.3475L41.9503 25.5165H37.7136V26.7607H36.3725V25.5283H32.0646L29.6911 27.2301H27.4956V31.6316H25.0272L24.9916 37.6057L22.5231 37.7935L22.535 59.6715ZM28.8129 28.5212H30.1302L32.5037 26.8193H35.079V28.0518H39.0308V26.8193H41.5468L43.944 28.4978H45.2375L45.2257 50.7982H46.5311V41.6316L63.2999 41.6668V52.9461H28.8129V28.5212ZM26.3326 32.9226H27.4956V54.2255H64.6053V40.3757L46.5311 40.3405V32.6058L65.8277 32.5236L65.6971 55.6456H26.2021L26.3326 32.9226ZM24.9916 38.8968L24.8848 56.9367H66.9907L67.0975 39.0142L68.3436 39.0612L68.3317 58.4391L47.1838 58.3334L46.448 59.1668H45.8191L45.0833 58.3334L23.8404 58.3804L23.8286 38.979L24.9916 38.8968Z" fill="#37322F"/>
<path d="M47.5645 65.7865L55.5513 65.7982V64.3898L47.1254 64.378L45.998 65.1527L44.8706 64.378H36.4684V65.7865H44.4315L46.0099 66.8663L47.5645 65.7865Z" fill="#37322F"/>
</svg>
