<svg width="26" height="27" viewBox="0 0 26 27" fill="none" xmlns="http://www.w3.org/2000/svg">
<path fill-rule="evenodd" clip-rule="evenodd" d="M12.6875 0.8125C5.61875 0.8125 0 6.43125 0 13.5C0 20.5688 5.61875 26.1875 12.6875 26.1875C19.7563 26.1875 25.375 20.5688 25.375 13.5C25.375 6.43125 19.7563 0.8125 12.6875 0.8125ZM17.5812 19.8438L12.6875 14.95L7.79375 19.8438L6.34375 18.3937L11.2375 13.5L6.34375 8.60625L7.79375 7.15625L12.6875 12.05L17.5812 7.15625L19.0312 8.60625L14.1375 13.5L19.0312 18.3937L17.5812 19.8438ZM1.8125 13.5C1.8125 19.4813 6.70625 24.375 12.6875 24.375C18.6688 24.375 23.5625 19.4813 23.5625 13.5C23.5625 7.51875 18.6688 2.625 12.6875 2.625C6.70625 2.625 1.8125 7.51875 1.8125 13.5Z" fill="#434C63"/>
</svg>
