<svg width="317" height="103" viewBox="0 0 317 103" fill="none" xmlns="http://www.w3.org/2000/svg">
<path d="M142.211 44.2274V56.9941H140.424V45.8141H133.019V56.9941H131.214V44.2274H142.211Z" fill="white"/>
<path d="M151.026 47.2367C151.962 47.2367 152.801 47.4434 153.543 47.8568C154.284 48.2702 154.862 48.8477 155.275 49.5894C155.701 50.3311 155.913 51.1883 155.913 52.161C155.913 53.1337 155.701 53.997 155.275 54.7508C154.862 55.4925 154.284 56.07 153.543 56.4834C152.801 56.8968 151.962 57.1035 151.026 57.1035C150.333 57.1035 149.694 56.9698 149.111 56.7023C148.539 56.4348 148.053 56.0457 147.652 55.535V60.5323H145.901V47.3279H147.579V48.8599C147.968 48.3249 148.46 47.9237 149.056 47.6562C149.652 47.3765 150.308 47.2367 151.026 47.2367ZM150.88 55.5715C151.5 55.5715 152.053 55.4317 152.539 55.152C153.038 54.8602 153.427 54.459 153.707 53.9483C153.998 53.4255 154.144 52.8297 154.144 52.161C154.144 51.4923 153.998 50.9026 153.707 50.3919C153.427 49.8691 153.038 49.4678 152.539 49.1882C152.053 48.9085 151.5 48.7687 150.88 48.7687C150.272 48.7687 149.719 48.9146 149.22 49.2064C148.734 49.4861 148.345 49.8812 148.053 50.3919C147.773 50.9026 147.633 51.4923 147.633 52.161C147.633 52.8297 147.773 53.4255 148.053 53.9483C148.333 54.459 148.722 54.8602 149.22 55.152C149.719 55.4317 150.272 55.5715 150.88 55.5715Z" fill="white"/>
<path d="M162.597 57.1035C161.637 57.1035 160.773 56.8907 160.007 56.4652C159.241 56.0396 158.64 55.456 158.202 54.7143C157.776 53.9605 157.564 53.1094 157.564 52.161C157.564 51.2126 157.776 50.3676 158.202 49.6259C158.64 48.8721 159.241 48.2884 160.007 47.875C160.773 47.4495 161.637 47.2367 162.597 47.2367C163.558 47.2367 164.415 47.4495 165.169 47.875C165.935 48.2884 166.531 48.8721 166.956 49.6259C167.394 50.3676 167.613 51.2126 167.613 52.161C167.613 53.1094 167.394 53.9605 166.956 54.7143C166.531 55.456 165.935 56.0396 165.169 56.4652C164.415 56.8907 163.558 57.1035 162.597 57.1035ZM162.597 55.5715C163.217 55.5715 163.771 55.4317 164.257 55.152C164.755 54.8602 165.145 54.459 165.424 53.9483C165.704 53.4255 165.844 52.8297 165.844 52.161C165.844 51.4923 165.704 50.9026 165.424 50.3919C165.145 49.8691 164.755 49.4678 164.257 49.1882C163.771 48.9085 163.217 48.7687 162.597 48.7687C161.977 48.7687 161.418 48.9085 160.919 49.1882C160.433 49.4678 160.044 49.8691 159.752 50.3919C159.473 50.9026 159.333 51.4923 159.333 52.161C159.333 52.8297 159.473 53.4255 159.752 53.9483C160.044 54.459 160.433 54.8602 160.919 55.152C161.418 55.4317 161.977 55.5715 162.597 55.5715Z" fill="white"/>
<path d="M170.141 47.3279H171.892V54.3678L177.819 47.3279H179.406V56.9941H177.655V49.9542L171.746 56.9941H170.141V47.3279Z" fill="white"/>
<path d="M187.878 51.9604C188.523 52.1306 189.021 52.4042 189.374 52.7811C189.727 53.158 189.903 53.6261 189.903 54.1854C189.903 54.7569 189.708 55.2675 189.319 55.7174C188.93 56.1551 188.389 56.5017 187.696 56.757C187.015 57.0002 186.249 57.1217 185.398 57.1217C184.681 57.1217 183.975 57.0306 183.282 56.8482C182.602 56.6536 181.994 56.3801 181.459 56.0275L181.988 54.6961C182.45 54.9879 182.978 55.2189 183.574 55.3891C184.17 55.5472 184.772 55.6262 185.38 55.6262C186.207 55.6262 186.863 55.4864 187.35 55.2067C187.848 54.9149 188.097 54.5259 188.097 54.0395C188.097 53.5896 187.897 53.2431 187.495 52.9999C187.106 52.7568 186.553 52.6352 185.836 52.6352H184.067V51.3767H185.708C186.365 51.3767 186.881 51.2612 187.258 51.0302C187.635 50.7992 187.824 50.4831 187.824 50.0818C187.824 49.6441 187.599 49.3037 187.149 49.0605C186.711 48.8173 186.115 48.6958 185.362 48.6958C184.401 48.6958 183.386 48.945 182.316 49.4435L181.842 48.0939C183.021 47.4981 184.255 47.2002 185.544 47.2002C186.322 47.2002 187.021 47.3097 187.641 47.5285C188.261 47.7474 188.748 48.0574 189.1 48.4587C189.453 48.8599 189.629 49.3158 189.629 49.8265C189.629 50.3007 189.471 50.7263 189.155 51.1032C188.839 51.4801 188.413 51.7658 187.878 51.9604Z" fill="white"/>
<path d="M199.149 51.9786C200.401 52.2947 201.027 53.079 201.027 54.3313C201.027 55.1824 200.705 55.839 200.06 56.301C199.428 56.7631 198.48 56.9941 197.215 56.9941H192.565V47.3279H197.051C198.194 47.3279 199.088 47.5468 199.732 47.9845C200.377 48.41 200.699 49.018 200.699 49.8083C200.699 50.3189 200.559 50.7627 200.279 51.1397C200.012 51.5044 199.635 51.7841 199.149 51.9786ZM194.279 51.4862H196.905C197.574 51.4862 198.079 51.3646 198.419 51.1214C198.772 50.8782 198.948 50.5256 198.948 50.0636C198.948 49.1395 198.267 48.6775 196.905 48.6775H194.279V51.4862ZM197.088 55.6445C197.817 55.6445 198.364 55.529 198.729 55.2979C199.094 55.0669 199.276 54.7082 199.276 54.2219C199.276 53.7234 199.106 53.3525 198.766 53.1094C198.437 52.8662 197.914 52.7446 197.197 52.7446H194.279V55.6445H197.088Z" fill="white"/>
<path d="M207.908 57.1035C206.947 57.1035 206.084 56.8907 205.318 56.4652C204.552 56.0396 203.95 55.456 203.512 54.7143C203.087 53.9605 202.874 53.1094 202.874 52.161C202.874 51.2126 203.087 50.3676 203.512 49.6259C203.95 48.8721 204.552 48.2884 205.318 47.875C206.084 47.4495 206.947 47.2367 207.908 47.2367C208.868 47.2367 209.725 47.4495 210.479 47.875C211.245 48.2884 211.841 48.8721 212.266 49.6259C212.704 50.3676 212.923 51.2126 212.923 52.161C212.923 53.1094 212.704 53.9605 212.266 54.7143C211.841 55.456 211.245 56.0396 210.479 56.4652C209.725 56.8907 208.868 57.1035 207.908 57.1035ZM207.908 55.5715C208.528 55.5715 209.081 55.4317 209.567 55.152C210.066 54.8602 210.455 54.459 210.734 53.9483C211.014 53.4255 211.154 52.8297 211.154 52.161C211.154 51.4923 211.014 50.9026 210.734 50.3919C210.455 49.8691 210.066 49.4678 209.567 49.1882C209.081 48.9085 208.528 48.7687 207.908 48.7687C207.287 48.7687 206.728 48.9085 206.23 49.1882C205.743 49.4678 205.354 49.8691 205.062 50.3919C204.783 50.9026 204.643 51.4923 204.643 52.161C204.643 52.8297 204.783 53.4255 205.062 53.9483C205.354 54.459 205.743 54.8602 206.23 55.152C206.728 55.4317 207.287 55.5715 207.908 55.5715Z" fill="white"/>
<path d="M225.21 55.4621V59.2374H223.569V56.9941H215.489V59.2374H213.83V55.4621H214.34C214.961 55.4256 215.386 54.9879 215.617 54.1489C215.848 53.31 216.006 52.1245 216.091 50.5925L216.237 47.3279H223.733V55.4621H225.21ZM217.696 50.7202C217.648 51.9361 217.544 52.9452 217.386 53.7477C217.24 54.538 216.967 55.1095 216.566 55.4621H221.982V48.8599H217.787L217.696 50.7202Z" fill="white"/>
<path d="M231.704 57.1035C230.719 57.1035 229.838 56.8907 229.06 56.4652C228.294 56.0396 227.692 55.456 227.254 54.7143C226.816 53.9605 226.598 53.1094 226.598 52.161C226.598 51.2126 226.816 50.3676 227.254 49.6259C227.692 48.8721 228.294 48.2884 229.06 47.875C229.838 47.4495 230.719 47.2367 231.704 47.2367C232.58 47.2367 233.358 47.413 234.039 47.7656C234.732 48.1182 235.267 48.6289 235.644 49.2976L234.312 50.1548C234.008 49.6928 233.631 49.3462 233.182 49.1152C232.732 48.8842 232.233 48.7687 231.686 48.7687C231.054 48.7687 230.482 48.9085 229.972 49.1882C229.473 49.4678 229.078 49.8691 228.786 50.3919C228.507 50.9026 228.367 51.4923 228.367 52.161C228.367 52.8419 228.507 53.4437 228.786 53.9666C229.078 54.4772 229.473 54.8724 229.972 55.152C230.482 55.4317 231.054 55.5715 231.686 55.5715C232.233 55.5715 232.732 55.456 233.182 55.225C233.631 54.994 234.008 54.6474 234.312 54.1854L235.644 55.0244C235.267 55.6931 234.732 56.2098 234.039 56.5746C233.358 56.9272 232.58 57.1035 231.704 57.1035Z" fill="white"/>
<path d="M244.99 48.8599H241.452V56.9941H239.701V48.8599H236.163V47.3279H244.99V48.8599Z" fill="white"/>
<path d="M253.364 51.9786C254.616 52.2947 255.243 53.079 255.243 54.3313C255.243 55.1824 254.92 55.839 254.276 56.301C253.644 56.7631 252.695 56.9941 251.431 56.9941H246.78V47.3279H251.267C252.41 47.3279 253.303 47.5468 253.948 47.9845C254.592 48.41 254.914 49.018 254.914 49.8083C254.914 50.3189 254.775 50.7627 254.495 51.1397C254.227 51.5044 253.85 51.7841 253.364 51.9786ZM248.495 51.4862H251.121C251.79 51.4862 252.294 51.3646 252.635 51.1214C252.987 50.8782 253.164 50.5256 253.164 50.0636C253.164 49.1395 252.483 48.6775 251.121 48.6775H248.495V51.4862ZM251.303 55.6445C252.033 55.6445 252.58 55.529 252.945 55.2979C253.309 55.0669 253.492 54.7082 253.492 54.2219C253.492 53.7234 253.322 53.3525 252.981 53.1094C252.653 52.8662 252.13 52.7446 251.413 52.7446H248.495V55.6445H251.303Z" fill="white"/>
<path d="M266.719 52.2157C266.719 52.3494 266.707 52.5257 266.683 52.7446H258.84C258.95 53.5957 259.321 54.2827 259.953 54.8055C260.597 55.3162 261.394 55.5715 262.342 55.5715C263.497 55.5715 264.427 55.1824 265.132 54.4043L266.099 55.535C265.661 56.0457 265.114 56.4348 264.458 56.7023C263.813 56.9698 263.09 57.1035 262.287 57.1035C261.266 57.1035 260.36 56.8968 259.57 56.4834C258.779 56.0579 258.165 55.4682 257.728 54.7143C257.302 53.9605 257.089 53.1094 257.089 52.161C257.089 51.2248 257.296 50.3797 257.71 49.6259C258.135 48.8721 258.713 48.2884 259.442 47.875C260.184 47.4495 261.017 47.2367 261.941 47.2367C262.865 47.2367 263.686 47.4495 264.403 47.875C265.132 48.2884 265.698 48.8721 266.099 49.6259C266.512 50.3797 266.719 51.243 266.719 52.2157ZM261.941 48.714C261.102 48.714 260.397 48.9693 259.825 49.48C259.266 49.9907 258.938 50.6594 258.84 51.4862H265.041C264.944 50.6715 264.61 50.0089 264.038 49.4982C263.479 48.9754 262.78 48.714 261.941 48.714Z" fill="white"/>
<path d="M269.435 47.3279H271.186V51.4315H276.694V47.3279H278.445V56.9941H276.694V52.9452H271.186V56.9941H269.435V47.3279Z" fill="white"/>
<path d="M281.849 47.3279H283.6V51.4315H289.108V47.3279H290.859V56.9941H289.108V52.9452H283.6V56.9941H281.849V47.3279Z" fill="white"/>
<path d="M298.622 50.6107C299.838 50.6229 300.768 50.9026 301.413 51.4497C302.057 51.9968 302.379 52.7689 302.379 53.7659C302.379 54.8116 302.027 55.6201 301.321 56.1916C300.628 56.7509 299.631 57.0245 298.33 57.0123L294.263 56.9941V47.3279H296.014V50.5925L298.622 50.6107ZM303.82 47.3279H305.571V56.9941H303.82V47.3279ZM298.203 55.6809C298.993 55.6931 299.589 55.535 299.99 55.2067C300.404 54.8785 300.61 54.3921 300.61 53.7477C300.61 53.1154 300.41 52.6534 300.008 52.3616C299.607 52.0698 299.005 51.9178 298.203 51.9057L296.014 51.8692V55.6627L298.203 55.6809Z" fill="white"/>
<path d="M315.012 56.9941L312.221 53.2917L309.394 56.9941H307.443L311.255 52.0516L307.625 47.3279H309.577L312.24 50.8114L314.884 47.3279H316.799L313.151 52.0516L317 56.9941H315.012Z" fill="white"/>
<path d="M138.126 70.5176H134.588V78.6518H132.837V70.5176H129.299V68.9856H138.126V70.5176Z" fill="white"/>
<path d="M148.225 73.8734C148.225 74.0072 148.213 74.1835 148.189 74.4023H140.346C140.456 75.2535 140.826 75.9404 141.459 76.4632C142.103 76.9739 142.899 77.2292 143.848 77.2292C145.003 77.2292 145.933 76.8402 146.638 76.062L147.605 77.1928C147.167 77.7034 146.62 78.0925 145.963 78.36C145.319 78.6275 144.596 78.7612 143.793 78.7612C142.772 78.7612 141.866 78.5545 141.076 78.1412C140.285 77.7156 139.671 77.1259 139.234 76.3721C138.808 75.6182 138.595 74.7671 138.595 73.8187C138.595 72.8825 138.802 72.0375 139.215 71.2836C139.641 70.5298 140.218 69.9462 140.948 69.5328C141.69 69.1072 142.523 68.8944 143.447 68.8944C144.371 68.8944 145.191 69.1072 145.909 69.5328C146.638 69.9462 147.204 70.5298 147.605 71.2836C148.018 72.0375 148.225 72.9007 148.225 73.8734ZM143.447 70.3717C142.608 70.3717 141.902 70.6271 141.331 71.1377C140.772 71.6484 140.443 72.3171 140.346 73.1439H146.547C146.45 72.3293 146.115 71.6666 145.544 71.156C144.985 70.6331 144.286 70.3717 143.447 70.3717Z" fill="white"/>
<path d="M156.711 78.6518L153.92 74.9495L151.093 78.6518H149.142L152.954 73.7093L149.324 68.9856H151.276L153.939 72.4691L156.583 68.9856H158.498L154.851 73.7093L158.699 78.6518H156.711Z" fill="white"/>
<path d="M160.541 68.9856H162.292V73.0892H167.8V68.9856H169.551V78.6518H167.8V74.603H162.292V78.6518H160.541V68.9856Z" fill="white"/>
<path d="M177.095 78.7612C176.135 78.7612 175.271 78.5485 174.505 78.1229C173.739 77.6974 173.138 77.1137 172.7 76.3721C172.274 75.6182 172.061 74.7671 172.061 73.8187C172.061 72.8703 172.274 72.0253 172.7 71.2836C173.138 70.5298 173.739 69.9462 174.505 69.5328C175.271 69.1072 176.135 68.8944 177.095 68.8944C178.056 68.8944 178.913 69.1072 179.667 69.5328C180.433 69.9462 181.029 70.5298 181.454 71.2836C181.892 72.0253 182.111 72.8703 182.111 73.8187C182.111 74.7671 181.892 75.6182 181.454 76.3721C181.029 77.1137 180.433 77.6974 179.667 78.1229C178.913 78.5485 178.056 78.7612 177.095 78.7612ZM177.095 77.2292C177.715 77.2292 178.268 77.0894 178.755 76.8098C179.253 76.518 179.642 76.1167 179.922 75.6061C180.202 75.0832 180.342 74.4875 180.342 73.8187C180.342 73.15 180.202 72.5603 179.922 72.0496C179.642 71.5268 179.253 71.1256 178.755 70.8459C178.268 70.5663 177.715 70.4264 177.095 70.4264C176.475 70.4264 175.916 70.5663 175.417 70.8459C174.931 71.1256 174.542 71.5268 174.25 72.0496C173.97 72.5603 173.831 73.15 173.831 73.8187C173.831 74.4875 173.97 75.0832 174.25 75.6061C174.542 76.1167 174.931 76.518 175.417 76.8098C175.916 77.0894 176.475 77.2292 177.095 77.2292Z" fill="white"/>
<path d="M192.866 68.9856V78.6518H191.115V70.5176H186.957L186.847 72.6697C186.787 73.9707 186.671 75.0589 186.501 75.9343C186.331 76.7976 186.051 77.4907 185.662 78.0135C185.273 78.5363 184.732 78.7977 184.039 78.7977C183.723 78.7977 183.364 78.743 182.963 78.6336L183.072 77.1563C183.23 77.1928 183.376 77.211 183.51 77.211C183.996 77.211 184.361 76.9982 184.604 76.5727C184.847 76.1471 185.005 75.6425 185.078 75.0589C185.151 74.4753 185.218 73.6424 185.279 72.5603L185.443 68.9856H192.866Z" fill="white"/>
<path d="M200.391 78.7612C199.431 78.7612 198.568 78.5485 197.802 78.1229C197.036 77.6974 196.434 77.1137 195.996 76.3721C195.571 75.6182 195.358 74.7671 195.358 73.8187C195.358 72.8703 195.571 72.0253 195.996 71.2836C196.434 70.5298 197.036 69.9462 197.802 69.5328C198.568 69.1072 199.431 68.8944 200.391 68.8944C201.352 68.8944 202.209 69.1072 202.963 69.5328C203.729 69.9462 204.325 70.5298 204.75 71.2836C205.188 72.0253 205.407 72.8703 205.407 73.8187C205.407 74.7671 205.188 75.6182 204.75 76.3721C204.325 77.1137 203.729 77.6974 202.963 78.1229C202.209 78.5485 201.352 78.7612 200.391 78.7612ZM200.391 77.2292C201.012 77.2292 201.565 77.0894 202.051 76.8098C202.55 76.518 202.939 76.1167 203.218 75.6061C203.498 75.0832 203.638 74.4875 203.638 73.8187C203.638 73.15 203.498 72.5603 203.218 72.0496C202.939 71.5268 202.55 71.1256 202.051 70.8459C201.565 70.5663 201.012 70.4264 200.391 70.4264C199.771 70.4264 199.212 70.5663 198.714 70.8459C198.227 71.1256 197.838 71.5268 197.546 72.0496C197.267 72.5603 197.127 73.15 197.127 73.8187C197.127 74.4875 197.267 75.0832 197.546 75.6061C197.838 76.1167 198.227 76.518 198.714 76.8098C199.212 77.0894 199.771 77.2292 200.391 77.2292Z" fill="white"/>
<path d="M215.048 70.5176H209.686V78.6518H207.935V68.9856H215.048V70.5176Z" fill="white"/>
<path d="M216.841 68.9856H218.591V76.0255L224.519 68.9856H226.105V78.6518H224.355V71.6119L218.445 78.6518H216.841V68.9856Z" fill="white"/>
<path d="M229.504 68.9856H231.255V76.0255L237.182 68.9856H238.769V78.6518H237.018V71.6119L231.109 78.6518H229.504V68.9856ZM234.027 67.7272C233.127 67.7272 232.428 67.5144 231.93 67.0889C231.431 66.6512 231.176 66.025 231.164 65.2103H232.349C232.361 65.6602 232.513 66.025 232.805 66.3046C233.109 66.5721 233.51 66.7059 234.009 66.7059C234.507 66.7059 234.908 66.5721 235.212 66.3046C235.516 66.025 235.674 65.6602 235.687 65.2103H236.909C236.896 66.025 236.635 66.6512 236.124 67.0889C235.614 67.5144 234.915 67.7272 234.027 67.7272Z" fill="white"/>
<path d="M135.422 21.1009H137.709C138.397 21.1009 139.029 21.2089 139.605 21.4248C140.186 21.6408 140.692 21.9471 141.124 22.3439C141.556 22.7356 141.892 23.2077 142.132 23.7602C142.372 24.3076 142.492 24.9178 142.492 25.5908C142.492 26.2537 142.372 26.8589 142.132 27.4063C141.892 27.9537 141.556 28.4258 141.124 28.8226C140.692 29.2143 140.186 29.5157 139.605 29.7266C139.029 29.9375 138.397 30.043 137.709 30.043H135.422C134.74 30.043 134.108 29.9375 133.527 29.7266C132.946 29.5157 132.436 29.2143 131.999 28.8226C131.567 28.4308 131.231 27.9638 130.992 27.4214C130.757 26.874 130.64 26.2688 130.64 25.6058C130.64 24.9329 130.757 24.3227 130.992 23.7752C131.231 23.2228 131.567 22.7482 131.999 22.3514C132.436 21.9497 132.946 21.6408 133.527 21.4248C134.108 21.2089 134.74 21.1009 135.422 21.1009ZM135.422 22.6076C134.825 22.6076 134.31 22.7281 133.879 22.9692C133.447 23.2052 133.113 23.5467 132.879 23.9937C132.65 24.4407 132.535 24.9781 132.535 25.6058C132.535 26.0679 132.602 26.4797 132.735 26.8413C132.868 27.2029 133.06 27.5093 133.311 27.7604C133.561 28.0115 133.865 28.2048 134.222 28.3404C134.58 28.476 134.98 28.5438 135.422 28.5438H137.725C138.317 28.5438 138.826 28.4258 139.253 28.1898C139.679 27.9487 140.007 27.6072 140.236 27.1652C140.471 26.7233 140.588 26.1985 140.588 25.5908C140.588 25.1237 140.522 24.7069 140.388 24.3402C140.26 23.9686 140.071 23.6547 139.821 23.3986C139.575 23.1424 139.277 22.9466 138.925 22.811C138.573 22.6754 138.173 22.6076 137.725 22.6076H135.422ZM137.533 19.6168V31.4894H135.606V19.6168H137.533Z" fill="#C1C4CA"/>
<path d="M148.938 29.4026V25.5154C148.938 25.2241 148.882 24.973 148.77 24.7621C148.658 24.5512 148.487 24.3879 148.258 24.2724C148.034 24.1569 147.751 24.0992 147.41 24.0992C147.096 24.0992 146.824 24.1494 146.594 24.2498C146.365 24.3503 146.186 24.4859 146.059 24.6566C145.931 24.8274 145.867 25.0207 145.867 25.2367H143.947C143.947 24.9153 144.03 24.6039 144.195 24.3026C144.36 24.0012 144.6 23.7325 144.915 23.4965C145.229 23.2605 145.605 23.0746 146.043 22.939C146.48 22.8034 146.97 22.7356 147.514 22.7356C148.164 22.7356 148.74 22.8386 149.241 23.0445C149.748 23.2504 150.145 23.5618 150.433 23.9786C150.726 24.3905 150.873 24.9077 150.873 25.5305V29.154C150.873 29.5257 150.9 29.8597 150.953 30.156C151.012 30.4473 151.094 30.7009 151.201 30.9169V31.0374H149.225C149.135 30.8415 149.063 30.5929 149.01 30.2916C148.962 29.9852 148.938 29.6889 148.938 29.4026ZM149.217 26.0804L149.233 27.2029H147.85C147.493 27.2029 147.178 27.2356 146.906 27.3008C146.634 27.3611 146.408 27.4515 146.226 27.572C146.045 27.6926 145.909 27.8382 145.819 28.009C145.728 28.1797 145.683 28.3731 145.683 28.589C145.683 28.805 145.736 29.0034 145.843 29.1842C145.949 29.36 146.104 29.4981 146.306 29.5985C146.514 29.699 146.765 29.7492 147.058 29.7492C147.453 29.7492 147.797 29.6739 148.09 29.5232C148.388 29.3675 148.623 29.1792 148.794 28.9582C148.964 28.7322 149.055 28.5187 149.066 28.3178L149.689 29.1239C149.625 29.3298 149.516 29.5508 149.361 29.7869C149.207 30.0229 149.004 30.2489 148.754 30.4649C148.508 30.6758 148.212 30.8491 147.866 30.9847C147.525 31.1203 147.13 31.1881 146.682 31.1881C146.117 31.1881 145.613 31.0826 145.171 30.8717C144.728 30.6557 144.382 30.3669 144.131 30.0053C143.881 29.6387 143.755 29.2244 143.755 28.7623C143.755 28.3304 143.841 27.9487 144.011 27.6172C144.187 27.2808 144.443 26.9995 144.779 26.7735C145.12 26.5475 145.536 26.3768 146.027 26.2612C146.517 26.1407 147.077 26.0804 147.706 26.0804H149.217Z" fill="#C1C4CA"/>
<path d="M154.968 22.8863V31.0374H153.04V22.8863H154.968ZM160.614 22.8863L156.719 27.7905H154.52L154.264 26.1482H155.871L158.206 22.8863H160.614ZM158.358 31.0374L155.751 27.4816L157.271 26.4496L160.894 31.0374H158.358Z" fill="#C1C4CA"/>
<path d="M164.452 30.1485L166.804 22.8863H168.867L165.396 32.2804C165.316 32.4813 165.212 32.6997 165.084 32.9358C164.956 33.1718 164.788 33.3953 164.58 33.6063C164.378 33.8222 164.125 33.9955 163.821 34.1261C163.517 34.2617 163.149 34.3295 162.717 34.3295C162.546 34.3295 162.381 34.3144 162.221 34.2843C162.067 34.2592 161.92 34.2315 161.781 34.2014L161.773 32.8153C161.827 32.8203 161.891 32.8253 161.965 32.8303C162.045 32.8353 162.109 32.8379 162.157 32.8379C162.477 32.8379 162.744 32.8002 162.957 32.7249C163.17 32.6545 163.343 32.539 163.477 32.3783C163.615 32.2176 163.733 32.0017 163.829 31.7305L164.452 30.1485ZM163.125 22.8863L165.18 28.9883L165.524 30.9018L164.188 31.2257L161.046 22.8863H163.125Z" fill="#C1C4CA"/>
<path d="M175.449 22.8863V24.3327H171.226V22.8863H175.449ZM176.96 22.8863V31.0374H175.033V22.8863H176.96ZM170.754 22.8863H172.658L172.426 26.9166C172.394 27.5143 172.33 28.0416 172.234 28.4986C172.143 28.9506 172.021 29.3399 171.866 29.6663C171.711 29.9877 171.522 30.2489 171.298 30.4498C171.074 30.6507 170.813 30.7988 170.514 30.8943C170.216 30.9897 169.88 31.0374 169.507 31.0374H168.907L168.899 29.5458L169.203 29.5232C169.4 29.5081 169.571 29.4604 169.715 29.38C169.859 29.2947 169.981 29.1741 170.083 29.0184C170.189 28.8628 170.274 28.6619 170.338 28.4158C170.408 28.1697 170.461 27.8784 170.498 27.5419C170.541 27.2054 170.573 26.8137 170.594 26.3667L170.754 22.8863Z" fill="#C1C4CA"/>
<path d="M180.439 25.4778H182.99C183.737 25.4778 184.371 25.5958 184.894 25.8318C185.416 26.0679 185.813 26.3968 186.085 26.8187C186.362 27.2356 186.501 27.7127 186.501 28.25C186.501 28.6468 186.424 29.0159 186.269 29.3575C186.115 29.6939 185.885 29.9877 185.581 30.2389C185.283 30.49 184.915 30.6858 184.478 30.8265C184.046 30.9671 183.55 31.0374 182.99 31.0374H179.16V22.8863H181.095V29.5985H182.99C183.374 29.5985 183.681 29.5357 183.91 29.4102C184.139 29.2846 184.304 29.1214 184.406 28.9205C184.512 28.7196 184.566 28.5062 184.566 28.2802C184.566 28.0492 184.512 27.8307 184.406 27.6248C184.304 27.4189 184.139 27.2506 183.91 27.12C183.681 26.9895 183.374 26.9242 182.99 26.9242H180.439V25.4778Z" fill="#C1C4CA"/>
<path d="M191.259 22.8863V31.0374H189.324V22.8863H191.259ZM194.099 22.8863V24.3176H186.533V22.8863H194.099Z" fill="#C1C4CA"/>
<path d="M198.609 31.1881C197.969 31.1881 197.391 31.0901 196.874 30.8943C196.362 30.6934 195.925 30.4146 195.562 30.0581C195.205 29.7015 194.93 29.2821 194.738 28.8C194.546 28.3178 194.45 27.798 194.45 27.2406V26.9392C194.45 26.3014 194.549 25.7239 194.746 25.2066C194.944 24.6893 195.218 24.2473 195.57 23.8807C195.922 23.5091 196.338 23.2253 196.818 23.0294C197.297 22.8336 197.817 22.7356 198.377 22.7356C198.996 22.7356 199.537 22.8336 200.001 23.0294C200.464 23.2253 200.848 23.5015 201.152 23.8581C201.461 24.2097 201.691 24.629 201.84 25.1162C201.995 25.6033 202.072 26.1407 202.072 26.7283V27.5042H195.386V26.201H200.169V26.0578C200.158 25.7314 200.089 25.425 199.961 25.1388C199.838 24.8525 199.649 24.6215 199.393 24.4457C199.137 24.2699 198.796 24.182 198.369 24.182C198.049 24.182 197.764 24.2473 197.513 24.3779C197.268 24.5035 197.063 24.6868 196.898 24.9278C196.732 25.1689 196.604 25.4602 196.514 25.8017C196.428 26.1382 196.386 26.5174 196.386 26.9392V27.2406C196.386 27.5972 196.436 27.9286 196.538 28.235C196.644 28.5363 196.799 28.8 197.002 29.026C197.204 29.252 197.449 29.4303 197.737 29.5609C198.025 29.6864 198.353 29.7492 198.721 29.7492C199.185 29.7492 199.598 29.6613 199.961 29.4855C200.323 29.3097 200.638 29.0611 200.904 28.7397L201.92 29.6663C201.733 29.9225 201.491 30.1685 201.192 30.4046C200.894 30.6356 200.528 30.8239 200.097 30.9696C199.67 31.1152 199.174 31.1881 198.609 31.1881Z" fill="#C1C4CA"/>
<path d="M207.494 22.8863V31.0374H205.559V22.8863H207.494ZM210.333 22.8863V24.3176H202.768V22.8863H210.333Z" fill="#C1C4CA"/>
<path d="M116.701 19.6168H115.475V80.9195H116.701V19.6168Z" fill="white"/>
<path d="M6.76899 49.8211C6.76899 50.5062 7.33315 51.0703 8.0182 51.0703C8.70326 51.0703 9.26743 50.5062 9.26743 49.8211C9.26743 49.1361 8.70326 48.5719 8.0182 48.5719C7.31972 48.5719 6.76899 49.1226 6.76899 49.8211Z" fill="white"/>
<path d="M51.5 0C23.1038 0 0 23.1038 0 51.5C0 79.8962 23.1038 103 51.5 103C79.8962 103 103 79.8962 103 51.5C103 23.1038 79.8962 0 51.5 0ZM51.5 101.657C23.8426 101.657 1.34324 79.1574 1.34324 51.5C1.34324 23.8426 23.8426 1.34324 51.5 1.34324C79.1574 1.34324 101.657 23.8426 101.657 51.5C101.657 79.1574 79.1574 101.657 51.5 101.657Z" fill="white"/>
<path d="M14.9085 51.4597C14.9085 71.6621 31.3498 88.1034 51.5522 88.1034C71.7546 88.1034 88.1959 71.6621 88.1959 51.4597C88.1959 31.2573 71.7546 14.816 51.5522 14.816C31.3498 14.816 14.9085 31.2573 14.9085 51.4597ZM51.5522 16.2935C70.9352 16.2935 86.7184 32.0632 86.7184 51.4597C86.7184 70.8561 70.9487 86.6258 51.5522 86.6258C32.1558 86.6258 16.3861 70.8561 16.3861 51.4597C16.3861 32.0632 32.1558 16.2935 51.5522 16.2935Z" fill="white"/>
<path d="M11.6043 43.4405C11.6446 43.1718 11.6581 42.9166 11.6312 42.6748C11.6043 42.433 11.5372 42.2181 11.4431 42.0435C11.3491 41.8554 11.2148 41.7077 11.0536 41.5868C10.8924 41.4659 10.7044 41.3853 10.4894 41.345C10.3417 41.3181 10.1939 41.3181 10.0462 41.345C9.89841 41.3719 9.77752 41.439 9.65663 41.5196C9.53574 41.6002 9.42827 41.7211 9.33424 41.8554C9.24022 42.0032 9.15962 42.1643 9.10589 42.3658H9.09247C9.0656 42.03 8.95814 41.7614 8.79695 41.5599C8.63576 41.3584 8.42084 41.2375 8.13876 41.1838C7.78951 41.13 7.494 41.2241 7.23879 41.4659C6.997 41.7211 6.82237 42.1241 6.72835 42.6748L6.4194 44.4613L11.2685 45.2941L11.6043 43.4405ZM8.67607 43.3061L8.6089 43.7225L7.38654 43.5076L7.46713 43.0778C7.52086 42.7957 7.58803 42.5942 7.68206 42.4733C7.77609 42.3524 7.93727 42.3121 8.13876 42.3524C8.36711 42.3927 8.5283 42.5002 8.62233 42.6614C8.70292 42.8091 8.71636 43.0375 8.67607 43.3061ZM10.8252 43.4942L10.7312 44.0718L9.36111 43.8434L9.45515 43.3196C9.50888 42.9972 9.60289 42.7554 9.75065 42.6211C9.88497 42.4733 10.073 42.433 10.3148 42.4733C10.5566 42.5136 10.7178 42.6211 10.7984 42.7957C10.8656 42.9703 10.879 43.1986 10.8252 43.4942Z" fill="white"/>
<path d="M12.3984 39.8406L10.1149 36.8183C10.0343 36.7109 9.9671 36.6169 9.89994 36.5363C9.83278 36.4557 9.77906 36.4019 9.73876 36.3616V36.3482C9.80592 36.3751 9.89996 36.4154 10.0209 36.4557C10.1417 36.496 10.2895 36.5497 10.4507 36.59L13.1506 37.4228L13.4461 36.4422L8.74475 35.005L8.39551 36.1333L10.6522 39.1153C10.7328 39.2228 10.7999 39.3168 10.8537 39.3839C10.9074 39.4511 10.9611 39.5049 11.0014 39.5452V39.5586C10.9477 39.5317 10.8537 39.4914 10.7462 39.4511C10.6387 39.4108 10.491 39.3705 10.3298 39.3168L7.67017 38.4974L7.37465 39.4645L12.076 40.9153L12.3984 39.8406Z" fill="white"/>
<path d="M11.5793 30.5856L10.8136 30.2498L9.13457 33.9974L9.90021 34.3332L10.5181 32.9631L14.2389 34.6288L14.6956 33.6213L10.9614 31.9557L11.5793 30.5856Z" fill="white"/>
<path d="M17.1131 29.0811L16.4146 28.6781L15.434 30.3975L14.3325 29.7662L15.1788 28.2886L14.4803 27.8856L13.6341 29.3632L12.5729 28.7587L13.4997 27.1603L12.7878 26.7573L11.3237 29.3095L15.5952 31.7542L17.1131 29.0811Z" fill="white"/>
<path d="M18.644 26.8916C18.8186 26.6498 18.9395 26.4214 19.0201 26.1931C19.1007 25.9647 19.1275 25.7498 19.1141 25.5349C19.1007 25.3334 19.047 25.1319 18.9395 24.9573C18.832 24.7827 18.6843 24.6215 18.4962 24.4737C18.3216 24.3529 18.1335 24.2722 17.9455 24.2319C17.7574 24.1916 17.5694 24.2051 17.3813 24.2588C17.1933 24.3126 17.0052 24.4066 16.8172 24.5409C16.6291 24.6752 16.4545 24.8633 16.2933 25.0916L15.7829 25.8035L14.856 25.1319L16.0918 23.426L15.4336 22.9559L13.5665 25.5618L17.556 28.4363L18.644 26.8916ZM16.7903 25.723C16.9918 25.4543 17.1798 25.2797 17.3545 25.226C17.5291 25.1588 17.7306 25.2125 17.9321 25.3603C18.147 25.508 18.241 25.6826 18.241 25.8841C18.241 26.0856 18.1335 26.314 17.9455 26.5826L17.5694 27.1065L16.4142 26.2737L16.7903 25.723Z" fill="white"/>
<path d="M18.1866 23.5604C18.4552 23.8021 18.7507 23.9902 19.0462 24.0977C19.3552 24.2051 19.6507 24.2588 19.9596 24.232C20.2686 24.2051 20.5641 24.1245 20.8731 23.9634C21.1686 23.8022 21.4506 23.5738 21.7193 23.2783C22.1357 22.8216 22.4043 22.3783 22.5387 21.9619L21.8805 21.3709C21.7865 21.7873 21.585 22.1768 21.2626 22.5395C21.088 22.7276 20.8999 22.8753 20.7118 22.9828C20.5238 23.0902 20.3223 23.1439 20.1208 23.1439C19.9193 23.1574 19.7179 23.1171 19.5029 23.0365C19.288 22.9559 19.1 22.835 18.9119 22.6604C18.7104 22.4858 18.5627 22.2843 18.4552 22.0828C18.3477 21.8813 18.294 21.6664 18.2806 21.4515C18.2671 21.2366 18.3074 21.0216 18.388 20.8067C18.4686 20.5918 18.6029 20.3769 18.7776 20.1888C19.0731 19.8665 19.4089 19.6381 19.7985 19.5038L19.1 18.8724C18.7776 19.0471 18.4283 19.3291 18.0791 19.7187C17.797 20.0276 17.5955 20.35 17.4612 20.6858C17.3269 21.0216 17.2597 21.3709 17.2731 21.7067C17.2866 22.0425 17.3672 22.3783 17.5149 22.6873C17.6761 23.0096 17.9045 23.2917 18.1866 23.5604Z" fill="white"/>
<path d="M24.0571 20.8473L22.4587 19.0474L22.4721 19.0339C22.5258 19.0608 22.5796 19.0742 22.6467 19.0877C22.7005 19.1011 22.7542 19.1145 22.7811 19.128L25.387 19.6921L26.3675 18.819L23.2109 18.2011L22.996 15.246L22.0826 16.0519L22.3109 18.5772C22.3109 18.631 22.3244 18.6847 22.3378 18.7518C22.3512 18.8056 22.3512 18.8593 22.3647 18.8996L22.3512 18.913L20.8199 17.1802L20.0005 17.9056L23.2646 21.5861L24.0571 20.8473Z" fill="white"/>
<path d="M27.537 17.9859L27.6445 14.1979C27.6445 14.0636 27.6445 13.9427 27.6445 13.8352C27.6445 13.7278 27.6311 13.6472 27.6311 13.5935L27.6445 13.58C27.6713 13.6472 27.7251 13.7278 27.7922 13.8352C27.8594 13.9427 27.94 14.0636 28.034 14.2113L29.6325 16.5486L30.4787 15.971L27.7116 11.9144L26.7445 12.5726L26.6505 16.3068C26.6505 16.4411 26.6505 16.562 26.6505 16.6426C26.6505 16.7232 26.6505 16.8038 26.6639 16.8575L26.6505 16.871C26.6236 16.8172 26.5699 16.7366 26.5162 16.6292C26.449 16.5217 26.3684 16.4008 26.2744 16.2665L24.7162 13.9696L23.87 14.5472L26.637 18.6037L27.537 17.9859Z" fill="white"/>
<path d="M31.7127 13.5131C31.6992 13.5937 31.6992 13.6743 31.6992 13.7281H31.6858C31.6589 13.6743 31.6321 13.5803 31.5783 13.4728C31.5246 13.3654 31.4709 13.2311 31.3903 13.0833L30.1679 10.5848L29.2545 11.0281L31.4171 15.4474L32.4112 14.9638L33.0559 11.2296C33.0828 11.0953 33.0962 10.9878 33.1096 10.8804C33.1231 10.7729 33.1231 10.6923 33.1231 10.6386L33.1365 10.6251C33.1634 10.6923 33.1902 10.7863 33.244 10.8938C33.2977 11.0147 33.3649 11.149 33.432 11.2968L34.6812 13.8355L35.5946 13.3923L33.432 8.97297L32.3709 9.48341L31.7395 13.1773C31.7395 13.3117 31.7127 13.4326 31.7127 13.5131Z" fill="white"/>
<path d="M29.9943 9.46997C30.3167 9.564 30.6525 9.52372 31.0152 9.36253C31.351 9.20134 31.5927 8.95953 31.7271 8.62372C31.8614 8.30134 31.8614 7.96552 31.7271 7.60284L31.1629 7.87151C31.2301 8.073 31.2166 8.24762 31.1495 8.42224C31.0823 8.59686 30.948 8.71777 30.7734 8.8118C30.357 9.01328 30.0212 8.93267 29.7928 8.54313L29.2286 8.8118C29.4167 9.16104 29.6719 9.37595 29.9943 9.46997Z" fill="white"/>
<path d="M39.9205 11.9415L38.7922 8.00584L40.6593 7.46855L40.4309 6.67604L37.5161 7.52225L38.8728 12.237L39.9205 11.9415Z" fill="white"/>
<path d="M41.7082 9.9667C41.8828 10.2488 42.0977 10.4772 42.3529 10.6518C42.6081 10.8264 42.9037 10.9473 43.226 11.0144C43.5484 11.0816 43.8977 11.0816 44.2738 11.0144C44.6499 10.9473 44.9857 10.8264 45.2812 10.6518C45.5767 10.4772 45.8051 10.2622 45.9931 10.007C46.1812 9.75178 46.3021 9.44286 46.3692 9.10705C46.4364 8.77124 46.4364 8.40857 46.3692 8.01902C46.3021 7.66978 46.1946 7.34737 46.0334 7.06529C45.8722 6.78321 45.6573 6.55487 45.4021 6.36682C45.1469 6.17876 44.8648 6.05787 44.5424 5.99071C44.22 5.92355 43.8708 5.9101 43.5081 5.97727C43.1051 6.04443 42.7559 6.16532 42.4604 6.35337C42.1649 6.528 41.9231 6.75635 41.735 7.025C41.547 7.29365 41.4261 7.58918 41.3589 7.92499C41.2918 8.2608 41.2918 8.61005 41.3589 8.98616C41.4261 9.3757 41.5335 9.68462 41.7082 9.9667ZM42.6484 7.48169C42.7425 7.30707 42.8768 7.17275 43.038 7.06529C43.1992 6.95783 43.3872 6.87726 43.6021 6.83696C43.8305 6.79667 44.032 6.79664 44.2066 6.85037C44.3947 6.89067 44.5558 6.9847 44.6902 7.10559C44.8245 7.22648 44.9454 7.40109 45.0394 7.60258C45.1334 7.80407 45.2006 8.03245 45.2543 8.3011C45.2946 8.56974 45.3081 8.79809 45.2812 9.01301C45.2543 9.22793 45.2006 9.41596 45.1066 9.57715C45.0125 9.73834 44.8917 9.87269 44.7305 9.98015C44.5693 10.0876 44.3812 10.1548 44.1529 10.1951C43.9379 10.2354 43.7499 10.2219 43.5619 10.1816C43.3738 10.1279 43.2126 10.0473 43.0783 9.91296C42.9305 9.79207 42.8096 9.6309 42.7156 9.42942C42.6216 9.22793 42.541 9.01301 42.5007 8.75779C42.4604 8.50258 42.4469 8.27423 42.4738 8.04588C42.5007 7.81752 42.5544 7.64288 42.6484 7.48169Z" fill="white"/>
<path d="M47.7782 9.8862C48.0065 10.0877 48.2886 10.2354 48.611 10.3429C48.9334 10.4369 49.296 10.4907 49.699 10.4638C50.3169 10.4369 50.8139 10.3161 51.2169 10.1146L51.1766 9.22802C50.8139 9.45638 50.3975 9.5907 49.9139 9.60413C49.6587 9.61756 49.4169 9.5907 49.2155 9.52354C49.0005 9.45638 48.8259 9.3489 48.6782 9.21458C48.5304 9.08025 48.4095 8.90563 48.3289 8.70414C48.2483 8.50265 48.1946 8.27433 48.1811 8.01911C48.1677 7.75046 48.1946 7.50867 48.2752 7.29375C48.3423 7.07883 48.4498 6.89076 48.5976 6.72957C48.7453 6.56838 48.9199 6.44749 49.1349 6.35346C49.3498 6.25943 49.5916 6.20571 49.8602 6.19228C50.3035 6.16541 50.7065 6.246 51.0691 6.43405L51.0288 5.4938C50.6796 5.38634 50.2363 5.33261 49.7124 5.35947C49.296 5.3729 48.9199 5.46692 48.5841 5.60125C48.2483 5.749 47.9662 5.93705 47.7379 6.17883C47.4961 6.42062 47.3215 6.70272 47.2006 7.03853C47.0797 7.37434 47.026 7.72358 47.0528 8.12655C47.0663 8.48923 47.1469 8.82503 47.2812 9.12054C47.3618 9.44292 47.5498 9.68471 47.7782 9.8862Z" fill="white"/>
<path d="M52.4395 10.4505C52.7082 10.4639 52.9365 10.4505 53.1246 10.3968C53.3126 10.343 53.5007 10.249 53.6619 10.1281C53.823 10.0072 53.9708 9.84604 54.1186 9.65799C54.2663 9.46993 54.4006 9.24158 54.5618 8.98637L56.4693 5.6954L55.3141 5.62825L54.3201 7.50879C54.2663 7.61625 54.1992 7.73713 54.1454 7.83115C54.0917 7.93861 54.038 8.04606 53.9842 8.15352C53.9708 8.08636 53.9574 8.01922 53.9305 7.96549C53.9037 7.91176 53.8902 7.84459 53.8768 7.79086L52.9231 5.49392L51.741 5.41333L53.3529 8.97292C53.2723 9.10725 53.1783 9.2147 53.0977 9.30873C53.0171 9.40276 52.9365 9.46991 52.8425 9.51021C52.7619 9.56394 52.6813 9.59079 52.6007 9.61765C52.5201 9.63108 52.4395 9.64453 52.3589 9.6311C52.1306 9.61767 51.9156 9.53707 51.7142 9.41617L51.6604 10.3162C51.7545 10.3565 51.8485 10.3967 51.9694 10.4236C52.1037 10.4236 52.2515 10.4371 52.4395 10.4505Z" fill="white"/>
<path d="M55.4761 9.68475L55.1 11.7937L56.0805 11.9682L56.3089 10.6519L59.7207 11.2563L59.4924 12.5593L60.473 12.7339L60.7013 11.4444L61.7356 11.7668L62.4475 10.7862L64.2206 11.337L64.2743 12.5459L65.4161 12.8951L65.0669 7.64303L63.8848 7.28033L60.7416 11.2429L60.8491 10.625L60.1103 10.4907L60.8222 6.44753L57.8939 5.93709C57.8133 6.29976 57.7059 6.64902 57.5715 6.99826C57.4372 7.3475 57.2895 7.68332 57.1283 8.00569C56.9536 8.32807 56.779 8.63702 56.5775 8.93254C56.3761 9.22805 56.1611 9.49668 55.9462 9.7519L55.4761 9.68475ZM63.8982 8.7982C63.952 8.71761 64.0057 8.63702 64.0594 8.55643C64.1132 8.47584 64.1534 8.40867 64.1803 8.34151L64.2072 8.35495C64.1937 8.42211 64.1803 8.5161 64.1803 8.61013C64.1803 8.70416 64.1803 8.7982 64.1803 8.8788L64.234 10.531L62.958 10.1414L63.8982 8.7982ZM57.5581 9.28175C57.7193 9.02654 57.8805 8.75789 58.0282 8.48924C58.176 8.22059 58.3103 7.93853 58.4178 7.66988C58.5253 7.40123 58.6193 7.14602 58.673 6.91767L59.5998 7.07885L59.0357 10.3161L57.0746 9.96682C57.2357 9.76533 57.3969 9.53697 57.5581 9.28175Z" fill="white"/>
<path d="M67.445 11.9413L67.9689 12.1697C68.251 12.2906 68.5062 12.3577 68.7748 12.3846C69.0301 12.4115 69.2718 12.3846 69.4868 12.3309C69.7017 12.2771 69.9032 12.1563 70.0644 12.0085C70.2256 11.8607 70.3733 11.6727 70.4673 11.4443C70.6688 10.9876 70.6688 10.5712 70.4673 10.2085C70.2659 9.83241 69.8763 9.52349 69.2853 9.26827L67.7137 8.5832L65.7391 13.0831L66.7465 13.5263L67.445 11.9413ZM68.4122 9.73841L68.842 9.92645C69.1375 10.0608 69.3256 10.2085 69.4196 10.3831C69.5136 10.5578 69.5002 10.7727 69.3927 11.0279C69.2719 11.2966 69.1107 11.4577 68.9092 11.5249C68.7077 11.5921 68.4525 11.5518 68.1435 11.4175L67.7405 11.2428L68.4122 9.73841Z" fill="white"/>
<path d="M70.2388 13.6338C70.1851 13.9562 70.2119 14.2651 70.2925 14.5606C70.3731 14.8561 70.5209 15.1382 70.7492 15.3934C70.9641 15.6486 71.2462 15.8904 71.5955 16.0785C72.1328 16.3874 72.6163 16.562 73.0462 16.6023L73.4895 15.8367C73.0596 15.8367 72.6432 15.7158 72.2134 15.474C71.985 15.3397 71.8104 15.192 71.6626 15.0308C71.5283 14.8561 71.4343 14.6815 71.3806 14.48C71.3268 14.2785 71.3268 14.077 71.3537 13.8621C71.394 13.6472 71.4746 13.4323 71.5955 13.2039C71.7298 12.9756 71.8776 12.7875 72.0656 12.6397C72.2402 12.492 72.4417 12.398 72.6432 12.3443C72.8447 12.2905 73.0731 12.2771 73.3014 12.3174C73.5298 12.3577 73.7581 12.4383 73.9865 12.5726C74.3626 12.801 74.6581 13.0831 74.873 13.4323L75.3431 12.6129C75.1013 12.3308 74.7655 12.0488 74.3088 11.7935C73.9462 11.5786 73.5835 11.4443 73.2342 11.3905C72.8716 11.3234 72.5357 11.3368 72.1999 11.4174C71.8641 11.498 71.5686 11.6458 71.2865 11.8472C71.0045 12.0487 70.7761 12.3308 70.5746 12.6801C70.4134 13.0025 70.2925 13.3248 70.2388 13.6338Z" fill="white"/>
<path d="M79.2788 15.2997L75.9744 12.8818L75.4774 13.5535L76.6863 14.44L74.2819 17.7309L75.1685 18.3891L77.5729 15.0847L78.7952 15.9713L79.2788 15.2997Z" fill="white"/>
<path d="M78.2037 20.9007C78.4052 21.0888 78.6201 21.2365 78.835 21.344C79.0499 21.4514 79.2649 21.5052 79.4663 21.532C79.6678 21.5455 79.8693 21.5186 80.0574 21.4515C80.2454 21.3843 80.4066 21.2634 80.5544 21.1022C80.6618 20.9947 80.729 20.8604 80.7827 20.7261C80.8364 20.5918 80.8499 20.444 80.8499 20.2962C80.8364 20.1485 80.8096 20.0007 80.729 19.8395C80.6618 19.6784 80.5544 19.5306 80.42 19.3828L80.4335 19.3694C80.729 19.5172 81.0111 19.5843 81.2797 19.5575C81.5349 19.5306 81.7633 19.4097 81.9513 19.2082C82.1931 18.9396 82.2737 18.6441 82.1931 18.2948C82.1125 17.9456 81.8708 17.5963 81.4543 17.2068L80.1111 15.9978L76.8067 19.6381L78.2037 20.9007ZM80.42 17.3008L80.7424 17.5963C80.9573 17.7844 81.0917 17.959 81.132 18.1067C81.1857 18.2545 81.132 18.4023 80.9976 18.55C80.8364 18.7247 80.6618 18.8052 80.4872 18.7918C80.2991 18.7784 80.1111 18.6844 79.9096 18.4963L79.6007 18.2142L80.42 17.3008ZM79.4529 19.1411C79.6947 19.3694 79.8424 19.5709 79.8962 19.7724C79.9365 19.9604 79.8828 20.1485 79.7216 20.3365C79.5604 20.5246 79.3857 20.5918 79.1977 20.5649C79.0096 20.538 78.8081 20.4171 78.5798 20.2291L78.1365 19.8395L79.0768 18.8053L79.4529 19.1411Z" fill="white"/>
<path d="M82.1542 25.0246L82.7586 24.4873L81.4423 23.0097L82.3825 22.1769L83.5108 23.4395L84.1288 22.8888L82.987 21.6261L83.887 20.8202L85.1227 22.1903L85.7272 21.653L83.7661 19.4501L80.099 22.7276L82.1542 25.0246Z" fill="white"/>
<path d="M86.6394 22.741L82.6231 25.5753L83.2544 26.4752L84.9872 25.2529L86.2633 27.0663L84.5305 28.2752L85.1619 29.1886L89.1781 26.3544L88.5468 25.4544L86.9484 26.5827L85.6723 24.7693L87.2707 23.641L86.6394 22.741Z" fill="white"/>
<path d="M86.2354 31.0826L88.116 30.1155L89.1369 32.0766L87.2563 33.0572L87.7533 34.0243L92.1189 31.7677L91.6219 30.7871L89.8756 31.6871L88.8548 29.7259L90.601 28.826L90.0906 27.8454L85.725 30.1021L86.2354 31.0826Z" fill="white"/>
<path d="M94.2905 37.583L89.6343 39.1606L89.9877 40.2038L94.6439 38.6262L94.2905 37.583Z" fill="white"/>
<path d="M88.8166 36.7781C88.9107 37.0467 89.0315 37.2885 89.1659 37.4766C89.3136 37.6781 89.4748 37.8258 89.6494 37.9333C89.8241 38.0407 90.0255 38.1079 90.227 38.1348C90.4285 38.1616 90.6434 38.1348 90.8718 38.0542C91.0733 37.987 91.2479 37.8795 91.3822 37.7452C91.5165 37.6109 91.624 37.4497 91.6912 37.2617C91.7583 37.0736 91.7852 36.8721 91.7852 36.6438C91.7718 36.4154 91.7315 36.1602 91.6374 35.8916L91.3554 35.0587L93.209 34.4274L92.8598 33.3931L88.1987 34.9647L88.8166 36.7781ZM90.6434 35.3274L90.8584 35.9453C90.9658 36.2542 90.9927 36.496 90.9389 36.6841C90.8852 36.8721 90.7375 37.0064 90.4957 37.087C90.2539 37.1676 90.0524 37.1542 89.8912 37.0333C89.73 36.9124 89.5957 36.6975 89.5017 36.3885L89.3002 35.7841L90.6434 35.3274Z" fill="white"/>
<path d="M90.3994 42.3121L93.8113 43.9778C93.9322 44.0315 94.0396 44.0852 94.1337 44.1255C94.2277 44.1658 94.3083 44.1927 94.362 44.2061V44.2195C94.2949 44.2195 94.1874 44.233 94.0665 44.2464C93.9456 44.2599 93.7979 44.2867 93.6232 44.3136L90.8427 44.7971L91.0173 45.8045L95.853 44.9583L95.6516 43.8031L92.28 42.1778C92.1591 42.1241 92.0516 42.0703 91.971 42.0435C91.8904 42.0166 91.8233 41.9898 91.7696 41.9629V41.9494C91.8367 41.9494 91.9307 41.936 92.0516 41.9226C92.1725 41.9092 92.3203 41.8823 92.4815 41.8554L95.2217 41.3719L95.0471 40.3644L90.2114 41.2107L90.3994 42.3121Z" fill="white"/>
<path d="M96.674 43.4271C96.9427 43.6421 97.2785 43.7361 97.6546 43.7092L97.5471 43.0913C97.3457 43.0913 97.171 43.0376 97.0233 42.9167C96.8755 42.7958 96.7949 42.648 96.7546 42.4466C96.674 41.9899 96.8487 41.6944 97.2785 41.5869L97.171 40.969C96.7949 41.0496 96.5263 41.2376 96.3382 41.5197C96.1502 41.8018 96.0965 42.1376 96.1636 42.5272C96.2308 42.9033 96.392 43.1988 96.674 43.4271Z" fill="white"/>
<path d="M10.3561 54.0118L6.28608 54.1998L6.32638 55.3013L10.4098 55.1133L10.477 56.6177L11.3098 56.5774L11.1218 52.4671L10.2889 52.5074L10.3561 54.0118Z" fill="white"/>
<path d="M7.50859 58.8611L8.75782 58.6731L8.99959 60.3656L9.80555 60.2446L9.56376 58.5656L10.7592 58.391L11.0279 60.2178L11.8338 60.0969L11.404 57.182L6.54145 57.894L6.98473 60.9297L7.79068 60.8088L7.50859 58.8611Z" fill="white"/>
<path d="M13.0025 64.8923L12.707 63.7102L11.1354 63.2401C11.0548 63.2132 10.9876 63.1998 10.9205 63.1863C10.8533 63.1729 10.7861 63.1595 10.7055 63.1595V63.146C10.8264 63.0654 10.9339 62.9714 11.0279 62.8774L12.1965 61.7491L11.8742 60.473L9.91303 62.5685L7.07878 61.5476L7.40115 62.7968L9.14737 63.3072C9.21453 63.3207 9.28169 63.3341 9.33542 63.3475C9.38915 63.361 9.42946 63.361 9.46976 63.361V63.3744C9.41603 63.4147 9.3623 63.4416 9.322 63.4818C9.2817 63.5087 9.24141 63.549 9.20111 63.5893L7.93846 64.8788L8.26084 66.1281L10.2354 63.9386L13.0025 64.8923Z" fill="white"/>
<path d="M14.4005 68.4922L12.5737 69.2176L11.7678 67.149L13.5812 66.4371L13.1782 65.4028L8.61116 67.2027L9.01414 68.237L10.9753 67.458L11.7946 69.5265L9.82007 70.2922L10.2231 71.3265L14.8035 69.5265L14.4005 68.4922Z" fill="white"/>
<path d="M14.4818 76.2021C14.8176 76.1484 15.1668 76.0275 15.5161 75.8395C15.825 75.6649 16.0937 75.4499 16.2951 75.1947C16.4966 74.9395 16.6444 74.6709 16.7384 74.3753C16.8324 74.0798 16.8459 73.7709 16.8056 73.4351C16.7653 73.0992 16.6578 72.7769 16.4698 72.4545C16.2683 72.1053 16.0399 71.8097 15.7713 71.5948C15.5026 71.3799 15.2071 71.2187 14.8982 71.1381C14.5892 71.0575 14.2668 71.0306 13.931 71.0844C13.5952 71.1381 13.2594 71.259 12.9236 71.4471C12.6012 71.6217 12.346 71.8366 12.1311 72.1053C11.9162 72.3739 11.7818 72.6425 11.7013 72.9381C11.6207 73.2336 11.5938 73.556 11.6475 73.8783C11.7012 74.2142 11.8087 74.5365 11.9968 74.8723C12.1848 75.2081 12.3997 75.4768 12.6684 75.6917C12.9236 75.9066 13.2057 76.0544 13.5146 76.1484C13.8101 76.229 14.1325 76.2559 14.4818 76.2021ZM13.1116 74.9395C12.9639 74.8186 12.8296 74.6709 12.7087 74.4694C12.6012 74.2813 12.5475 74.0933 12.5341 73.9052C12.5206 73.7171 12.5475 73.5291 12.6146 73.3545C12.6818 73.1798 12.8027 73.0187 12.9505 72.8575C13.0982 72.6963 13.2863 72.5619 13.5146 72.4276C13.743 72.3067 13.9579 72.2127 14.1728 72.1724C14.3877 72.1187 14.5892 72.1187 14.7773 72.159C14.9653 72.1859 15.1399 72.2664 15.3011 72.3739C15.4623 72.4813 15.5967 72.6426 15.7041 72.8306C15.8116 73.0321 15.8787 73.2202 15.8922 73.4082C15.9056 73.5963 15.8787 73.7709 15.8116 73.9455C15.7444 74.1201 15.6235 74.2813 15.4623 74.4425C15.3011 74.6037 15.1131 74.738 14.8713 74.8723C14.643 75.0067 14.4146 75.0873 14.2131 75.141C13.9982 75.1947 13.7967 75.1947 13.6221 75.1678C13.434 75.141 13.2728 75.0604 13.1116 74.9395Z" fill="white"/>
<path d="M18.6458 76.0814C18.4175 76.2023 18.1891 76.3232 17.9876 76.4441C17.7727 76.5515 17.5713 76.659 17.3698 76.7665C17.1683 76.8739 16.9668 76.968 16.7653 77.062C16.5638 77.156 16.3758 77.25 16.1743 77.3441C15.9191 77.465 15.7041 77.5455 15.5295 77.6261C15.3549 77.6933 15.1937 77.7336 15.0728 77.7605C14.9519 77.7739 14.8444 77.7739 14.7504 77.747C14.6698 77.7067 14.5892 77.653 14.5221 77.559C14.4415 77.4515 14.3878 77.3306 14.3475 77.1829L13.6893 77.6664C13.7564 77.8545 13.8639 78.0291 13.9982 78.2172C14.1594 78.4321 14.334 78.5933 14.5221 78.6739C14.7101 78.7679 14.8982 78.8082 15.0862 78.8082C15.2743 78.8082 15.4758 78.7679 15.6773 78.7008C15.8788 78.6336 16.0802 78.5396 16.2952 78.4455C16.4429 78.3784 16.5907 78.3112 16.7519 78.2306C16.9131 78.15 17.0877 78.0694 17.2623 77.9754C17.4369 77.8814 17.6384 77.7873 17.8533 77.6799C18.0548 77.5724 18.2832 77.4515 18.5384 77.3172L19.1563 78.1366L15.8922 80.5947L16.5504 81.4678L20.4727 78.5127L18.6458 76.0814Z" fill="white"/>
<path d="M23.3725 83.5901C23.5068 83.2946 23.574 82.9856 23.5874 82.6767C23.5874 82.3677 23.5337 82.0588 23.4128 81.7498C23.2919 81.4409 23.0904 81.1588 22.8218 80.8902C22.5397 80.5947 22.2307 80.3797 21.9218 80.2454C21.6128 80.1111 21.277 80.0305 20.9681 80.0305C20.6457 80.0305 20.3233 80.0976 20.0144 80.232C19.7054 80.3663 19.4099 80.5678 19.1413 80.8364C18.886 81.0917 18.6846 81.3737 18.5502 81.6693C18.4159 81.9648 18.3488 82.2737 18.3488 82.5826C18.3488 82.8916 18.4159 83.2005 18.5502 83.5095C18.6846 83.8184 18.886 84.1005 19.1413 84.3692C19.4099 84.6378 19.692 84.8527 20.0009 84.9871C20.3099 85.1214 20.6188 85.202 20.9412 85.202C21.2636 85.202 21.5725 85.1483 21.8949 85.0005C22.2173 84.8528 22.5128 84.6647 22.7949 84.3826C23.0367 84.1542 23.2382 83.8856 23.3725 83.5901ZM22.3919 83.0662C22.2845 83.2543 22.1233 83.4423 21.9352 83.6438C21.7472 83.8319 21.5591 83.9796 21.3711 84.0737C21.183 84.1811 20.9949 84.2349 20.8069 84.2483C20.6188 84.2617 20.4308 84.2348 20.2562 84.1677C20.0815 84.1005 19.9069 83.9796 19.7457 83.8185C19.598 83.6707 19.4905 83.4961 19.4234 83.3215C19.3562 83.1468 19.3428 82.9588 19.3562 82.7707C19.3831 82.5827 19.4368 82.3946 19.5442 82.2065C19.6517 82.0185 19.7994 81.8305 19.9741 81.6424C20.1621 81.4678 20.3502 81.32 20.5382 81.226C20.7263 81.1185 20.9278 81.0648 21.1158 81.0514C21.3039 81.0379 21.4919 81.0514 21.68 81.132C21.868 81.2126 22.0292 81.3066 22.1904 81.4678C22.3516 81.629 22.4591 81.8036 22.5262 81.9782C22.5934 82.1528 22.6068 82.3409 22.58 82.5155C22.5665 82.6901 22.4994 82.8782 22.3919 83.0662Z" fill="white"/>
<path d="M26.945 85.7124L27.4555 85.0676L25.0914 83.1602L22.0019 86.975L22.8616 87.6735L25.4406 84.49L26.945 85.7124Z" fill="white"/>
<path d="M30.8548 87.2976L27.3892 88.6946C27.2549 88.7484 27.1608 88.7886 27.0802 88.8289C26.9996 88.8692 26.9459 88.8961 26.8922 88.923H26.8787C26.919 88.8692 26.9728 88.8021 27.0399 88.6946C27.1071 88.5872 27.1877 88.4797 27.2817 88.3319L28.7727 85.9812L27.913 85.4305L25.2803 89.5812L26.2206 90.1722L29.7533 88.7752C29.8742 88.7215 29.9816 88.6812 30.0757 88.6409C30.1697 88.6006 30.2369 88.5603 30.2906 88.5334L30.304 88.5469C30.2637 88.6006 30.1966 88.6812 30.1294 88.7886C30.0622 88.8961 29.9816 89.017 29.8876 89.1647L28.3697 91.5557L29.2294 92.1064L31.8622 87.9558L30.8548 87.2976Z" fill="white"/>
<path d="M35.4622 89.6482L34.5757 91.5691C34.3339 91.5825 34.119 91.5691 33.9175 91.5422C33.716 91.5154 33.5279 91.4616 33.3533 91.3811C33.125 91.2736 32.9906 91.1527 32.9369 90.9915C32.8832 90.8303 32.91 90.6423 33.0175 90.4005L33.7294 88.8423L32.7354 88.3856L31.9563 90.0781C31.7549 90.5079 31.728 90.884 31.8623 91.2064C31.9966 91.5288 32.2787 91.7974 32.722 91.9855C32.9638 92.0929 33.219 92.1735 33.4742 92.2138C33.7294 92.2541 33.9981 92.2676 34.2667 92.2542L33.4205 94.1078L34.4145 94.5645L36.4697 90.1049L35.4622 89.6482Z" fill="white"/>
<path d="M40.1103 92.2002L40.3655 91.4212L37.5582 90.4943L36.0269 95.1688L38.9417 96.1225L39.1835 95.3568L37.3164 94.739L37.7193 93.5435L39.3312 94.0673L39.5865 93.3017L37.9746 92.7644L38.3507 91.6226L40.1103 92.2002Z" fill="white"/>
<path d="M42.4875 92.0526C42.1248 92.1063 41.8025 92.2138 41.507 92.3884C41.2249 92.563 40.9696 92.7913 40.7682 93.0869C40.5667 93.3689 40.4323 93.7048 40.3383 94.0943C40.2577 94.457 40.2443 94.7928 40.298 95.1152C40.3517 95.4376 40.4592 95.7196 40.6338 95.9748C40.8084 96.2301 41.0368 96.445 41.3189 96.6331C41.601 96.8077 41.9368 96.942 42.3263 97.036C42.9308 97.1703 43.4547 97.1838 43.8711 97.0898L44.0591 96.2166C43.6561 96.3509 43.2129 96.3644 42.7293 96.2569C42.4741 96.2032 42.2592 96.1092 42.0711 95.9883C41.8831 95.8674 41.7353 95.7196 41.6278 95.545C41.5204 95.3704 41.4532 95.1823 41.4129 94.9674C41.386 94.7525 41.3995 94.5241 41.4532 94.2689C41.5069 94.0137 41.601 93.7854 41.7219 93.5973C41.8427 93.4092 42.004 93.2481 42.1786 93.1406C42.3532 93.0197 42.5681 92.9525 42.7965 92.9122C43.0248 92.8719 43.2666 92.8854 43.5352 92.9391C43.9651 93.0331 44.3277 93.2212 44.6367 93.4898L44.8382 92.563C44.5292 92.3615 44.1128 92.2138 43.6024 92.0929C43.2397 92.0123 42.8502 91.9988 42.4875 92.0526Z" fill="white"/>
<path d="M48.4507 92.8451L46.7582 94.7391C46.7179 94.7794 46.6776 94.8196 46.6508 94.8734C46.6239 94.9271 46.5836 94.9674 46.5702 94.9943H46.5567L46.7851 92.6839L45.6836 92.5764L45.1866 97.4659L46.2881 97.5733L46.5299 95.1689H46.5433C46.5702 95.2226 46.5836 95.2764 46.6105 95.3301C46.6373 95.3838 46.6642 95.4241 46.6776 95.451L48.0343 97.7345L49.3372 97.8688L47.6448 95.1286L49.6731 92.966L48.4507 92.8451Z" fill="white"/>
<path d="M53.6888 92.8853L51.5934 95.9882C51.5128 96.1091 51.4591 96.2031 51.4053 96.2703C51.365 96.3374 51.3247 96.4046 51.2979 96.4583H51.2844C51.2844 96.3912 51.2979 96.2971 51.2979 96.1762C51.2979 96.0553 51.2979 95.9076 51.2979 95.733L51.2173 92.9525L50.1964 92.9793L50.3442 97.8956L51.4456 97.8687L53.5814 94.739C53.662 94.6315 53.7157 94.5241 53.7694 94.4435C53.8232 94.3495 53.8635 94.2823 53.8769 94.2286H53.8903C53.8903 94.2957 53.8769 94.4032 53.8769 94.5241C53.8769 94.645 53.8769 94.8061 53.8769 94.9673L53.9575 97.8016L54.9784 97.7747L54.844 92.8584L53.6888 92.8853Z" fill="white"/>
<path d="M59.3832 92.1467L57.7444 95.5048C57.6907 95.6257 57.6369 95.7332 57.6101 95.8138C57.5832 95.8944 57.5563 95.9615 57.5295 96.0153H57.516C57.516 95.9481 57.5026 95.8541 57.4892 95.7332C57.4757 95.6123 57.4489 95.4645 57.422 95.3034L56.9519 92.5631L55.9445 92.7378L56.7773 97.5869L57.8653 97.3988L59.5443 93.987C59.5981 93.8661 59.6518 93.7586 59.6921 93.6646C59.7324 93.5706 59.7593 93.49 59.7727 93.4363H59.7861C59.7861 93.5034 59.7995 93.6109 59.813 93.7318C59.8264 93.8527 59.8533 94.0004 59.8801 94.175L60.3637 96.969L61.3711 96.7944L60.5383 91.9453L59.3832 92.1467Z" fill="white"/>
<path d="M58.0277 91.0451C57.5575 91.1257 57.2755 90.9511 57.168 90.5212L56.5501 90.6287C56.6307 91.0048 56.8187 91.2735 57.1008 91.4615C57.3829 91.6496 57.7187 91.7033 58.1083 91.6361C58.4844 91.569 58.7665 91.4078 58.9948 91.1257C59.2097 90.857 59.3038 90.5212 59.2769 90.1451L58.659 90.2526C58.659 90.4541 58.6053 90.6287 58.4844 90.7764C58.3769 90.9242 58.2157 91.0182 58.0277 91.0451Z" fill="white"/>
<path d="M66.692 92.0122C66.6786 92.1331 66.6786 92.2674 66.6652 92.3749C66.6652 92.4958 66.6517 92.6166 66.6517 92.7375C66.6114 92.6838 66.5711 92.6301 66.5308 92.5764C66.4905 92.5226 66.4502 92.4823 66.4099 92.442L64.5965 90.7361L63.4817 91.1525L66.4099 93.745C66.3831 93.9062 66.3562 94.0405 66.3159 94.148C66.2756 94.2554 66.2353 94.3629 66.1681 94.4435C66.1144 94.5241 66.0473 94.5912 65.9801 94.6315C65.9129 94.6852 65.8458 94.7255 65.7652 94.7524C65.5503 94.833 65.3219 94.8465 65.0936 94.8196L65.4025 95.6658C65.4965 95.6658 65.604 95.6524 65.7249 95.6255C65.8458 95.5987 65.9935 95.5584 66.1681 95.4912C66.4099 95.3972 66.6114 95.2897 66.7726 95.1554C66.9338 95.0211 67.0547 94.8733 67.1622 94.6853C67.2562 94.5106 67.3368 94.2957 67.3905 94.0674C67.4442 93.839 67.4845 93.5704 67.5114 93.2749L67.9009 89.5003L66.8263 89.9033L66.692 92.0122Z" fill="white"/>
<path d="M71.2049 87.7675L72.1049 89.4868L70.1437 90.5211L69.2303 88.7883L68.2632 89.3122L70.5601 93.6509L71.5273 93.1404L70.5467 91.2733L72.5078 90.239L73.4884 92.1061L74.469 91.5957L72.172 87.2436L71.2049 87.7675Z" fill="white"/>
<path d="M75.9598 84.6109L75.9732 88.3452C75.9732 88.4795 75.9732 88.6004 75.9732 88.681C75.9732 88.7616 75.9866 88.8287 75.9866 88.8959L75.9732 88.9093C75.9463 88.8556 75.8926 88.775 75.8254 88.6675C75.7583 88.5601 75.6777 88.4392 75.5837 88.3049L73.9583 86.0482L73.1389 86.6526L76.0135 90.6287L76.9135 89.9839V86.196C76.9135 86.0616 76.9135 85.9407 76.9 85.8467C76.8866 85.7392 76.8866 85.6587 76.8732 85.6049L76.8866 85.5915C76.9269 85.6587 76.9672 85.7392 77.0478 85.8467C77.115 85.9542 77.209 86.0751 77.303 86.2228L78.9552 88.5198L79.7746 87.9153L76.9 83.9393L75.9598 84.6109Z" fill="white"/>
<path d="M82.8771 83.1333C82.7696 83.0258 82.6487 82.9318 82.5278 82.8781C82.3935 82.8109 82.2592 82.784 82.1115 82.784C81.9637 82.784 81.8159 82.811 81.6547 82.8647C81.4936 82.9184 81.3324 83.0124 81.1712 83.1333L81.1577 83.1199C81.3324 82.8378 81.413 82.5557 81.3995 82.3005C81.3861 82.0319 81.2921 81.8035 81.104 81.602C80.8622 81.3468 80.5667 81.2393 80.2175 81.2931C79.8682 81.3468 79.4921 81.5617 79.0757 81.9512L77.7593 83.187L81.1174 86.7735L82.4875 85.484C82.689 85.2959 82.8502 85.0945 82.9711 84.893C83.092 84.6915 83.1726 84.4766 83.1995 84.2751C83.2263 84.0736 83.2263 83.8721 83.1726 83.684C83.1189 83.4691 83.0248 83.2945 82.8771 83.1333ZM79.922 83.8855L79.0757 82.9856L79.3981 82.6901C79.5996 82.4886 79.7876 82.3811 79.9354 82.3408C80.0831 82.3005 80.2309 82.3677 80.3786 82.5154C80.5398 82.69 80.607 82.8647 80.5801 83.0527C80.5533 83.2408 80.4458 83.4288 80.2443 83.6034L79.922 83.8855ZM81.8294 85.0541L81.3995 85.4571L80.4458 84.4363L80.8354 84.0736C81.0771 83.8452 81.2921 83.7109 81.4935 83.684C81.695 83.6572 81.8697 83.7244 82.0443 83.9124C82.2189 84.087 82.2726 84.2751 82.2323 84.4631C82.1786 84.6512 82.0443 84.8527 81.8294 85.0541Z" fill="white"/>
<path d="M84.8653 81.8169L83.9115 80.9975L85.013 79.708L84.3951 79.1707L83.2936 80.4736L82.3668 79.6811L83.5757 78.2707L82.9578 77.7468L81.037 79.9766L84.7578 83.187L86.7592 80.8632L86.1548 80.3259L84.8653 81.8169Z" fill="white"/>
<path d="M87.0838 77.4784C87.2584 77.2366 87.3793 76.9814 87.4599 76.7396C87.5405 76.4978 87.5673 76.256 87.5405 76.0277C87.527 75.7993 87.4599 75.5844 87.339 75.3963C87.2315 75.1949 87.0703 75.0337 86.8688 74.8994C86.4659 74.6173 86.0494 74.5367 85.6465 74.6576C85.2435 74.7785 84.854 75.1009 84.4913 75.6382L83.5107 77.0486L87.5405 79.8559L88.1718 78.956L86.7479 77.9754L87.0838 77.4784ZM86.3718 77.156L86.13 77.5187L84.7868 76.5784L85.0555 76.1889C85.2435 75.9202 85.4316 75.7725 85.6196 75.7053C85.8077 75.6516 86.0226 75.6919 86.2375 75.8531C86.4793 76.0143 86.6002 76.2158 86.6271 76.4307C86.6405 76.6456 86.5599 76.8874 86.3718 77.156Z" fill="white"/>
<path d="M90.803 73.2203C90.6821 73.4487 90.5343 73.6367 90.3731 73.7711C90.2119 73.9188 90.0239 74.0128 89.8358 74.0666C89.6343 74.1203 89.4328 74.1337 89.2179 74.1069C89.003 74.08 88.7747 73.9994 88.5598 73.8785C88.3314 73.7577 88.1299 73.5964 87.9821 73.4218C87.8344 73.2472 87.7269 73.0591 87.6732 72.8442C87.6195 72.6427 87.606 72.4278 87.6329 72.1861C87.6598 71.9577 87.7404 71.7294 87.8747 71.4876C88.0896 71.098 88.3583 70.8025 88.7075 70.5876L87.8881 70.1443C87.606 70.3861 87.3374 70.7353 87.0956 71.2055C86.8941 71.5681 86.7732 71.9308 86.7195 72.2935C86.6658 72.6562 86.6926 73.0054 86.7732 73.3278C86.8673 73.6502 87.015 73.9591 87.2299 74.2278C87.4449 74.4964 87.7269 74.7382 88.0762 74.9128C88.3986 75.0874 88.7209 75.1949 89.0433 75.2352C89.3657 75.2755 89.6746 75.2486 89.9567 75.1546C90.2522 75.0606 90.5209 74.8994 90.7761 74.6845C91.0313 74.4561 91.2597 74.174 91.4477 73.8248C91.7432 73.2741 91.9044 72.7905 91.9313 72.3472L91.1522 71.9174C91.1522 72.3606 91.0313 72.7905 90.803 73.2203Z" fill="white"/>
<path d="M89.3796 66.1549L91.4214 69.2847C91.502 69.4056 91.5557 69.4996 91.6094 69.5667C91.6631 69.6339 91.7034 69.6876 91.7437 69.7414V69.7548C91.69 69.7279 91.6094 69.6877 91.4885 69.6339C91.3811 69.5802 91.2467 69.5265 91.0855 69.4727L88.4931 68.4653L88.1304 69.419L92.7109 71.2055L93.1139 70.1712L91.0587 66.9877C90.9915 66.8803 90.9244 66.7728 90.8572 66.6922C90.79 66.6116 90.7497 66.5444 90.7094 66.5041V66.4907C90.7766 66.531 90.8572 66.5713 90.9781 66.6116C91.099 66.6654 91.2333 66.7191 91.3945 66.7863L94.0273 67.8071L94.3899 66.8534L89.8095 65.0669L89.3796 66.1549Z" fill="white"/>
<path d="M91.1261 63.3072L95.0752 64.3012L95.3439 63.24L91.3947 62.2326L91.7574 60.7819L90.9515 60.5804L89.944 64.5564L90.75 64.7579L91.1261 63.3072Z" fill="white"/>
<path d="M95.2478 59.5193L93.9985 59.3313L94.2538 57.6388L93.4478 57.5179L93.1926 59.2104L91.9971 59.0223L92.2792 57.1955L91.4732 57.0746L91.03 59.9894L95.8925 60.7282L96.3492 57.6791L95.5433 57.5582L95.2478 59.5193Z" fill="white"/>
<path d="M92.4409 55.2613L96.511 55.4494L96.5647 54.3479L92.4946 54.1598L92.5618 52.6554L91.729 52.6151L91.5275 56.712L92.3603 56.7523L92.4409 55.2613Z" fill="white"/>
<path d="M93.7996 49.8211C93.7996 50.5062 94.3637 51.0703 95.0488 51.0703C95.7338 51.0703 96.298 50.5062 96.298 49.8211C96.298 49.1361 95.7338 48.5719 95.0488 48.5719C94.3637 48.5719 93.7996 49.1226 93.7996 49.8211Z" fill="white"/>
<path d="M57.4246 49.6464H54.765V58.0551H57.4246V49.6464Z" fill="white"/>
<path d="M61.4413 49.6464H58.7817V58.0551H61.4413V49.6464Z" fill="white"/>
<path d="M65.4414 49.6464H62.7818V58.0551H65.4414V49.6464Z" fill="white"/>
<path d="M69.4449 49.6464H66.7852V58.0551H69.4449V49.6464Z" fill="white"/>
<path d="M38.4159 35.9318H35.3668V58.1222H38.4159V35.9318Z" fill="white"/>
<path d="M43.3202 35.9318H40.2711V58.1222H43.3202V35.9318Z" fill="white"/>
<path d="M48.2219 35.9318H45.1727V58.1222H48.2219V35.9318Z" fill="white"/>
<path d="M55.2622 39.8675C54.9935 39.9884 54.698 40.069 54.3756 40.1227V41.2511C54.604 41.2242 54.8055 41.1973 54.9801 41.1436C55.1547 41.0898 55.3293 41.0227 55.4905 40.9287V44.5689H56.995V39.3974H56.1084C55.8263 39.5854 55.5442 39.7466 55.2622 39.8675Z" fill="white"/>
<path d="M61.0899 39.7065C60.7943 39.505 60.4585 39.411 60.069 39.411C59.6929 39.411 59.3705 39.4916 59.0884 39.6393C58.8064 39.7871 58.578 40.002 58.4302 40.2841C58.2825 40.5662 58.2019 40.8886 58.2019 41.2647C58.2019 41.5602 58.2556 41.8288 58.3765 42.0706C58.4974 42.299 58.6586 42.487 58.8735 42.6213C59.0884 42.7557 59.3168 42.8228 59.572 42.8228C60.0019 42.8228 60.3242 42.6751 60.5392 42.393H60.566C60.566 42.7691 60.472 43.0646 60.2839 43.2527C60.0959 43.4407 59.8272 43.5482 59.478 43.5482C59.3302 43.5482 59.1556 43.5213 58.9676 43.4676C58.7795 43.4139 58.6317 43.3601 58.5243 43.293V44.4482C58.8601 44.5825 59.2362 44.6497 59.6795 44.6497C60.4048 44.6497 60.969 44.3944 61.3854 43.8974C61.8018 43.4004 62.0033 42.7019 62.0033 41.8154C62.0033 41.3184 61.9361 40.902 61.7884 40.5393C61.6137 40.1901 61.3854 39.908 61.0899 39.7065ZM60.3779 41.6005C60.3108 41.708 60.2033 41.7751 60.0556 41.7751C59.9347 41.7751 59.8272 41.7214 59.7466 41.6139C59.666 41.5064 59.6257 41.3587 59.6257 41.1572C59.6257 40.9423 59.666 40.7811 59.7466 40.6871C59.8272 40.593 59.9347 40.5393 60.069 40.5393C60.2033 40.5393 60.2974 40.5931 60.3779 40.714C60.4585 40.8349 60.4989 40.9826 60.4989 41.1572C60.4854 41.3453 60.4451 41.493 60.3779 41.6005Z" fill="white"/>
<path d="M65.4679 41.2242C65.0247 41.2242 64.6889 41.3719 64.4471 41.654H64.4202C64.4471 41.3048 64.5545 41.0361 64.756 40.8212C64.9575 40.6063 65.2127 40.4988 65.5351 40.4988C65.8575 40.4988 66.1261 40.566 66.3545 40.7138V39.5317C66.1261 39.4511 65.8038 39.3974 65.4277 39.3974C64.9172 39.3974 64.4874 39.5048 64.1247 39.7332C63.762 39.9615 63.4799 40.2973 63.2785 40.7406C63.077 41.1839 62.9695 41.6943 62.9695 42.2585C62.9695 43.0107 63.1441 43.5883 63.4665 44.0047C63.8023 44.4211 64.2725 44.6226 64.8903 44.6226C65.2396 44.6226 65.562 44.542 65.8441 44.3808C66.1261 44.2196 66.3545 44.0047 66.5022 43.7226C66.6634 43.4405 66.7306 43.1316 66.7306 42.7958C66.7306 42.3256 66.6097 41.9495 66.3813 41.654C66.1799 41.3719 65.8575 41.2242 65.4679 41.2242ZM65.2127 43.3331C65.1321 43.4405 65.0247 43.5077 64.8903 43.5077C64.7694 43.5077 64.662 43.454 64.5814 43.3331C64.5008 43.2122 64.4605 43.0644 64.4605 42.8898C64.4605 42.7018 64.5008 42.554 64.568 42.4331C64.6486 42.3257 64.756 42.2585 64.8903 42.2585C65.0381 42.2585 65.1456 42.3122 65.2127 42.4197C65.2799 42.5271 65.3202 42.6749 65.3202 42.8629C65.3336 43.0644 65.2933 43.2256 65.2127 43.3331Z" fill="white"/>
<path d="M69.5937 41.3585C69.4728 41.3585 69.3519 41.3585 69.2041 41.3853L69.2578 40.6734H70.9503V39.5048H68.0892L67.9012 42.5405C68.1698 42.4868 68.4519 42.4465 68.7608 42.4465C69.3787 42.4465 69.6877 42.6346 69.6877 43.0107C69.6877 43.1853 69.6205 43.3196 69.4862 43.4136C69.3519 43.5076 69.1504 43.5614 68.8952 43.5614C68.5056 43.5614 68.1295 43.4674 67.7803 43.2793V44.4479C67.9415 44.5151 68.1564 44.5554 68.3982 44.5957C68.6534 44.636 68.8952 44.6494 69.1235 44.6494C69.5399 44.6494 69.9026 44.5688 70.2116 44.4211C70.5205 44.2733 70.7623 44.0584 70.9235 43.7763C71.0847 43.5077 71.1652 43.1987 71.1652 42.8495C71.1652 42.3928 71.0309 42.0301 70.7488 41.7615C70.4802 41.4928 70.0907 41.3585 69.5937 41.3585Z" fill="white"/>
<path d="M25.5067 68.2907L50.3567 68.237L51.1895 69.1906H53.2581L54.0909 68.237L78.8335 68.3578L78.8469 43.266L75.959 43.1586L75.9993 35.7304L52.6671 35.8244V31.1231H50.1955L47.4822 29.2023H42.6868V30.6261H41.1689V29.2157H36.2929L33.6064 31.1634H31.1214V36.2006H28.3275L28.2872 43.0377L25.4932 43.2526L25.5067 68.2907ZM32.6124 32.641H34.1034L36.7899 30.6932H39.7048V32.1037H44.1778V30.6932H47.0254L49.7388 32.6141H51.2029L51.1895 58.1358H52.6671V47.645L71.6471 47.6853V60.5939H32.6124V32.641ZM29.8051 37.6781H31.1214V62.058H73.1247V46.2077L52.6671 46.1674V37.3155L74.5083 37.2214L74.3605 63.6833H29.6573L29.8051 37.6781ZM28.2872 44.5152L28.1663 65.1609H75.8246L75.9455 44.6496L77.3559 44.7033L77.3425 66.8803L53.4059 66.7594L52.5731 67.7131H51.8611L51.0283 66.7594L26.9842 66.8131L26.9708 44.6093L28.2872 44.5152Z" fill="white"/>
<path d="M53.8367 75.289L62.8768 75.3024V73.6905L53.3397 73.6771L52.0636 74.5636L50.7876 73.6771H41.2774V75.289H50.2906L52.0771 76.5248L53.8367 75.289Z" fill="white"/>
</svg>
