<svg width="24" height="24" viewBox="0 0 24 24" fill="none" xmlns="http://www.w3.org/2000/svg">
<path d="M6.99805 0C3.13867 0 0 3.14258 0 7.00195V17.002C0 20.8613 3.14258 24 7.00195 24H17.002C20.8613 24 24 20.8574 24 16.998V6.99805C24 3.13867 20.8574 0 16.998 0H6.99805ZM19 4C19.5527 4 20 4.44727 20 5C20 5.55273 19.5527 6 19 6C18.4473 6 18 5.55273 18 5C18 4.44727 18.4473 4 19 4ZM12 6C15.3086 6 18 8.69141 18 12C18 15.3086 15.3086 18 12 18C8.69141 18 6 15.3086 6 12C6 8.69141 8.69141 6 12 6ZM12 8C9.79102 8 8 9.79102 8 12C8 14.209 9.79102 16 12 16C14.209 16 16 14.209 16 12C16 9.79102 14.209 8 12 8Z" fill="#495471"/>
</svg>
