<svg width="24" height="24" viewBox="0 0 24 24" fill="none" xmlns="http://www.w3.org/2000/svg">
<path d="M21.1429 0H2.85714C1.27902 0 0 1.27902 0 2.85714V21.1429C0 22.721 1.27902 24 2.85714 24H21.1429C22.721 24 24 22.721 24 21.1429V2.85714C24 1.27902 22.721 0 21.1429 0ZM19.2679 16.5714L17.1362 16.5647C17.1362 16.5647 17.0915 16.5714 17.0179 16.5714C16.846 16.5714 16.4911 16.5268 16.0737 16.2411C15.3259 15.721 14.6116 14.4286 14.0446 14.4286C14.0067 14.4286 13.971 14.4353 13.9375 14.4464C13.4464 14.6004 13.2969 15.0915 13.2969 15.692C13.2969 15.9018 13.1496 16 12.7478 16H11.6451C10.4107 16 9.21652 15.971 7.875 14.5022C5.89732 12.3371 4.04464 8.48661 4.04464 8.48661C4.04464 8.48661 3.94196 8.26339 4.05134 8.1317C4.15402 8.01116 4.39509 8 4.48661 8C4.50893 8 4.52009 8 4.52009 8H6.8058C6.8058 8 7.01786 8.04018 7.17188 8.15402C7.30357 8.25223 7.37054 8.42857 7.37054 8.42857C7.37054 8.42857 7.75893 9.18304 8.24554 10.0335C9.0625 11.4397 9.50223 11.9085 9.81697 11.9085C9.8683 11.9085 9.91964 11.8973 9.97098 11.8683C10.4397 11.6116 10.3036 9.53125 10.3036 9.53125C10.3036 9.53125 10.308 8.77679 10.0625 8.44643C9.875 8.18304 9.51339 8.10938 9.35491 8.08482C9.22768 8.0692 9.43527 7.77232 9.70759 7.63393C10.0625 7.46205 10.6518 7.42857 11.3594 7.42857H11.7031C12.3705 7.43973 12.3884 7.50893 12.6518 7.57143C13.4397 7.75893 13.1719 8.49777 13.1719 10.2634C13.1719 10.8281 13.0692 11.6228 13.4732 11.8906C13.5022 11.9085 13.5424 11.9196 13.5938 11.9196C13.8571 11.9196 14.4219 11.5826 15.3259 10.058C15.8281 9.1875 16.2165 8.32589 16.2165 8.32589C16.2165 8.32589 16.3036 8.17188 16.4353 8.09152C16.5603 8.01786 16.5603 8.01786 16.7254 8.01786H16.7433C16.9263 8.01786 18.7433 8 19.1429 8H19.1875C19.5714 8 19.9196 8.0067 19.9821 8.24107C20.0737 8.59375 19.7031 9.22768 18.7254 10.5424C17.1138 12.6964 16.9308 12.5379 18.2679 13.7835C19.5491 14.971 19.8125 15.5491 19.8571 15.6228C20.3884 16.5022 19.2679 16.5714 19.2679 16.5714Z" fill="#495471"/>
</svg>
