<svg width="32" height="24" viewBox="0 0 32 24" fill="none" xmlns="http://www.w3.org/2000/svg">
<path fill-rule="evenodd" clip-rule="evenodd" d="M31.68 5.17689C31.68 5.17689 31.367 2.82549 30.408 1.79022C29.191 0.43068 27.827 0.424327 27.202 0.345444C22.724 9.46669e-08 16.007 0 16.007 0H15.993C15.993 0 9.276 9.46669e-08 4.798 0.345444C4.172 0.424327 2.809 0.43068 1.591 1.79022C0.632 2.82576 0.32 5.17689 0.32 5.17689C0.32 5.17689 0 7.93885 0 10.6995V13.2886C0 16.0503 0.32 18.8112 0.32 18.8112C0.32 18.8112 0.632 21.1626 1.591 22.1979C2.809 23.5574 4.408 23.5148 5.12 23.6567C7.68 23.919 16 24 16 24C16 24 22.724 23.9894 27.202 23.644C27.827 23.564 29.191 23.5577 30.408 22.1981C31.367 21.1626 31.68 18.8115 31.68 18.8115C31.68 18.8115 32 16.0506 32 13.2886V10.6995C32 7.93885 31.68 5.17689 31.68 5.17689ZM12.696 16.4259L12.695 6.83846L21.341 11.6487L12.696 16.4259Z" fill="#495471"/>
</svg>
