<svg width="103" height="103" fill="none" xmlns="http://www.w3.org/2000/svg"><path d="M6.769 49.821c0 .685.564 1.25 1.25 1.25.684 0 1.248-.565 1.248-1.25s-.564-1.25-1.249-1.25a1.24 1.24 0 00-1.249 1.25z" fill="#fff"/><path d="M51.5 0C23.104 0 0 23.104 0 51.5S23.104 103 51.5 103 103 79.896 103 51.5 79.896 0 51.5 0zm0 101.657c-27.657 0-50.157-22.5-50.157-50.157 0-27.657 22.5-50.157 50.157-50.157 27.657 0 50.157 22.5 50.157 50.157 0 27.657-22.5 50.157-50.157 50.157z" fill="#fff"/><path d="M14.909 51.46c0 20.202 16.44 36.643 36.643 36.643s36.644-16.44 36.644-36.643-16.441-36.644-36.644-36.644c-20.202 0-36.643 16.441-36.643 36.644zm36.643-35.166c19.383 0 35.166 15.77 35.166 35.166 0 19.396-15.77 35.166-35.166 35.166-19.396 0-35.166-15.77-35.166-35.166 0-19.397 15.77-35.166 35.166-35.166zM11.604 43.44c.04-.268.054-.523.027-.765a1.742 1.742 0 00-.188-.631 1.336 1.336 0 00-.954-.699 1.227 1.227 0 00-.443 0 1.024 1.024 0 00-.39.175 1.29 1.29 0 00-.322.335 1.783 1.783 0 00-.228.51h-.014a1.45 1.45 0 00-.295-.805 1.052 1.052 0 00-.658-.376c-.35-.054-.645.04-.9.282-.242.255-.417.658-.51 1.209l-.31 1.786 4.85.833.335-1.853zm-2.928-.134l-.067.416-1.222-.214.08-.43c.054-.282.121-.484.215-.605.094-.12.255-.16.457-.12.228.04.39.147.483.308.08.148.094.377.054.645zm2.15.188l-.095.578-1.37-.229.094-.523c.054-.323.148-.565.296-.699.134-.148.322-.188.564-.148.242.04.403.148.483.323.068.174.081.403.027.698zm1.572-3.654l-2.283-3.022c-.08-.107-.148-.201-.215-.282a2.428 2.428 0 00-.161-.174v-.014c.067.027.161.067.282.108.12.04.268.094.43.134l2.7.833.295-.98-4.701-1.438-.35 1.128 2.257 2.982c.08.108.148.202.202.269.053.067.107.12.147.161v.014a2.93 2.93 0 00-.255-.108c-.107-.04-.255-.08-.416-.134l-2.66-.82-.295.968 4.701 1.45.322-1.074zm-.818-9.254l-.766-.336-1.68 3.747.766.336.618-1.37 3.72 1.666.458-1.008-3.735-1.665.618-1.37zm5.533-1.505l-.698-.403-.981 1.72-1.101-.632.846-1.477-.699-.403-.846 1.477-1.061-.604.927-1.599-.712-.403-1.464 2.552 4.271 2.445 1.518-2.673zm1.531-2.189c.175-.242.296-.47.376-.699a1.63 1.63 0 00.094-.658 1.259 1.259 0 00-.175-.578 1.862 1.862 0 00-.443-.483 1.538 1.538 0 00-.55-.242 1.15 1.15 0 00-.565.027 1.852 1.852 0 00-.564.282 2.295 2.295 0 00-.524.55l-.51.712-.927-.671 1.236-1.706-.658-.47-1.867 2.606 3.989 2.874 1.088-1.544zm-1.854-1.169c.202-.269.39-.443.565-.497.174-.067.376-.014.577.134.215.148.309.323.309.524 0 .202-.107.43-.296.699l-.376.524-1.155-.833.376-.551zm1.397-2.163c.268.242.564.43.86.538.308.107.604.16.913.134a2.37 2.37 0 00.913-.269c.296-.16.578-.39.846-.685.417-.456.685-.9.82-1.316l-.659-.591a2.606 2.606 0 01-.617 1.169 2.348 2.348 0 01-.551.443c-.188.107-.39.16-.591.16a1.466 1.466 0 01-.618-.107 1.762 1.762 0 01-.591-.376 2.013 2.013 0 01-.457-.577 1.534 1.534 0 01-.174-.631c-.014-.215.026-.43.107-.645.08-.215.215-.43.39-.618.295-.323.63-.55 1.02-.685l-.698-.632c-.322.175-.672.457-1.02.847a3.18 3.18 0 00-.619.967 2.5 2.5 0 00-.188 1.02c.014.337.094.672.242.981.161.323.39.605.672.873zm5.87-2.713l-1.598-1.8.013-.013a.69.69 0 00.175.054.825.825 0 01.134.04l2.606.564.98-.873-3.156-.618-.215-2.955-.913.806.228 2.525c0 .054.013.108.027.175.013.054.013.107.027.148l-.014.013-1.531-1.733-.82.726 3.265 3.68.792-.739zm3.48-2.861l.108-3.788v-.363c0-.107-.014-.188-.014-.242l.014-.013c.026.067.08.148.147.255.067.108.148.229.242.376l1.599 2.338.846-.578-2.767-4.057-.968.659-.093 3.734v.336c0 .08 0 .16.013.215l-.014.013c-.026-.054-.08-.134-.134-.242a8.488 8.488 0 00-.242-.363l-1.558-2.296-.846.577 2.767 4.057.9-.618zm4.176-4.473c-.014.08-.014.161-.014.215h-.013c-.027-.054-.054-.148-.108-.255-.053-.108-.107-.242-.188-.39l-1.222-2.498-.913.443 2.162 4.42.994-.484.645-3.734c.027-.135.04-.242.054-.35.013-.107.013-.188.013-.241l.014-.014c.026.067.053.161.107.269.054.12.12.255.188.403l1.25 2.538.913-.443-2.163-4.419-1.061.51-.632 3.694c0 .135-.026.256-.026.336zM29.994 9.47c.323.094.659.054 1.021-.107.336-.162.578-.403.712-.74.134-.322.134-.657 0-1.02l-.564.269a.774.774 0 01-.014.55c-.067.175-.201.296-.376.39-.416.201-.752.12-.98-.269l-.564.269c.188.349.443.564.765.658zm9.926 2.471l-1.128-3.935 1.867-.537-.228-.793-2.915.846 1.357 4.715 1.047-.296zm1.788-1.974c.175.282.39.51.645.685.255.174.55.295.873.362.322.068.672.068 1.048 0a2.997 2.997 0 001.007-.362c.296-.175.524-.39.712-.645.188-.255.31-.564.376-.9a2.957 2.957 0 000-1.088 3.088 3.088 0 00-.336-.954 2.25 2.25 0 00-1.49-1.074 2.668 2.668 0 00-1.035-.014 2.775 2.775 0 00-1.048.376 2.321 2.321 0 00-1.101 1.572 2.82 2.82 0 000 1.061c.067.39.174.699.35.98zm.94-2.485a1.16 1.16 0 01.39-.417c.161-.107.35-.188.564-.228.229-.04.43-.04.605.013.188.04.349.135.483.256.135.12.255.295.35.497.093.201.16.43.214.698.04.269.054.497.027.712-.027.215-.08.403-.174.564a1.198 1.198 0 01-.377.403 1.48 1.48 0 01-.577.215 1.46 1.46 0 01-.591-.013 1.074 1.074 0 01-.484-.269 1.348 1.348 0 01-.362-.484 2.464 2.464 0 01-.215-.671 2.568 2.568 0 01-.027-.712c.027-.228.08-.403.174-.564zm5.13 2.404c.229.202.51.35.833.457.322.094.685.148 1.088.12.618-.026 1.115-.147 1.518-.348l-.04-.887c-.363.228-.78.363-1.263.376a1.923 1.923 0 01-.699-.08 1.382 1.382 0 01-.887-.82 2.139 2.139 0 01-.147-.685c-.013-.269.014-.51.094-.725.067-.215.175-.403.323-.564.147-.162.322-.283.537-.377.215-.094.457-.147.725-.16.444-.028.846.053 1.21.241l-.041-.94c-.35-.108-.793-.161-1.317-.135a3.307 3.307 0 00-1.128.242 2.555 2.555 0 00-.846.578 2.277 2.277 0 00-.537.86 2.606 2.606 0 00-.148 1.088c.013.362.094.698.228.994.08.322.269.564.497.765zm4.662.564c.268.014.497 0 .685-.053.188-.054.376-.148.537-.269a2.53 2.53 0 00.457-.47c.147-.188.282-.416.443-.672l1.907-3.29-1.155-.068-.994 1.88c-.054.108-.12.23-.175.323l-.16.323a.767.767 0 00-.054-.189c-.027-.053-.04-.12-.054-.174l-.954-2.297-1.182-.08 1.612 3.559c-.08.134-.175.242-.255.336a.706.706 0 01-.255.201c-.081.054-.162.08-.242.108-.08.013-.161.027-.242.013a1.414 1.414 0 01-.645-.215l-.054.9c.095.04.189.08.31.108.134 0 .282.013.47.027zm3.036-.765l-.376 2.109.98.174.229-1.316 3.412.604-.229 1.303.981.175.228-1.29 1.035.323.712-.98 1.773.55.053 1.209 1.142.35-.35-5.253-1.181-.363-3.143 3.963.107-.618-.739-.134.712-4.043-2.928-.51c-.08.362-.188.711-.322 1.06-.135.35-.283.685-.444 1.008a10.62 10.62 0 01-.55.927c-.202.295-.417.564-.632.819l-.47-.067zm8.422-.887l.161-.242c.054-.08.094-.147.121-.214l.027.013a1.347 1.347 0 00-.027.255v.269l.054 1.652-1.276-.39.94-1.343zm-6.34.484c.161-.255.322-.524.47-.793.148-.268.282-.55.39-.82a5.61 5.61 0 00.255-.751l.927.16-.564 3.238-1.961-.35c.16-.2.322-.429.483-.684zm9.887 2.659l.524.229c.282.12.537.188.806.215.255.027.497 0 .712-.054.215-.054.416-.175.577-.322.162-.148.31-.336.403-.565.202-.456.202-.873 0-1.236-.201-.376-.59-.685-1.182-.94l-1.571-.685-1.975 4.5 1.007.443.699-1.585zm.967-2.203l.43.188c.296.135.484.283.578.457.094.175.08.39-.027.645-.121.269-.282.43-.484.497-.201.067-.457.027-.766-.107l-.403-.175.672-1.505zm1.827 3.896a2.143 2.143 0 00.51 1.76c.215.255.497.496.847.684.537.31 1.02.484 1.45.524l.444-.765c-.43 0-.847-.121-1.277-.363a2.338 2.338 0 01-.55-.443 1.536 1.536 0 01-.282-.551 1.585 1.585 0 01-.027-.618c.04-.215.12-.43.242-.658a1.94 1.94 0 01.47-.564 1.538 1.538 0 011.236-.322c.228.04.456.12.684.255.377.228.672.51.887.86l.47-.82a3.76 3.76 0 00-1.034-.82 3.025 3.025 0 00-1.075-.402 2.433 2.433 0 00-1.034.026 2.605 2.605 0 00-.913.43c-.283.202-.51.484-.712.833a3.529 3.529 0 00-.336.954zm9.04 1.666l-3.305-2.418-.497.671 1.21.887-2.405 3.29.886.66 2.405-3.305 1.222.886.484-.671zm-1.075 5.6c.201.189.416.337.631.444.215.107.43.161.631.188.202.014.403-.013.591-.08.188-.068.35-.189.497-.35a1.09 1.09 0 00.229-.376c.053-.134.067-.282.067-.43a1.22 1.22 0 00-.121-.456 1.616 1.616 0 00-.309-.457l.013-.014c.296.148.578.215.847.189a1.06 1.06 0 00.671-.35.958.958 0 00.242-.913c-.08-.35-.322-.699-.739-1.088l-1.343-1.21-3.304 3.641 1.397 1.263zm2.216-3.6l.322.296c.215.188.35.363.39.51.054.148 0 .296-.134.444-.162.175-.336.255-.51.242-.189-.014-.377-.108-.578-.296l-.31-.282.82-.913zm-.967 1.841c.242.228.39.43.443.631.04.188-.013.377-.174.565-.162.188-.336.255-.524.228-.188-.027-.39-.148-.618-.336l-.444-.39.94-1.034.377.336zm2.701 5.884l.605-.538-1.317-1.477.94-.833 1.129 1.262.618-.55-1.142-1.263.9-.806 1.236 1.37.604-.537-1.96-2.203-3.668 3.278 2.055 2.297zm4.486-2.284l-4.017 2.834.631.9 1.733-1.222 1.276 1.813-1.733 1.21.632.913 4.016-2.835-.631-.9-1.599 1.129-1.276-1.814 1.599-1.128-.632-.9zm-.405 8.342l1.881-.967 1.02 1.96-1.88.981.497.967 4.366-2.256-.497-.98-1.746.9-1.021-1.962 1.746-.9-.51-.98-4.366 2.256.51.98zm8.055 6.5l-4.656 1.578.354 1.043 4.656-1.578-.354-1.043zm-5.473-.805c.094.269.215.51.349.699.148.201.309.349.483.456a1.38 1.38 0 001.222.12c.202-.066.377-.173.511-.308a1.3 1.3 0 00.31-.483 1.81 1.81 0 00.093-.618 2.748 2.748 0 00-.148-.752l-.282-.833 1.854-.632-.35-1.034-4.66 1.572.618 1.813zm1.826-1.45l.215.617c.108.31.135.551.08.74-.053.187-.2.321-.442.402-.242.08-.444.067-.605-.054-.161-.12-.295-.336-.39-.645l-.2-.604 1.342-.457zm-.243 6.984l3.411 1.666c.121.053.229.107.323.148.094.04.174.067.228.08v.013c-.067 0-.175.014-.295.027-.121.014-.27.04-.444.068l-2.78.483.174 1.008 4.836-.847-.201-1.155-3.372-1.625c-.12-.054-.228-.108-.309-.134a1.56 1.56 0 01-.201-.081v-.014c.067 0 .16-.013.282-.026.12-.014.268-.04.43-.068l2.74-.483-.175-1.008-4.836.847.188 1.101zm6.274 1.115c.269.215.604.31.98.282l-.107-.618a.796.796 0 01-.524-.174.758.758 0 01-.268-.47c-.081-.457.094-.753.523-.86l-.107-.618c-.376.08-.645.269-.833.55-.188.283-.241.619-.174 1.008.067.376.228.672.51.9zM10.356 54.012l-4.07.188.04 1.101 4.084-.188.067 1.505.833-.04-.188-4.11-.833.04.067 1.504zm-2.847 4.849l1.249-.188L9 60.366l.806-.121-.242-1.68 1.195-.174.269 1.827.806-.121-.43-2.915-4.863.712.444 3.036.806-.121-.282-1.948zm5.493 6.031l-.295-1.182-1.572-.47c-.08-.027-.147-.04-.214-.054a1.047 1.047 0 00-.215-.026v-.014c.12-.08.228-.175.322-.269l1.168-1.128-.322-1.276-1.961 2.096-2.834-1.021.322 1.249 1.746.51c.068.014.135.027.188.04a.502.502 0 00.135.014v.013c-.054.04-.108.068-.148.108a.888.888 0 00-.12.107l-1.264 1.29.323 1.25 1.974-2.19 2.768.953zm1.398 3.6l-1.826.726-.806-2.069 1.813-.712-.403-1.034-4.567 1.8.403 1.034 1.961-.779.82 2.069-1.975.765.403 1.034 4.58-1.8-.403-1.034zm.082 7.71a3.293 3.293 0 001.034-.362c.309-.175.578-.39.78-.645.2-.255.348-.524.442-.82.094-.295.108-.604.068-.94a2.51 2.51 0 00-.336-.98c-.202-.35-.43-.645-.699-.86a2.376 2.376 0 00-.873-.457 2.33 2.33 0 00-.967-.054 3.043 3.043 0 00-1.007.363c-.323.175-.578.39-.793.658-.215.269-.35.537-.43.833a2.21 2.21 0 00-.053.94c.053.336.16.659.349.994.188.336.403.605.671.82.256.215.538.362.847.456.295.081.617.108.967.054zm-1.37-1.263a1.764 1.764 0 01-.403-.47 1.309 1.309 0 01-.094-1.114c.067-.175.188-.336.335-.498.148-.16.336-.295.565-.43.228-.12.443-.214.658-.255a1.32 1.32 0 01.604-.013c.188.027.363.107.524.215.161.107.296.269.403.457.108.201.175.39.188.577.014.188-.013.363-.08.537a1.466 1.466 0 01-.35.498 2.58 2.58 0 01-.59.43 2.612 2.612 0 01-.659.268 1.493 1.493 0 01-.59.027 1.094 1.094 0 01-.511-.229zm5.534 1.142c-.229.121-.457.242-.658.363-.215.108-.417.215-.618.322-.202.108-.403.202-.605.296-.201.094-.39.188-.59.282-.256.121-.47.202-.646.282a3.188 3.188 0 01-.456.134.843.843 0 01-.323-.013.59.59 0 01-.228-.188 1.08 1.08 0 01-.175-.376l-.658.483c.067.189.175.363.31.551.16.215.335.376.523.457.188.094.376.134.564.134.188 0 .39-.04.591-.107.202-.067.403-.161.618-.255.148-.068.296-.135.457-.215.161-.081.336-.162.51-.256.175-.094.376-.188.591-.295l.685-.363.618.82-3.264 2.458.658.873 3.923-2.955-1.827-2.432zm4.726 7.509c.135-.295.202-.604.215-.913 0-.31-.053-.618-.174-.927a2.533 2.533 0 00-.591-.86 2.807 2.807 0 00-.9-.645 2.455 2.455 0 00-.954-.215c-.322 0-.645.068-.954.202a2.84 2.84 0 00-.873.604 2.873 2.873 0 00-.59.833 2.2 2.2 0 00-.202.914c0 .309.067.618.201.927.135.308.336.59.591.86.269.268.551.483.86.617.309.134.618.215.94.215.323 0 .632-.054.954-.201.322-.148.618-.336.9-.618a2.56 2.56 0 00.577-.793zm-.98-.524a3.284 3.284 0 01-.457.578 2.249 2.249 0 01-.564.43 1.31 1.31 0 01-1.115.094 1.51 1.51 0 01-.51-.35 1.437 1.437 0 01-.323-.496 1.273 1.273 0 01-.067-.551c.027-.188.08-.376.188-.564.108-.188.255-.376.43-.565.188-.174.376-.322.564-.416.188-.108.39-.161.578-.175.188-.013.376 0 .564.081a1.512 1.512 0 01.846.846c.067.175.08.363.054.538-.013.174-.08.362-.188.55zm4.553 2.646l.51-.644-2.364-1.908-3.09 3.815.86.699 2.58-3.184 1.504 1.222zm3.91 1.586l-3.466 1.397a4.133 4.133 0 00-.309.134l-.188.094h-.013c.04-.054.094-.12.16-.228.068-.108.149-.215.243-.363l1.49-2.35-.859-.552-2.633 4.151.94.591 3.533-1.397c.121-.053.229-.094.323-.134.094-.04.16-.08.215-.108l.013.014c-.04.054-.107.134-.175.242-.067.107-.147.228-.241.376l-1.518 2.39.86.551 2.632-4.15-1.007-.658zm4.607 2.35l-.886 1.921c-.242.013-.457 0-.659-.027a1.955 1.955 0 01-.564-.16c-.228-.108-.362-.23-.416-.39-.054-.162-.027-.35.08-.592l.712-1.558-.994-.456-.779 1.692c-.201.43-.228.806-.094 1.128.135.323.417.591.86.78.242.107.497.188.752.228.255.04.524.054.793.04l-.847 1.854.994.456 2.056-4.46-1.008-.456zM40.11 92.2l.255-.779-2.807-.927-1.531 4.675 2.915.954.242-.766-1.868-.618.403-1.196 1.612.524.255-.765-1.611-.538.376-1.141 1.76.577zm2.377-.147a2.655 2.655 0 00-.98.335 2.43 2.43 0 00-.739.699c-.201.282-.336.618-.43 1.007-.08.363-.094.699-.04 1.021.054.323.161.605.336.86.174.255.403.47.685.658.282.175.618.309 1.007.403.605.134 1.129.148 1.545.054l.188-.873c-.403.134-.846.147-1.33.04a1.937 1.937 0 01-.658-.269 1.398 1.398 0 01-.443-.443 1.66 1.66 0 01-.215-.578 2.098 2.098 0 01.04-.698 2.01 2.01 0 01.269-.672c.12-.188.282-.349.457-.456.174-.121.39-.189.617-.229.229-.04.47-.027.74.027.43.094.792.282 1.1.55l.202-.926c-.309-.201-.725-.35-1.236-.47a3.114 3.114 0 00-1.114-.04zm5.963.792l-1.692 1.894c-.04.04-.08.08-.107.134-.027.054-.067.094-.08.121h-.014l.228-2.31-1.101-.108-.497 4.89 1.101.107.242-2.404h.013c.027.054.04.107.068.161.026.054.053.094.067.121l1.356 2.284 1.303.134-1.692-2.74 2.028-2.163-1.222-.12zm5.239.04l-2.096 3.103c-.08.121-.134.215-.188.282-.04.067-.08.135-.107.188h-.014c0-.067.014-.16.014-.282v-.443l-.08-2.78-1.022.026.148 4.917 1.102-.027 2.135-3.13c.081-.108.135-.215.188-.296.054-.093.095-.16.108-.214h.013c0 .067-.013.174-.013.295v.443l.08 2.835 1.021-.027-.134-4.917-1.155.027zm5.694-.738l-1.639 3.358c-.053.12-.107.228-.134.309-.027.08-.054.148-.08.201h-.014c0-.067-.013-.16-.027-.282-.013-.12-.04-.269-.067-.43l-.47-2.74-1.008.175.833 4.849 1.088-.188 1.68-3.412c.053-.12.107-.228.147-.322.04-.094.067-.175.08-.229h.014c0 .067.014.175.027.296.013.12.04.268.067.443l.484 2.794 1.007-.175-.833-4.849-1.155.202zm-1.355-1.102c-.47.08-.752-.094-.86-.524l-.618.108c.08.376.269.644.55.832.283.189.619.242 1.008.175a1.39 1.39 0 00.887-.51c.215-.269.309-.605.282-.98l-.618.107a.796.796 0 01-.175.523.672.672 0 01-.456.27zm8.664.967c-.013.121-.013.255-.027.363 0 .12-.013.242-.013.362l-.121-.16a1.086 1.086 0 00-.121-.135l-1.813-1.706-1.115.416 2.928 2.593a2.24 2.24 0 01-.094.403c-.04.107-.08.215-.148.296a.625.625 0 01-.188.188.683.683 0 01-.215.12 1.414 1.414 0 01-.671.068l.309.846c.093 0 .201-.014.322-.04.12-.027.269-.068.443-.135a2.15 2.15 0 00.605-.336c.16-.134.282-.282.39-.47.093-.174.174-.39.228-.618a5.97 5.97 0 00.12-.792l.39-3.775-1.075.403-.134 2.11zm4.513-4.245l.9 1.72-1.961 1.034-.914-1.733-.967.524 2.297 4.339.967-.51-.98-1.868 1.96-1.034.981 1.867.981-.51-2.297-4.352-.967.523zm4.755-3.157l.013 3.735v.336c0 .08.014.148.014.215l-.014.013c-.027-.053-.08-.134-.148-.242a8.448 8.448 0 00-.241-.362l-1.626-2.257-.82.605 2.875 3.976.9-.645v-3.788c0-.134 0-.255-.013-.35-.013-.107-.013-.187-.027-.241l.014-.014c.04.068.08.148.16.256.068.107.162.228.256.376l1.652 2.297.82-.605L76.9 83.94l-.94.672zm6.917-1.477a1.223 1.223 0 00-.35-.255.9.9 0 00-.415-.094c-.148 0-.296.027-.457.08a1.745 1.745 0 00-.484.27l-.013-.014c.174-.282.255-.564.242-.82a1.06 1.06 0 00-.296-.698.96.96 0 00-.886-.309c-.35.054-.726.269-1.142.658l-1.317 1.236 3.358 3.587 1.37-1.29c.202-.188.363-.39.484-.591.121-.201.202-.416.228-.618a1.455 1.455 0 00-.026-.591 1.223 1.223 0 00-.296-.55zm-2.955.752l-.846-.9.322-.295c.202-.201.39-.309.537-.35.148-.04.296.028.444.175.16.175.228.35.201.538-.027.188-.134.376-.336.55l-.322.282zm1.907 1.17l-.43.402-.953-1.02.39-.363c.241-.229.456-.363.657-.39.202-.027.377.04.551.228.175.175.229.363.188.551-.053.188-.188.39-.403.591zm3.036-3.238l-.953-.82 1.101-1.289-.618-.537-1.101 1.303-.927-.793 1.209-1.41-.618-.524-1.921 2.23 3.72 3.21 2.002-2.324-.604-.537-1.29 1.49zm2.219-4.339c.174-.241.295-.497.376-.738.08-.242.107-.484.08-.712a1.3 1.3 0 00-.201-.632 1.385 1.385 0 00-.47-.497c-.403-.282-.82-.362-1.222-.241-.404.12-.793.443-1.156.98l-.98 1.41 4.03 2.808.63-.9-1.423-.98.336-.498zm-.712-.322l-.242.363-1.343-.94.268-.39c.188-.269.377-.416.565-.484.188-.053.403-.013.617.148.242.161.363.363.39.578.014.215-.067.456-.255.725zm4.431-3.936c-.12.229-.269.417-.43.551-.161.148-.35.242-.537.296a1.589 1.589 0 01-.618.04 1.836 1.836 0 01-.658-.228 1.976 1.976 0 01-.578-.457 1.422 1.422 0 01-.309-.578 1.76 1.76 0 01-.04-.658 1.89 1.89 0 01.242-.698c.215-.39.483-.686.832-.9l-.819-.444c-.282.242-.55.591-.792 1.061a3.185 3.185 0 00-.377 1.088 2.65 2.65 0 00.054 1.035 2.6 2.6 0 00.457.9c.215.268.497.51.846.685.323.174.645.282.967.322.323.04.632.014.914-.08.295-.094.564-.256.82-.47.254-.229.483-.511.67-.86.296-.55.457-1.035.484-1.478l-.779-.43c0 .444-.12.873-.349 1.303zm-1.423-7.065l2.041 3.13c.081.12.135.215.188.282.054.067.094.12.135.174v.014a5.74 5.74 0 00-.255-.121 3.138 3.138 0 00-.404-.161l-2.592-1.008-.363.954 4.58 1.787.404-1.035-2.055-3.183a2.81 2.81 0 00-.202-.296c-.067-.08-.107-.148-.148-.188v-.013c.068.04.148.08.27.12.12.054.254.108.415.175l2.633 1.021.363-.954-4.58-1.786-.43 1.088zm1.746-2.848l3.95.994.268-1.061-3.95-1.007.363-1.451-.806-.202-1.007 3.976.806.202.376-1.45zm4.122-3.787l-1.25-.189.256-1.692-.806-.121-.255 1.692-1.196-.188.282-1.826-.806-.121-.443 2.914 4.862.74.457-3.05-.806-.12-.295 1.96zm-2.808-4.259l4.071.188.054-1.101-4.07-.188.067-1.505-.833-.04-.201 4.097.832.04.08-1.49zm1.36-5.44c0 .685.564 1.25 1.249 1.25.685 0 1.249-.565 1.249-1.25s-.564-1.25-1.25-1.25c-.684 0-1.248.552-1.248 1.25z" fill="#fff"/><path d="M57.425 49.646h-2.66v8.41h2.66v-8.41zm4.016 0h-2.66v8.41h2.66v-8.41zm4 0h-2.66v8.41h2.66v-8.41zm4.004 0h-2.66v8.41h2.66v-8.41zM38.416 35.932h-3.05v22.19h3.05v-22.19zm4.904 0h-3.049v22.19h3.05v-22.19zm4.902 0h-3.05v22.19h3.05v-22.19zm7.04 3.935a3.598 3.598 0 01-.886.256v1.128c.228-.027.43-.054.604-.107a2.4 2.4 0 00.51-.215v3.64h1.505v-5.172h-.887a5.26 5.26 0 01-.846.47zm5.828-.161a1.754 1.754 0 00-1.021-.295c-.376 0-.699.08-.98.228a1.526 1.526 0 00-.659.645 2.073 2.073 0 00-.228.98c0 .296.054.565.175.807.12.228.282.416.496.55.215.135.444.202.699.202.43 0 .752-.148.967-.43h.027c0 .376-.094.672-.282.86-.188.188-.457.295-.806.295-.148 0-.322-.027-.51-.08a1.786 1.786 0 01-.444-.175v1.155a3.06 3.06 0 001.155.202c.726 0 1.29-.256 1.706-.753.417-.497.618-1.195.618-2.082 0-.497-.067-.913-.215-1.276a2.135 2.135 0 00-.698-.833zm-.712 1.894a.361.361 0 01-.322.175.376.376 0 01-.31-.161c-.08-.108-.12-.255-.12-.457 0-.215.04-.376.12-.47a.409.409 0 01.323-.148c.134 0 .228.054.309.175.08.12.12.269.12.443a.967.967 0 01-.12.444zm5.09-.376c-.443 0-.78.148-1.02.43h-.028c.027-.35.135-.618.336-.833.201-.215.457-.322.78-.322.322 0 .59.067.819.215v-1.182a2.882 2.882 0 00-.927-.135c-.51 0-.94.108-1.303.336-.363.229-.645.564-.846 1.008a3.646 3.646 0 00-.31 1.517c0 .753.175 1.33.498 1.747.335.416.805.618 1.423.618a1.9 1.9 0 00.954-.242c.282-.161.51-.376.658-.658.161-.282.229-.591.229-.927 0-.47-.121-.846-.35-1.142-.201-.282-.523-.43-.913-.43zm-.255 2.11a.396.396 0 01-.323.174.358.358 0 01-.309-.175.781.781 0 01-.12-.443c0-.188.04-.336.107-.457a.396.396 0 01.322-.175c.148 0 .256.054.323.162a.83.83 0 01.107.443c.014.201-.027.363-.107.47zm4.381-1.976c-.121 0-.242 0-.39.027l.054-.712h1.692v-1.168h-2.86l-.19 3.035c.269-.053.55-.093.86-.093.618 0 .927.188.927.564a.462.462 0 01-.202.403c-.134.094-.336.147-.59.147-.39 0-.767-.094-1.116-.282v1.169c.162.067.376.107.618.148.255.04.497.053.726.053.416 0 .779-.08 1.088-.228.308-.148.55-.363.712-.645.16-.268.241-.577.241-.927 0-.456-.134-.819-.416-1.087-.269-.27-.658-.404-1.155-.404z" fill="#fff"/><path d="M25.507 68.29l24.85-.053.833.954h2.068l.833-.954 24.742.12.014-25.091-2.888-.107.04-7.429-23.332.094v-4.7h-2.471l-2.714-1.922h-4.795v1.424h-1.518v-1.41h-4.876l-2.687 1.947h-2.485v5.038h-2.793l-.04 6.837-2.795.215.014 25.038zm7.105-35.649h1.491l2.687-1.948h2.915v1.41h4.473v-1.41h2.847l2.714 1.921h1.464l-.014 25.522h1.478V47.645l18.98.04v12.909H32.612V32.64zm-2.807 5.037h1.316v24.38h42.004v-15.85l-20.458-.04v-8.852l21.841-.095-.147 26.462H29.657l.148-26.005zm-1.518 6.837l-.12 20.646h47.658l.12-20.511 1.41.053-.013 22.177-23.936-.12-.833.953h-.712l-.833-.954-24.044.054-.013-22.204 1.316-.094zm25.55 30.774l9.04.013V73.69l-9.537-.013-1.276.887-1.276-.887h-9.51v1.612h9.013l1.786 1.236 1.76-1.236z" fill="#fff"/></svg>