<svg width="91" height="90" fill="none" xmlns="http://www.w3.org/2000/svg"><path d="M5.98 43.533a1.104 1.104 0 002.208 0c0-.599-.499-1.092-1.104-1.092a1.09 1.09 0 00-1.104 1.092z" fill="#37322F"/><path d="M45.5 0C20.412 0 0 20.188 0 45s20.412 45 45.5 45S91 69.812 91 45 70.588 0 45.5 0zm0 88.826C21.065 88.826 1.187 69.166 1.187 45c0-24.167 19.878-43.826 44.313-43.826 24.435 0 44.313 19.66 44.313 43.826 0 24.167-19.878 43.826-44.313 43.826z" fill="#37322F"/><path d="M13.172 44.965c0 17.652 14.525 32.019 32.374 32.019 17.849 0 32.375-14.367 32.375-32.02 0-17.652-14.526-32.018-32.375-32.018S13.172 27.312 13.172 44.965zm32.374-30.728c17.125 0 31.07 13.78 31.07 30.728s-13.933 30.727-31.07 30.727c-17.136 0-31.069-13.779-31.069-30.727 0-16.949 13.933-30.728 31.07-30.728zM10.252 37.958c.036-.235.048-.458.024-.67a1.511 1.511 0 00-.166-.551 1.186 1.186 0 00-1.234-.61.91.91 0 00-.344.152 1.13 1.13 0 00-.285.294c-.083.129-.155.27-.202.446h-.012a1.26 1.26 0 00-.26-.704.932.932 0 00-.582-.33.903.903 0 00-.796.247c-.213.223-.367.575-.45 1.057l-.273 1.56 4.284.728.296-1.62zm-2.587-.118l-.06.364-1.079-.188.071-.375c.048-.247.107-.423.19-.528.083-.106.226-.141.404-.106.201.035.344.13.427.27.071.129.083.329.047.563zm1.899.165l-.083.504-1.21-.2.083-.457c.047-.282.13-.493.26-.61.12-.13.285-.165.5-.13.213.036.355.13.426.282.06.153.072.352.024.61zm1.39-3.193l-2.018-2.64c-.07-.094-.13-.177-.19-.247a2.133 2.133 0 00-.142-.153v-.011c.06.023.143.058.25.094.106.035.237.082.38.117l2.384.727.262-.856-4.154-1.256-.309.986 1.994 2.605c.071.094.13.177.178.235.048.059.095.106.13.141v.012a2.651 2.651 0 00-.225-.094c-.095-.035-.225-.07-.368-.117l-2.35-.716-.26.845 4.153 1.267.285-.939zm-.724-8.087l-.676-.293-1.484 3.274.677.294.546-1.197 3.287 1.455.403-.88-3.299-1.456.546-1.197zm4.89-1.315l-.618-.351-.866 1.502-.973-.552.747-1.29-.617-.353-.747 1.291-.938-.528.819-1.397-.629-.352-1.294 2.23 3.774 2.136 1.341-2.335zm1.352-1.913a2.4 2.4 0 00.332-.61c.071-.2.095-.387.083-.575a1.092 1.092 0 00-.154-.505 1.634 1.634 0 00-.392-.422 1.366 1.366 0 00-.486-.212 1.028 1.028 0 00-.499.024c-.166.047-.332.13-.498.247-.166.117-.32.281-.463.48l-.45.623-.82-.587 1.092-1.49-.582-.412-1.649 2.277 3.525 2.512.96-1.35zm-1.638-1.02c.178-.235.344-.388.499-.435.154-.059.332-.012.51.117.19.13.273.282.273.458 0 .176-.095.376-.261.61l-.332.458-1.021-.727.332-.482zm1.234-1.89c.237.211.498.375.76.47.272.093.533.14.806.117.273-.024.534-.094.807-.235.261-.141.51-.34.748-.599.368-.399.605-.786.724-1.15l-.582-.516a2.27 2.27 0 01-.546 1.02c-.154.165-.32.294-.486.388-.166.094-.344.14-.522.14a1.31 1.31 0 01-.546-.093 1.56 1.56 0 01-.522-.329 1.763 1.763 0 01-.404-.504 1.33 1.33 0 01-.154-.552 1.343 1.343 0 01.095-.563c.07-.188.19-.376.344-.54a2.17 2.17 0 01.902-.599l-.617-.552c-.285.153-.594.4-.902.74-.25.27-.427.552-.546.845a2.162 2.162 0 00-.166.892c.012.293.083.587.213.857.143.281.345.528.594.763zm5.186-2.371l-1.412-1.573.012-.011a.59.59 0 00.154.046.729.729 0 01.119.036l2.302.493.867-.763-2.79-.54-.19-2.582-.806.704.202 2.207c0 .046.012.093.023.152.012.047.012.094.024.13l-.012.011-1.353-1.514-.724.634 2.884 3.216.7-.646zm3.075-2.5l.095-3.31v-.317c0-.094-.012-.164-.012-.211l.012-.012c.024.059.071.13.13.223l.214.329 1.412 2.042.748-.505-2.445-3.544-.854.575-.083 3.263v.293c0 .07 0 .14.011.188l-.011.012c-.024-.047-.072-.118-.12-.212a7.44 7.44 0 00-.213-.317l-1.376-2.007-.748.505 2.445 3.545.795-.54zm3.689-3.908c-.012.07-.012.14-.012.187h-.012c-.023-.046-.047-.129-.095-.223-.047-.094-.095-.21-.166-.34l-1.08-2.183-.807.387 1.91 3.862.88-.423.569-3.263c.024-.117.035-.211.047-.305.012-.094.012-.164.012-.211l.012-.012c.024.059.047.141.095.235.047.105.107.223.166.352l1.104 2.218.807-.387-1.911-3.862-.938.446-.557 3.228c0 .118-.024.223-.024.294zM26.5 8.275c.285.082.581.047.902-.094.296-.141.51-.352.629-.646.118-.281.118-.575 0-.892l-.499.235a.67.67 0 01-.012.481c-.059.153-.178.258-.332.34-.368.177-.664.106-.866-.234l-.499.235c.166.305.392.493.677.575zm8.77 2.159l-.997-3.439 1.65-.47-.203-.692-2.575.74 1.199 4.12.926-.259zm1.579-1.725a1.977 1.977 0 001.341.915c.285.059.593.059.926 0 .332-.058.629-.164.89-.317.26-.152.463-.34.629-.563.166-.223.273-.493.332-.786.06-.294.06-.61 0-.951a2.682 2.682 0 00-.297-.833 1.973 1.973 0 00-1.317-.94 2.383 2.383 0 00-.914-.011 2.47 2.47 0 00-.925.328 2.028 2.028 0 00-.973 1.373c-.06.294-.06.6 0 .928.059.34.154.61.308.857zm.83-2.172c.084-.152.202-.27.345-.363.142-.094.308-.165.498-.2.202-.035.38-.035.534.012a.933.933 0 01.428.223c.118.105.225.258.308.434.083.176.142.376.19.61.036.235.047.435.024.622a1.27 1.27 0 01-.155.493 1.05 1.05 0 01-.332.353 1.316 1.316 0 01-.51.187c-.19.036-.356.024-.522-.011a.952.952 0 01-.428-.235 1.18 1.18 0 01-.32-.423 2.138 2.138 0 01-.19-.587 2.222 2.222 0 01-.024-.622c.024-.2.072-.352.155-.493zm4.533 2.101c.201.176.45.306.736.4.284.082.605.129.96.105.547-.023.986-.129 1.342-.305l-.036-.775c-.32.2-.688.317-1.115.329a1.717 1.717 0 01-.617-.07 1.251 1.251 0 01-.475-.27 1.208 1.208 0 01-.309-.446 1.849 1.849 0 01-.13-.599 1.553 1.553 0 01.083-.634c.06-.188.154-.352.285-.493.13-.14.285-.246.474-.328.19-.083.404-.13.641-.141.392-.024.748.047 1.068.211l-.035-.822a3.44 3.44 0 00-1.163-.117 2.95 2.95 0 00-.997.211c-.297.13-.546.294-.748.505a1.987 1.987 0 00-.474.751 2.26 2.26 0 00-.131.95c.012.318.083.611.202.87.07.281.237.492.439.668zm4.118.494c.237.011.44 0 .605-.047.166-.047.333-.13.475-.235.142-.106.273-.247.404-.411.13-.164.249-.364.391-.587l1.685-2.875-1.02-.06-.878 1.644c-.048.094-.107.2-.155.282l-.142.281a.666.666 0 00-.048-.164c-.023-.047-.035-.106-.047-.152L46.757 4.8l-1.044-.07 1.424 3.11c-.071.117-.154.21-.225.293a.623.623 0 01-.226.176c-.071.047-.142.07-.214.094-.07.012-.142.023-.213.012a1.26 1.26 0 01-.57-.188l-.047.786c.083.035.166.07.273.094.118 0 .249.012.415.024zm2.683-.67l-.332 1.843.866.153.202-1.15 3.014.528-.202 1.138.867.153.201-1.127.914.282.63-.857 1.566.481.047 1.056 1.009.306-.309-4.59-1.044-.317-2.777 3.463.095-.54-.653-.117.63-3.533-2.588-.446a6.429 6.429 0 01-.285.927 9.494 9.494 0 01-.392.88 9.164 9.164 0 01-.486.81 8.853 8.853 0 01-.558.716l-.415-.059zm7.44-.774l.143-.212c.048-.07.083-.129.107-.187l.024.011c-.012.06-.024.141-.024.223v.235l.047 1.444-1.127-.34.83-1.174zm-5.6.422c.142-.223.284-.457.415-.692.13-.235.249-.481.344-.716.095-.235.178-.458.225-.657l.82.14-.5 2.829-1.732-.305c.143-.176.285-.376.427-.599zm8.734 2.324l.463.2c.25.105.475.164.712.188.226.023.44 0 .63-.047a1.21 1.21 0 00.51-.282c.142-.13.273-.294.356-.493.178-.4.178-.763 0-1.08-.178-.329-.523-.599-1.045-.822L59.825 7.5l-1.745 3.932.89.387.617-1.385zm.855-1.925l.38.165c.26.117.427.246.51.399.083.152.071.34-.024.563-.107.235-.25.376-.427.434-.178.059-.404.024-.676-.094l-.357-.152.594-1.315zm1.614 3.404a1.854 1.854 0 00.45 1.538c.19.223.44.434.748.598.475.27.902.423 1.282.458l.392-.67c-.38 0-.748-.105-1.128-.316a2.063 2.063 0 01-.486-.387 1.335 1.335 0 01-.25-.482 1.372 1.372 0 01-.023-.54c.035-.187.106-.375.213-.575.119-.2.25-.364.416-.493a1.372 1.372 0 011.092-.282c.201.036.403.106.605.224.332.2.593.446.783.751l.415-.716a3.313 3.313 0 00-.913-.716 2.69 2.69 0 00-.95-.352 2.171 2.171 0 00-.914.023c-.296.07-.557.2-.807.376-.249.176-.45.422-.629.728a3.047 3.047 0 00-.296.833zm7.986 1.456l-2.919-2.113-.44.587 1.069.774-2.124 2.876.783.575 2.124-2.887 1.08.775.427-.587zm-.949 4.894c.178.164.367.293.557.387.19.094.38.14.558.164a1.31 1.31 0 00.522-.07 1.11 1.11 0 00.44-.305.95.95 0 00.201-.329.998.998 0 00.06-.375 1.057 1.057 0 00-.107-.4c-.06-.14-.155-.27-.273-.399l.012-.011c.26.129.51.188.747.164a.942.942 0 00.594-.305.83.83 0 00.213-.798c-.071-.305-.285-.61-.653-.95l-1.186-1.057-2.92 3.18 1.235 1.104zm1.958-3.146l.284.258c.19.165.31.317.345.446.047.13 0 .259-.119.388-.142.152-.297.223-.45.211-.167-.012-.333-.094-.511-.258l-.273-.247.724-.798zm-.855 1.608c.214.2.344.376.392.552.036.164-.012.328-.154.493-.143.164-.297.223-.463.2-.166-.024-.344-.13-.546-.294l-.392-.34.831-.904.332.293zm2.387 5.141l.534-.47-1.163-1.29.83-.728.997 1.103.546-.481-1.008-1.103.795-.705 1.091 1.198.535-.47-1.733-1.925-3.24 2.864 1.816 2.007zm3.963-1.996l-3.549 2.477.558.787 1.53-1.068 1.128 1.584-1.53 1.056.557.799 3.549-2.477-.558-.786-1.412.986-1.128-1.585 1.412-.986-.557-.786zm-.357 7.29l1.661-.846.902 1.714-1.661.857.439.845 3.857-1.972-.44-.857-1.542.787-.902-1.714 1.543-.786-.451-.857-3.857 1.972.45.857zm7.116 5.68l-4.114 1.378.313.912 4.113-1.379-.312-.911zm-4.835-.704a2.4 2.4 0 00.308.61c.13.177.273.306.427.4a1.23 1.23 0 001.08.106 1.133 1.133 0 00.724-.692c.059-.166.083-.342.083-.541a2.381 2.381 0 00-.13-.657l-.25-.728 1.638-.552-.309-.904-4.118 1.374.546 1.584zm1.613-1.267l.19.54c.095.27.119.48.071.645-.047.164-.178.282-.391.352-.214.07-.392.059-.535-.047-.142-.105-.26-.293-.344-.563l-.178-.528 1.187-.4zm-.215 6.103l3.014 1.455c.107.047.202.094.285.13.083.035.154.058.201.07v.011c-.059 0-.154.012-.26.024-.108.012-.238.035-.392.059l-2.457.422.154.88 4.273-.739-.178-1.01-2.98-1.42c-.106-.047-.2-.093-.272-.117a1.372 1.372 0 01-.178-.07v-.012c.06 0 .142-.012.25-.024.106-.011.236-.035.379-.058l2.42-.423-.153-.88-4.273.74.167.962zm5.543.974c.237.188.534.27.866.247l-.095-.54a.708.708 0 01-.462-.153.66.66 0 01-.238-.41c-.071-.4.083-.658.463-.752l-.095-.54c-.332.07-.57.235-.736.481-.166.247-.213.54-.154.88.06.33.202.587.451.787zM9.15 47.195l-3.596.164.035.962 3.608-.164.06 1.315.735-.035-.166-3.592-.736.035.06 1.315zm-2.516 4.237l1.103-.164.214 1.479.712-.106-.213-1.467 1.056-.153.237 1.596.712-.105-.38-2.547-4.296.622.392 2.652.712-.105-.25-1.702zm4.854 5.27l-.261-1.033-1.389-.41a1.43 1.43 0 00-.19-.048.928.928 0 00-.19-.023v-.012c.107-.07.202-.152.285-.235l1.033-.986-.285-1.114-1.733 1.83-2.504-.892.285 1.092 1.543.446c.059.012.118.023.166.035a.451.451 0 00.118.012v.012c-.047.035-.094.058-.13.094-.036.023-.071.058-.107.093L7.014 56.69l.284 1.092 1.745-1.913 2.445.833zm1.235 3.146l-1.614.633-.712-1.807 1.602-.622-.356-.904-4.035 1.573.356.904 1.733-.681.724 1.807-1.745.67.356.903 4.047-1.573-.356-.903zm.072 6.736c.296-.047.605-.152.913-.317.273-.152.51-.34.689-.563.178-.223.308-.458.391-.716a1.9 1.9 0 00.06-.821 2.176 2.176 0 00-.297-.857c-.178-.305-.38-.564-.617-.751a2.107 2.107 0 00-.771-.4 2.081 2.081 0 00-.855-.046 2.709 2.709 0 00-.89.316c-.285.153-.51.34-.7.576a1.954 1.954 0 00-.428 1.549c.048.293.143.575.31.868.165.294.355.529.593.716.225.188.474.317.747.4.261.07.546.093.855.046zm-1.21-1.103a1.543 1.543 0 01-.357-.41 1.133 1.133 0 01-.083-.975c.06-.152.166-.293.297-.434.13-.141.296-.258.498-.376.202-.105.392-.188.582-.223.19-.047.367-.047.534-.012a1.135 1.135 0 01.819.587c.094.177.154.34.166.505.011.164-.012.317-.072.47a1.285 1.285 0 01-.308.434c-.143.14-.309.258-.522.375a2.327 2.327 0 01-.582.235c-.19.047-.368.047-.522.024a.972.972 0 01-.45-.2zm4.889.998c-.202.106-.404.211-.582.317-.19.094-.368.188-.546.281a11.04 11.04 0 01-.534.259c-.178.082-.344.164-.522.246-.226.106-.415.176-.57.247a2.823 2.823 0 01-.403.117.752.752 0 01-.285-.012.52.52 0 01-.202-.164.939.939 0 01-.154-.329l-.582.423c.06.164.155.317.273.481.143.188.297.329.463.4.166.081.332.117.499.117.166 0 .344-.036.522-.094.178-.059.356-.141.546-.223.13-.059.26-.118.403-.188.143-.07.297-.141.451-.223.154-.082.333-.165.522-.258.178-.094.38-.2.606-.317l.545.716-2.883 2.148.581.763 3.465-2.583-1.613-2.124zm4.176 6.561c.118-.258.178-.528.19-.798 0-.27-.048-.54-.155-.81a2.212 2.212 0 00-.522-.751 2.478 2.478 0 00-.795-.564 2.189 2.189 0 00-.843-.187c-.285 0-.57.058-.842.176a2.512 2.512 0 00-.772.528 2.51 2.51 0 00-.522.728 1.906 1.906 0 00-.178.798 2 2 0 00.178.81c.119.27.297.516.522.75.238.235.487.423.76.54.273.118.546.188.83.188.285 0 .558-.047.843-.176a2.65 2.65 0 00.795-.54c.214-.2.392-.434.51-.692zm-.867-.458a2.878 2.878 0 01-.403.505 1.981 1.981 0 01-.499.375 1.166 1.166 0 01-.985.083 1.334 1.334 0 01-.45-.306 1.256 1.256 0 01-.286-.434 1.1 1.1 0 01-.059-.481c.024-.164.071-.329.166-.493.095-.164.226-.329.38-.493.166-.153.332-.282.498-.364.167-.094.345-.14.51-.152.167-.012.333 0 .5.07.165.07.308.153.45.293.142.141.238.294.297.446.06.153.071.317.047.47a1.167 1.167 0 01-.166.481zm4.023 2.312l.45-.563-2.088-1.667-2.73 3.334.76.61 2.279-2.782 1.329 1.068zm3.454 1.386l-3.062 1.22a3.62 3.62 0 00-.439.2h-.012c.036-.047.083-.106.143-.2.059-.094.13-.188.213-.317l1.318-2.054-.76-.481-2.326 3.627.83.516 3.122-1.22c.107-.047.202-.083.285-.118.083-.035.142-.07.19-.094l.011.012c-.035.047-.095.117-.154.211l-.213.329L25.065 80l.76.48 2.325-3.626-.89-.576zm4.07 2.053l-.783 1.679c-.213.012-.403 0-.581-.024a1.74 1.74 0 01-.498-.14c-.202-.094-.32-.2-.368-.34-.048-.142-.024-.306.07-.517l.63-1.362-.878-.399-.689 1.479c-.178.376-.201.704-.083.986.119.282.368.516.76.68.213.095.439.165.664.2.226.035.463.047.7.035l-.747 1.62.878.4 1.816-3.897-.89-.4zm4.107 2.23l.226-.68-2.48-.81-1.353 4.084 2.575.834.213-.67-1.65-.54.357-1.044 1.424.458.225-.67-1.424-.469.333-.997 1.554.504zm2.101-.129c-.32.047-.606.141-.867.294a2.14 2.14 0 00-.652.61c-.178.247-.297.54-.38.88a2.28 2.28 0 00-.036.892c.048.282.142.528.297.752.154.223.356.41.605.575.25.152.546.27.89.352.534.117.997.129 1.365.047l.166-.763c-.356.117-.748.129-1.175.035a1.724 1.724 0 01-.581-.235 1.227 1.227 0 01-.392-.387 1.44 1.44 0 01-.19-.505 1.814 1.814 0 01.036-.61 1.73 1.73 0 01.237-.587c.107-.164.25-.305.404-.399.154-.106.344-.164.545-.2.202-.035.416-.023.653.024.38.082.7.246.973.481l.178-.81c-.273-.176-.64-.305-1.091-.41a2.782 2.782 0 00-.986-.036zm5.268.693l-1.495 1.655c-.036.035-.072.07-.095.117-.024.047-.06.082-.072.106h-.011l.201-2.02-.973-.093-.439 4.272.973.094.214-2.1h.012c.023.046.035.093.06.14.023.047.047.082.059.106l1.198 1.995 1.151.117-1.495-2.394 1.792-1.89-1.08-.105zm4.628.035l-1.851 2.711c-.072.106-.12.188-.167.247-.035.058-.07.117-.095.164h-.011c0-.059.011-.14.011-.247v-.387l-.07-2.43-.903.024.13 4.296.974-.024 1.887-2.734c.071-.094.119-.188.166-.259.047-.082.083-.14.095-.187h.012c0 .058-.012.152-.012.258v.387l.071 2.477.902-.024-.119-4.296-1.02.024zm5.031-.645l-1.448 2.934c-.048.106-.095.2-.119.27-.024.07-.047.129-.071.176h-.012c0-.059-.012-.141-.024-.247-.011-.105-.035-.234-.059-.375l-.415-2.395-.89.153.735 4.237.962-.164 1.483-2.981c.048-.106.095-.2.13-.282.036-.082.06-.153.072-.2h.012c0 .059.012.153.023.259.012.105.036.234.06.387l.427 2.441.89-.152-.736-4.237-1.02.176zm-1.198-.963c-.415.07-.664-.082-.76-.458l-.545.094c.071.329.237.564.486.728.25.164.546.211.89.152.333-.058.582-.2.784-.446a1.19 1.19 0 00.249-.856l-.546.094a.69.69 0 01-.154.457.596.596 0 01-.404.235zm7.655.845c-.012.106-.012.223-.024.317 0 .106-.012.211-.012.317l-.106-.141a1.057 1.057 0 00-.107-.117l-1.602-1.491-.985.364 2.587 2.265c-.024.14-.048.258-.083.352a.882.882 0 01-.13.258.548.548 0 01-.167.165.603.603 0 01-.19.105c-.19.07-.391.082-.593.06l.273.739c.083 0 .178-.012.285-.036.106-.023.237-.058.391-.117a1.9 1.9 0 00.534-.293 1.44 1.44 0 00.344-.411 2.23 2.23 0 00.202-.54c.048-.2.083-.434.107-.693l.344-3.298-.95.352-.118 1.843zm3.988-3.709l.794 1.502-1.732.904-.807-1.514-.855.458 2.03 3.79.854-.445-.866-1.632 1.732-.903.867 1.631.866-.446-2.03-3.803-.854.458zm4.2-2.758l.012 3.263v.293c0 .07.012.13.012.188l-.012.012c-.024-.047-.071-.118-.13-.212a8.656 8.656 0 00-.214-.316l-1.436-1.972-.724.528 2.54 3.474.795-.563v-3.31c0-.117 0-.223-.012-.305-.012-.094-.012-.165-.024-.212l.012-.011c.036.058.071.129.142.223.06.094.143.2.226.328l1.46 2.007.724-.528-2.54-3.474-.83.587zm6.112-1.292a1.081 1.081 0 00-.309-.222.804.804 0 00-.368-.082c-.13 0-.261.023-.403.07a1.57 1.57 0 00-.428.235l-.011-.012c.154-.247.225-.493.213-.716a.922.922 0 00-.261-.61.853.853 0 00-.783-.27c-.309.047-.641.234-1.009.575l-1.163 1.08 2.967 3.133 1.21-1.126c.178-.165.32-.34.428-.517.106-.176.178-.364.201-.54a1.255 1.255 0 00-.023-.516 1.065 1.065 0 00-.261-.481zm-2.611.658l-.748-.786.285-.259c.178-.176.344-.27.475-.305.13-.035.26.024.391.153.143.152.202.305.178.47-.024.164-.118.328-.296.48l-.285.247zm1.685 1.021l-.38.352-.843-.892.345-.317c.213-.2.403-.317.581-.34.178-.023.333.035.487.2.154.152.201.316.166.48-.048.165-.166.341-.356.517zm2.682-2.829l-.843-.715.974-1.127-.546-.47-.974 1.139-.818-.693 1.068-1.232-.546-.458-1.697 1.948 3.287 2.806 1.768-2.03-.534-.47-1.139 1.302zm1.96-3.79c.154-.212.261-.435.332-.646a1.42 1.42 0 00.072-.622 1.126 1.126 0 00-.178-.552 1.216 1.216 0 00-.416-.434c-.356-.246-.724-.317-1.08-.211-.356.105-.7.387-1.02.857l-.867 1.232 3.56 2.453.558-.786-1.258-.857.297-.434zm-.629-.282l-.213.317-1.187-.822.237-.34c.166-.235.332-.364.498-.423.167-.047.356-.012.546.13.214.14.32.316.345.504.011.188-.06.4-.226.634zm3.915-3.439a1.6 1.6 0 01-.38.481 1.18 1.18 0 01-.474.258 1.42 1.42 0 01-.546.036 1.635 1.635 0 01-.582-.2 1.745 1.745 0 01-.51-.399 1.238 1.238 0 01-.273-.505 1.522 1.522 0 01-.036-.575c.024-.2.095-.399.214-.61.19-.34.427-.599.736-.787l-.724-.387c-.25.211-.487.517-.7.927a2.762 2.762 0 00-.333.951c-.047.317-.023.622.048.904.083.282.213.552.403.786.19.235.44.446.748.599.285.152.57.246.854.282.285.035.558.011.807-.07a2.13 2.13 0 00.724-.412c.226-.2.427-.446.594-.75.26-.482.403-.905.427-1.292l-.689-.376c0 .388-.106.763-.308 1.139zm-1.258-6.174l1.804 2.735c.072.106.119.188.166.246l.12.153v.012a4.96 4.96 0 00-.226-.106 2.786 2.786 0 00-.356-.14l-2.29-.88-.321.832 4.047 1.561.356-.903-1.816-2.782a2.455 2.455 0 00-.178-.258c-.06-.07-.095-.13-.13-.165v-.01c.059.035.13.07.237.105.106.047.225.094.368.153l2.326.892.32-.833-4.047-1.561-.38.95zm1.544-2.488l3.489.868.237-.927-3.49-.88.321-1.268-.712-.176-.89 3.474.712.177.332-1.268zm3.64-3.31l-1.103-.164.226-1.479-.712-.106-.226 1.48-1.056-.165.25-1.596-.713-.106-.392 2.547 4.297.645.403-2.664-.712-.105-.261 1.713zm-2.479-3.72l3.596.164.047-.963-3.595-.164.059-1.314-.736-.036-.178 3.58.736.035.071-1.302zm1.2-4.754a1.104 1.104 0 002.208 0c0-.599-.499-1.092-1.104-1.092-.605 0-1.103.482-1.103 1.092z" fill="#37322F"/><path d="M50.734 43.38h-2.35v7.348h2.35V43.38zm3.549 0h-2.35v7.348h2.35V43.38zm3.534 0h-2.35v7.348h2.35V43.38zm3.537 0h-2.35v7.348h2.35V43.38zM33.94 31.397h-2.694v19.39h2.694v-19.39zm4.333 0H35.58v19.39h2.694v-19.39zm4.331 0H39.91v19.39h2.694v-19.39zm6.22 3.439a3.193 3.193 0 01-.783.223v.986c.201-.024.38-.047.534-.094.154-.047.308-.106.45-.188v3.18h1.33v-4.518h-.783c-.25.164-.499.305-.748.41zm5.149-.141a1.563 1.563 0 00-.902-.258c-.333 0-.617.07-.867.2a1.34 1.34 0 00-.581.563c-.13.246-.202.528-.202.856 0 .259.048.494.154.705.107.2.25.364.44.481.19.117.391.176.617.176.38 0 .664-.13.854-.376h.024c0 .33-.083.587-.25.752-.166.164-.403.258-.712.258a1.7 1.7 0 01-.45-.07 1.591 1.591 0 01-.392-.153v1.01a2.73 2.73 0 001.02.175c.641 0 1.14-.223 1.508-.657.368-.434.546-1.045.546-1.82 0-.434-.06-.797-.19-1.114a1.87 1.87 0 00-.617-.728zm-.63 1.655a.32.32 0 01-.284.152.334.334 0 01-.273-.14c-.071-.094-.107-.223-.107-.4 0-.187.036-.328.107-.41a.363.363 0 01.285-.13c.118 0 .201.048.273.153a.677.677 0 01.106.388.837.837 0 01-.106.387zm4.497-.329c-.391 0-.688.13-.901.376h-.024c.024-.305.119-.54.297-.728a.9.9 0 01.688-.282c.285 0 .522.059.724.188v-1.033a2.57 2.57 0 00-.819-.117c-.451 0-.83.094-1.151.293-.32.2-.57.493-.748.88a3.156 3.156 0 00-.273 1.327c0 .657.154 1.162.44 1.526.296.364.711.54 1.257.54.309 0 .594-.07.843-.212.25-.14.45-.328.581-.575a1.58 1.58 0 00.202-.81c0-.41-.107-.74-.308-.997-.178-.247-.463-.376-.807-.376zm-.225 1.843a.35.35 0 01-.285.152.317.317 0 01-.273-.152.677.677 0 01-.106-.387c0-.165.035-.294.094-.4a.35.35 0 01.285-.152c.13 0 .226.047.285.14a.72.72 0 01.095.388c.012.176-.024.317-.095.41zm3.871-1.725c-.107 0-.214 0-.344.023l.047-.622h1.495v-1.021h-2.527l-.167 2.652a3.86 3.86 0 01.76-.082c.546 0 .819.165.819.493 0 .153-.06.27-.178.352-.119.082-.297.13-.522.13-.345 0-.677-.083-.986-.247v1.021c.143.059.333.094.546.13.226.034.44.046.641.046.368 0 .689-.07.962-.2.273-.129.486-.316.629-.563a1.53 1.53 0 00.213-.81c0-.399-.119-.716-.368-.95-.237-.235-.581-.352-1.02-.352z" fill="#37322F"/><path d="M22.535 59.672l21.955-.047.736.833h1.827l.736-.834 21.86.106.012-21.925-2.552-.094.036-6.49-20.614.082v-4.108h-2.184l-2.397-1.678h-4.236v1.244h-1.341v-1.233h-4.308L29.69 27.23h-2.195v4.402h-2.469l-.035 5.974-2.469.188.012 21.878zm6.278-31.15h1.317l2.374-1.703h2.575v1.233h3.952v-1.233h2.516l2.397 1.679h1.293l-.011 22.3h1.305v-9.166l16.769.035v11.28H28.813V28.52zm-2.48 4.4h1.163v21.303h37.11v-13.85L46.53 40.34v-7.734l19.297-.082-.13 23.122H26.201l.13-22.723zm-1.341 5.975l-.107 18.04H66.99l.106-17.923 1.247.047-.012 19.378-21.148-.106-.736.834h-.629l-.736-.834-21.243.047-.011-19.401 1.163-.082zm22.573 26.89l7.986.011V64.39l-8.426-.012-1.127.775-1.127-.775h-8.403v1.409h7.963l1.579 1.08 1.555-1.08z" fill="#37322F"/></svg>