<svg width="21" height="16" viewBox="0 0 21 16" fill="none" xmlns="http://www.w3.org/2000/svg">
<path d="M5.2778 3.7222C5.06301 3.50741 4.71477 3.50741 4.49998 3.7222C4.28519 3.93699 4.28519 4.28523 4.49998 4.50002L5.2778 3.7222ZM9.78336 9.00558L10.1723 8.61667L9.78336 9.00558ZM10.8833 9.00558L11.2722 9.39449V9.39449L10.8833 9.00558ZM16.1667 4.50002C16.3815 4.28523 16.3815 3.93699 16.1667 3.7222C15.9519 3.50741 15.6037 3.50741 15.3889 3.7222L16.1667 4.50002ZM4.11199 15.55H16.5547V14.45H4.11199V15.55ZM20.2167 11.8889V4.11111H19.1167V11.8889H20.2167ZM16.5556 0.45H4.11111V1.55H16.5556V0.45ZM1.55 11.8889V4.11111H0.45V11.8889H1.55ZM4.11111 0.45C2.08913 0.45 0.45 2.08914 0.45 4.11111H1.55C1.55 2.69665 2.69665 1.55 4.11111 1.55V0.45ZM20.2167 4.11111C20.2167 2.08913 18.5775 0.45 16.5556 0.45V1.55C17.97 1.55 19.1167 2.69665 19.1167 4.11111H20.2167ZM16.5547 15.55C18.5764 15.55 20.2167 13.9111 20.2167 11.8889H19.1167C19.1167 13.3031 17.9693 14.45 16.5547 14.45V15.55ZM4.11199 14.45C2.69733 14.45 1.55 13.3031 1.55 11.8889H0.45C0.45 13.9111 2.09022 15.55 4.11199 15.55V14.45ZM4.49998 4.50002L9.39445 9.39449L10.1723 8.61667L5.2778 3.7222L4.49998 4.50002ZM11.2722 9.39449L16.1667 4.50002L15.3889 3.7222L10.4944 8.61667L11.2722 9.39449ZM9.39445 9.39449C9.91298 9.91302 10.7537 9.91302 11.2722 9.39449L10.4944 8.61667C10.4054 8.70563 10.2612 8.70563 10.1723 8.61667L9.39445 9.39449Z" fill="white"/>
</svg>
