<svg width="17" height="17" viewBox="0 0 17 17" fill="none" xmlns="http://www.w3.org/2000/svg">
<path d="M1.88889 0H15.1111C15.6121 0 16.0925 0.199007 16.4468 0.553243C16.801 0.907478 17 1.38792 17 1.88889V15.1111C17 15.6121 16.801 16.0925 16.4468 16.4468C16.0925 16.801 15.6121 17 15.1111 17H1.88889C1.38792 17 0.907478 16.801 0.553243 16.4468C0.199007 16.0925 0 15.6121 0 15.1111V1.88889C0 1.38792 0.199007 0.907478 0.553243 0.553243C0.907478 0.199007 1.38792 0 1.88889 0ZM4.25 11.3333C3.87428 11.3333 3.51394 11.4826 3.24827 11.7483C2.98259 12.0139 2.83333 12.3743 2.83333 12.75C2.83333 13.1257 2.98259 13.4861 3.24827 13.7517C3.51394 14.0174 3.87428 14.1667 4.25 14.1667C4.62572 14.1667 4.98606 14.0174 5.25173 13.7517C5.51741 13.4861 5.66667 13.1257 5.66667 12.75C5.66667 12.3743 5.51741 12.0139 5.25173 11.7483C4.98606 11.4826 4.62572 11.3333 4.25 11.3333ZM2.83333 6.61111V8.5C4.33623 8.5 5.77757 9.09702 6.84027 10.1597C7.90298 11.2224 8.5 12.6638 8.5 14.1667H10.3889C10.3889 12.1628 9.59286 10.241 8.17592 8.82408C6.75898 7.40714 4.83719 6.61111 2.83333 6.61111ZM2.83333 2.83333V4.72222C5.33816 4.72222 7.74039 5.71726 9.51156 7.48844C11.2827 9.25961 12.2778 11.6618 12.2778 14.1667H14.1667C14.1667 11.1609 12.9726 8.2782 10.8472 6.15279C8.7218 4.02738 5.83912 2.83333 2.83333 2.83333Z" fill="#8A2BE2"/>
</svg>
