<svg width="103" height="103" viewBox="0 0 103 103" fill="none" xmlns="http://www.w3.org/2000/svg">
<path d="M6.76899 49.8211C6.76899 50.5062 7.33315 51.0703 8.0182 51.0703C8.70326 51.0703 9.26743 50.5062 9.26743 49.8211C9.26743 49.1361 8.70326 48.5719 8.0182 48.5719C7.31972 48.5719 6.76899 49.1226 6.76899 49.8211Z" fill="white"/>
<path d="M51.5 0C23.1038 0 0 23.1038 0 51.5C0 79.8962 23.1038 103 51.5 103C79.8962 103 103 79.8962 103 51.5C103 23.1038 79.8962 0 51.5 0ZM51.5 101.657C23.8426 101.657 1.34324 79.1574 1.34324 51.5C1.34324 23.8426 23.8426 1.34324 51.5 1.34324C79.1574 1.34324 101.657 23.8426 101.657 51.5C101.657 79.1574 79.1574 101.657 51.5 101.657Z" fill="white"/>
<path d="M14.9085 51.4597C14.9085 71.6621 31.3498 88.1034 51.5522 88.1034C71.7546 88.1034 88.1959 71.6621 88.1959 51.4597C88.1959 31.2573 71.7546 14.816 51.5522 14.816C31.3498 14.816 14.9085 31.2573 14.9085 51.4597ZM51.5522 16.2935C70.9352 16.2935 86.7184 32.0632 86.7184 51.4597C86.7184 70.8561 70.9487 86.6258 51.5522 86.6258C32.1558 86.6258 16.3861 70.8561 16.3861 51.4597C16.3861 32.0632 32.1558 16.2935 51.5522 16.2935Z" fill="white"/>
<path d="M11.6043 43.4405C11.6446 43.1718 11.6581 42.9166 11.6312 42.6748C11.6043 42.433 11.5372 42.2181 11.4431 42.0435C11.3491 41.8554 11.2148 41.7077 11.0536 41.5868C10.8924 41.4659 10.7044 41.3853 10.4894 41.345C10.3417 41.3181 10.1939 41.3181 10.0462 41.345C9.89841 41.3719 9.77752 41.439 9.65663 41.5196C9.53574 41.6002 9.42827 41.7211 9.33424 41.8554C9.24022 42.0032 9.15962 42.1643 9.10589 42.3658H9.09247C9.0656 42.03 8.95814 41.7614 8.79695 41.5599C8.63576 41.3584 8.42084 41.2375 8.13876 41.1838C7.78951 41.13 7.494 41.2241 7.23879 41.4659C6.997 41.7211 6.82237 42.1241 6.72835 42.6748L6.4194 44.4613L11.2685 45.2941L11.6043 43.4405ZM8.67607 43.3061L8.6089 43.7225L7.38654 43.5076L7.46713 43.0778C7.52086 42.7957 7.58803 42.5942 7.68206 42.4733C7.77609 42.3524 7.93727 42.3121 8.13876 42.3524C8.36711 42.3927 8.5283 42.5002 8.62233 42.6614C8.70292 42.8091 8.71636 43.0375 8.67607 43.3061ZM10.8252 43.4942L10.7312 44.0718L9.36111 43.8434L9.45515 43.3196C9.50888 42.9972 9.60289 42.7554 9.75065 42.6211C9.88497 42.4733 10.073 42.433 10.3148 42.4733C10.5566 42.5136 10.7178 42.6211 10.7984 42.7957C10.8656 42.9703 10.879 43.1986 10.8252 43.4942Z" fill="white"/>
<path d="M12.3984 39.8406L10.1149 36.8183C10.0343 36.7109 9.9671 36.6169 9.89994 36.5363C9.83278 36.4557 9.77906 36.4019 9.73876 36.3616V36.3482C9.80592 36.3751 9.89996 36.4154 10.0209 36.4557C10.1417 36.496 10.2895 36.5497 10.4507 36.59L13.1506 37.4228L13.4461 36.4422L8.74475 35.005L8.39551 36.1333L10.6522 39.1153C10.7328 39.2228 10.7999 39.3168 10.8537 39.3839C10.9074 39.4511 10.9611 39.5049 11.0014 39.5452V39.5586C10.9477 39.5317 10.8537 39.4914 10.7462 39.4511C10.6387 39.4108 10.491 39.3705 10.3298 39.3168L7.67017 38.4974L7.37465 39.4645L12.076 40.9153L12.3984 39.8406Z" fill="white"/>
<path d="M11.5793 30.5856L10.8136 30.2498L9.13457 33.9974L9.90021 34.3332L10.5181 32.9631L14.2389 34.6288L14.6956 33.6213L10.9614 31.9557L11.5793 30.5856Z" fill="white"/>
<path d="M17.1131 29.0811L16.4146 28.6781L15.434 30.3975L14.3325 29.7662L15.1788 28.2886L14.4803 27.8856L13.6341 29.3632L12.5729 28.7587L13.4997 27.1603L12.7878 26.7573L11.3237 29.3095L15.5952 31.7542L17.1131 29.0811Z" fill="white"/>
<path d="M18.644 26.8916C18.8186 26.6498 18.9395 26.4214 19.0201 26.1931C19.1007 25.9647 19.1275 25.7498 19.1141 25.5349C19.1007 25.3334 19.047 25.1319 18.9395 24.9573C18.832 24.7827 18.6843 24.6215 18.4962 24.4737C18.3216 24.3529 18.1335 24.2722 17.9455 24.2319C17.7574 24.1916 17.5694 24.2051 17.3813 24.2588C17.1933 24.3126 17.0052 24.4066 16.8172 24.5409C16.6291 24.6752 16.4545 24.8633 16.2933 25.0916L15.7829 25.8035L14.856 25.1319L16.0918 23.426L15.4336 22.9559L13.5665 25.5618L17.556 28.4363L18.644 26.8916ZM16.7903 25.723C16.9918 25.4543 17.1798 25.2797 17.3545 25.226C17.5291 25.1588 17.7306 25.2125 17.9321 25.3603C18.147 25.508 18.241 25.6826 18.241 25.8841C18.241 26.0856 18.1335 26.314 17.9455 26.5826L17.5694 27.1065L16.4142 26.2737L16.7903 25.723Z" fill="white"/>
<path d="M18.1866 23.5604C18.4552 23.8021 18.7507 23.9902 19.0462 24.0977C19.3552 24.2051 19.6507 24.2588 19.9596 24.232C20.2686 24.2051 20.5641 24.1245 20.8731 23.9634C21.1686 23.8022 21.4506 23.5738 21.7193 23.2783C22.1357 22.8216 22.4043 22.3783 22.5387 21.9619L21.8805 21.3709C21.7865 21.7873 21.585 22.1768 21.2626 22.5395C21.088 22.7276 20.8999 22.8753 20.7118 22.9828C20.5238 23.0902 20.3223 23.1439 20.1208 23.1439C19.9193 23.1574 19.7179 23.1171 19.5029 23.0365C19.288 22.9559 19.1 22.835 18.9119 22.6604C18.7104 22.4858 18.5627 22.2843 18.4552 22.0828C18.3477 21.8813 18.294 21.6664 18.2806 21.4515C18.2671 21.2366 18.3074 21.0216 18.388 20.8067C18.4686 20.5918 18.6029 20.3769 18.7776 20.1888C19.0731 19.8665 19.4089 19.6381 19.7985 19.5038L19.1 18.8724C18.7776 19.0471 18.4283 19.3291 18.0791 19.7187C17.797 20.0276 17.5955 20.35 17.4612 20.6858C17.3269 21.0216 17.2597 21.3709 17.2731 21.7067C17.2866 22.0425 17.3672 22.3783 17.5149 22.6873C17.6761 23.0096 17.9045 23.2917 18.1866 23.5604Z" fill="white"/>
<path d="M24.0571 20.8473L22.4587 19.0474L22.4721 19.0339C22.5258 19.0608 22.5796 19.0742 22.6467 19.0877C22.7005 19.1011 22.7542 19.1145 22.7811 19.128L25.387 19.6921L26.3675 18.819L23.2109 18.2011L22.996 15.246L22.0826 16.0519L22.3109 18.5772C22.3109 18.631 22.3244 18.6847 22.3378 18.7518C22.3512 18.8056 22.3512 18.8593 22.3647 18.8996L22.3512 18.913L20.8199 17.1802L20.0005 17.9056L23.2646 21.5861L24.0571 20.8473Z" fill="white"/>
<path d="M27.537 17.9859L27.6445 14.1979C27.6445 14.0636 27.6445 13.9427 27.6445 13.8352C27.6445 13.7278 27.6311 13.6472 27.6311 13.5935L27.6445 13.58C27.6713 13.6472 27.7251 13.7278 27.7922 13.8352C27.8594 13.9427 27.94 14.0636 28.034 14.2113L29.6325 16.5486L30.4787 15.971L27.7116 11.9144L26.7445 12.5726L26.6505 16.3068C26.6505 16.4411 26.6505 16.562 26.6505 16.6426C26.6505 16.7232 26.6505 16.8038 26.6639 16.8575L26.6505 16.871C26.6236 16.8172 26.5699 16.7366 26.5162 16.6292C26.449 16.5217 26.3684 16.4008 26.2744 16.2665L24.7162 13.9696L23.87 14.5472L26.637 18.6037L27.537 17.9859Z" fill="white"/>
<path d="M31.7127 13.5131C31.6992 13.5937 31.6992 13.6743 31.6992 13.7281H31.6858C31.6589 13.6743 31.6321 13.5803 31.5783 13.4728C31.5246 13.3654 31.4709 13.2311 31.3903 13.0833L30.1679 10.5848L29.2545 11.0281L31.4171 15.4474L32.4112 14.9638L33.0559 11.2296C33.0828 11.0953 33.0962 10.9878 33.1096 10.8804C33.1231 10.7729 33.1231 10.6923 33.1231 10.6386L33.1365 10.6251C33.1634 10.6923 33.1902 10.7863 33.244 10.8938C33.2977 11.0147 33.3649 11.149 33.432 11.2968L34.6812 13.8355L35.5946 13.3923L33.432 8.97297L32.3709 9.48341L31.7395 13.1773C31.7395 13.3117 31.7127 13.4326 31.7127 13.5131Z" fill="white"/>
<path d="M29.9943 9.46997C30.3167 9.564 30.6525 9.52372 31.0152 9.36253C31.351 9.20134 31.5927 8.95953 31.7271 8.62372C31.8614 8.30134 31.8614 7.96552 31.7271 7.60284L31.1629 7.87151C31.2301 8.073 31.2166 8.24762 31.1495 8.42224C31.0823 8.59686 30.948 8.71777 30.7734 8.8118C30.357 9.01328 30.0212 8.93267 29.7928 8.54313L29.2286 8.8118C29.4167 9.16104 29.6719 9.37595 29.9943 9.46997Z" fill="white"/>
<path d="M39.9205 11.9415L38.7922 8.00584L40.6593 7.46855L40.4309 6.67604L37.5161 7.52225L38.8728 12.237L39.9205 11.9415Z" fill="white"/>
<path d="M41.7082 9.9667C41.8828 10.2488 42.0977 10.4772 42.3529 10.6518C42.6081 10.8264 42.9037 10.9473 43.226 11.0144C43.5484 11.0816 43.8977 11.0816 44.2738 11.0144C44.6499 10.9473 44.9857 10.8264 45.2812 10.6518C45.5767 10.4772 45.8051 10.2622 45.9931 10.007C46.1812 9.75178 46.3021 9.44286 46.3692 9.10705C46.4364 8.77124 46.4364 8.40857 46.3692 8.01902C46.3021 7.66978 46.1946 7.34737 46.0334 7.06529C45.8722 6.78321 45.6573 6.55487 45.4021 6.36682C45.1469 6.17876 44.8648 6.05787 44.5424 5.99071C44.22 5.92355 43.8708 5.9101 43.5081 5.97727C43.1051 6.04443 42.7559 6.16532 42.4604 6.35337C42.1649 6.528 41.9231 6.75635 41.735 7.025C41.547 7.29365 41.4261 7.58918 41.3589 7.92499C41.2918 8.2608 41.2918 8.61005 41.3589 8.98616C41.4261 9.3757 41.5335 9.68462 41.7082 9.9667ZM42.6484 7.48169C42.7425 7.30707 42.8768 7.17275 43.038 7.06529C43.1992 6.95783 43.3872 6.87726 43.6021 6.83696C43.8305 6.79667 44.032 6.79664 44.2066 6.85037C44.3947 6.89067 44.5558 6.9847 44.6902 7.10559C44.8245 7.22648 44.9454 7.40109 45.0394 7.60258C45.1334 7.80407 45.2006 8.03245 45.2543 8.3011C45.2946 8.56974 45.3081 8.79809 45.2812 9.01301C45.2543 9.22793 45.2006 9.41596 45.1066 9.57715C45.0125 9.73834 44.8917 9.87269 44.7305 9.98015C44.5693 10.0876 44.3812 10.1548 44.1529 10.1951C43.9379 10.2354 43.7499 10.2219 43.5619 10.1816C43.3738 10.1279 43.2126 10.0473 43.0783 9.91296C42.9305 9.79207 42.8096 9.6309 42.7156 9.42942C42.6216 9.22793 42.541 9.01301 42.5007 8.75779C42.4604 8.50258 42.4469 8.27423 42.4738 8.04588C42.5007 7.81752 42.5544 7.64288 42.6484 7.48169Z" fill="white"/>
<path d="M47.7782 9.8862C48.0065 10.0877 48.2886 10.2354 48.611 10.3429C48.9334 10.4369 49.296 10.4907 49.699 10.4638C50.3169 10.4369 50.8139 10.3161 51.2169 10.1146L51.1766 9.22802C50.8139 9.45638 50.3975 9.5907 49.9139 9.60413C49.6587 9.61756 49.4169 9.5907 49.2155 9.52354C49.0005 9.45638 48.8259 9.3489 48.6782 9.21458C48.5304 9.08025 48.4095 8.90563 48.3289 8.70414C48.2483 8.50265 48.1946 8.27433 48.1811 8.01911C48.1677 7.75046 48.1946 7.50867 48.2752 7.29375C48.3423 7.07883 48.4498 6.89076 48.5976 6.72957C48.7453 6.56838 48.9199 6.44749 49.1349 6.35346C49.3498 6.25943 49.5916 6.20571 49.8602 6.19228C50.3035 6.16541 50.7065 6.246 51.0691 6.43405L51.0288 5.4938C50.6796 5.38634 50.2363 5.33261 49.7124 5.35947C49.296 5.3729 48.9199 5.46692 48.5841 5.60125C48.2483 5.749 47.9662 5.93705 47.7379 6.17883C47.4961 6.42062 47.3215 6.70272 47.2006 7.03853C47.0797 7.37434 47.026 7.72358 47.0528 8.12655C47.0663 8.48923 47.1469 8.82503 47.2812 9.12054C47.3618 9.44292 47.5498 9.68471 47.7782 9.8862Z" fill="white"/>
<path d="M52.4395 10.4505C52.7082 10.4639 52.9365 10.4505 53.1246 10.3968C53.3126 10.343 53.5007 10.249 53.6619 10.1281C53.823 10.0072 53.9708 9.84604 54.1186 9.65799C54.2663 9.46993 54.4006 9.24158 54.5618 8.98637L56.4693 5.6954L55.3141 5.62825L54.3201 7.50879C54.2663 7.61625 54.1992 7.73713 54.1454 7.83115C54.0917 7.93861 54.038 8.04606 53.9842 8.15352C53.9708 8.08636 53.9574 8.01922 53.9305 7.96549C53.9037 7.91176 53.8902 7.84459 53.8768 7.79086L52.9231 5.49392L51.741 5.41333L53.3529 8.97292C53.2723 9.10725 53.1783 9.2147 53.0977 9.30873C53.0171 9.40276 52.9365 9.46991 52.8425 9.51021C52.7619 9.56394 52.6813 9.59079 52.6007 9.61765C52.5201 9.63108 52.4395 9.64453 52.3589 9.6311C52.1306 9.61767 51.9156 9.53707 51.7142 9.41617L51.6604 10.3162C51.7545 10.3565 51.8485 10.3967 51.9694 10.4236C52.1037 10.4236 52.2515 10.4371 52.4395 10.4505Z" fill="white"/>
<path d="M55.4761 9.68475L55.1 11.7937L56.0805 11.9682L56.3089 10.6519L59.7207 11.2563L59.4924 12.5593L60.473 12.7339L60.7013 11.4444L61.7356 11.7668L62.4475 10.7862L64.2206 11.337L64.2743 12.5459L65.4161 12.8951L65.0669 7.64303L63.8848 7.28033L60.7416 11.2429L60.8491 10.625L60.1103 10.4907L60.8222 6.44753L57.8939 5.93709C57.8133 6.29976 57.7059 6.64902 57.5715 6.99826C57.4372 7.3475 57.2895 7.68332 57.1283 8.00569C56.9536 8.32807 56.779 8.63702 56.5775 8.93254C56.3761 9.22805 56.1611 9.49668 55.9462 9.7519L55.4761 9.68475ZM63.8982 8.7982C63.952 8.71761 64.0057 8.63702 64.0594 8.55643C64.1132 8.47584 64.1534 8.40867 64.1803 8.34151L64.2072 8.35495C64.1937 8.42211 64.1803 8.5161 64.1803 8.61013C64.1803 8.70416 64.1803 8.7982 64.1803 8.8788L64.234 10.531L62.958 10.1414L63.8982 8.7982ZM57.5581 9.28175C57.7193 9.02654 57.8805 8.75789 58.0282 8.48924C58.176 8.22059 58.3103 7.93853 58.4178 7.66988C58.5253 7.40123 58.6193 7.14602 58.673 6.91767L59.5998 7.07885L59.0357 10.3161L57.0746 9.96682C57.2357 9.76533 57.3969 9.53697 57.5581 9.28175Z" fill="white"/>
<path d="M67.445 11.9413L67.9689 12.1697C68.251 12.2906 68.5062 12.3577 68.7748 12.3846C69.0301 12.4115 69.2718 12.3846 69.4868 12.3309C69.7017 12.2771 69.9032 12.1563 70.0644 12.0085C70.2256 11.8607 70.3733 11.6727 70.4673 11.4443C70.6688 10.9876 70.6688 10.5712 70.4673 10.2085C70.2659 9.83241 69.8763 9.52349 69.2853 9.26827L67.7137 8.5832L65.7391 13.0831L66.7465 13.5263L67.445 11.9413ZM68.4122 9.73841L68.842 9.92645C69.1375 10.0608 69.3256 10.2085 69.4196 10.3831C69.5136 10.5578 69.5002 10.7727 69.3927 11.0279C69.2719 11.2966 69.1107 11.4577 68.9092 11.5249C68.7077 11.5921 68.4525 11.5518 68.1435 11.4175L67.7405 11.2428L68.4122 9.73841Z" fill="white"/>
<path d="M70.2388 13.6338C70.1851 13.9562 70.2119 14.2651 70.2925 14.5606C70.3731 14.8561 70.5209 15.1382 70.7492 15.3934C70.9641 15.6486 71.2462 15.8904 71.5955 16.0785C72.1328 16.3874 72.6163 16.562 73.0462 16.6023L73.4895 15.8367C73.0596 15.8367 72.6432 15.7158 72.2134 15.474C71.985 15.3397 71.8104 15.192 71.6626 15.0308C71.5283 14.8561 71.4343 14.6815 71.3806 14.48C71.3268 14.2785 71.3268 14.077 71.3537 13.8621C71.394 13.6472 71.4746 13.4323 71.5955 13.2039C71.7298 12.9756 71.8776 12.7875 72.0656 12.6397C72.2402 12.492 72.4417 12.398 72.6432 12.3443C72.8447 12.2905 73.0731 12.2771 73.3014 12.3174C73.5298 12.3577 73.7581 12.4383 73.9865 12.5726C74.3626 12.801 74.6581 13.0831 74.873 13.4323L75.3431 12.6129C75.1013 12.3308 74.7655 12.0488 74.3088 11.7935C73.9462 11.5786 73.5835 11.4443 73.2342 11.3905C72.8716 11.3234 72.5357 11.3368 72.1999 11.4174C71.8641 11.498 71.5686 11.6458 71.2865 11.8472C71.0045 12.0487 70.7761 12.3308 70.5746 12.6801C70.4134 13.0025 70.2925 13.3248 70.2388 13.6338Z" fill="white"/>
<path d="M79.2788 15.2997L75.9744 12.8818L75.4774 13.5535L76.6863 14.44L74.2819 17.7309L75.1685 18.3891L77.5729 15.0847L78.7952 15.9713L79.2788 15.2997Z" fill="white"/>
<path d="M78.2037 20.9007C78.4052 21.0888 78.6201 21.2365 78.835 21.344C79.0499 21.4514 79.2649 21.5052 79.4663 21.532C79.6678 21.5455 79.8693 21.5186 80.0574 21.4515C80.2454 21.3843 80.4066 21.2634 80.5544 21.1022C80.6618 20.9947 80.729 20.8604 80.7827 20.7261C80.8364 20.5918 80.8499 20.444 80.8499 20.2962C80.8364 20.1485 80.8096 20.0007 80.729 19.8395C80.6618 19.6784 80.5544 19.5306 80.42 19.3828L80.4335 19.3694C80.729 19.5172 81.0111 19.5843 81.2797 19.5575C81.5349 19.5306 81.7633 19.4097 81.9513 19.2082C82.1931 18.9396 82.2737 18.6441 82.1931 18.2948C82.1125 17.9456 81.8708 17.5963 81.4543 17.2068L80.1111 15.9978L76.8067 19.6381L78.2037 20.9007ZM80.42 17.3008L80.7424 17.5963C80.9573 17.7844 81.0917 17.959 81.132 18.1067C81.1857 18.2545 81.132 18.4023 80.9976 18.55C80.8364 18.7247 80.6618 18.8052 80.4872 18.7918C80.2991 18.7784 80.1111 18.6844 79.9096 18.4963L79.6007 18.2142L80.42 17.3008ZM79.4529 19.1411C79.6947 19.3694 79.8424 19.5709 79.8962 19.7724C79.9365 19.9604 79.8828 20.1485 79.7216 20.3365C79.5604 20.5246 79.3857 20.5918 79.1977 20.5649C79.0096 20.538 78.8081 20.4171 78.5798 20.2291L78.1365 19.8395L79.0768 18.8053L79.4529 19.1411Z" fill="white"/>
<path d="M82.1542 25.0246L82.7586 24.4873L81.4423 23.0097L82.3825 22.1769L83.5108 23.4395L84.1288 22.8888L82.987 21.6261L83.887 20.8202L85.1227 22.1903L85.7272 21.653L83.7661 19.4501L80.099 22.7276L82.1542 25.0246Z" fill="white"/>
<path d="M86.6394 22.741L82.6231 25.5753L83.2544 26.4752L84.9872 25.2529L86.2633 27.0663L84.5305 28.2752L85.1619 29.1886L89.1781 26.3544L88.5468 25.4544L86.9484 26.5827L85.6723 24.7693L87.2707 23.641L86.6394 22.741Z" fill="white"/>
<path d="M86.2354 31.0826L88.116 30.1155L89.1369 32.0766L87.2563 33.0572L87.7533 34.0243L92.1189 31.7677L91.6219 30.7871L89.8756 31.6871L88.8548 29.7259L90.601 28.826L90.0906 27.8454L85.725 30.1021L86.2354 31.0826Z" fill="white"/>
<path d="M94.2905 37.583L89.6343 39.1606L89.9877 40.2038L94.6439 38.6262L94.2905 37.583Z" fill="white"/>
<path d="M88.8166 36.7781C88.9107 37.0467 89.0315 37.2885 89.1659 37.4766C89.3136 37.6781 89.4748 37.8258 89.6494 37.9333C89.8241 38.0407 90.0255 38.1079 90.227 38.1348C90.4285 38.1616 90.6434 38.1348 90.8718 38.0542C91.0733 37.987 91.2479 37.8795 91.3822 37.7452C91.5165 37.6109 91.624 37.4497 91.6912 37.2617C91.7583 37.0736 91.7852 36.8721 91.7852 36.6438C91.7718 36.4154 91.7315 36.1602 91.6374 35.8916L91.3554 35.0587L93.209 34.4274L92.8598 33.3931L88.1987 34.9647L88.8166 36.7781ZM90.6434 35.3274L90.8584 35.9453C90.9658 36.2542 90.9927 36.496 90.9389 36.6841C90.8852 36.8721 90.7375 37.0064 90.4957 37.087C90.2539 37.1676 90.0524 37.1542 89.8912 37.0333C89.73 36.9124 89.5957 36.6975 89.5017 36.3885L89.3002 35.7841L90.6434 35.3274Z" fill="white"/>
<path d="M90.3994 42.3121L93.8113 43.9778C93.9322 44.0315 94.0396 44.0852 94.1337 44.1255C94.2277 44.1658 94.3083 44.1927 94.362 44.2061V44.2195C94.2949 44.2195 94.1874 44.233 94.0665 44.2464C93.9456 44.2599 93.7979 44.2867 93.6232 44.3136L90.8427 44.7971L91.0173 45.8045L95.853 44.9583L95.6516 43.8031L92.28 42.1778C92.1591 42.1241 92.0516 42.0703 91.971 42.0435C91.8904 42.0166 91.8233 41.9898 91.7696 41.9629V41.9494C91.8367 41.9494 91.9307 41.936 92.0516 41.9226C92.1725 41.9092 92.3203 41.8823 92.4815 41.8554L95.2217 41.3719L95.0471 40.3644L90.2114 41.2107L90.3994 42.3121Z" fill="white"/>
<path d="M96.674 43.4271C96.9427 43.6421 97.2785 43.7361 97.6546 43.7092L97.5471 43.0913C97.3457 43.0913 97.171 43.0376 97.0233 42.9167C96.8755 42.7958 96.7949 42.648 96.7546 42.4466C96.674 41.9899 96.8487 41.6944 97.2785 41.5869L97.171 40.969C96.7949 41.0496 96.5263 41.2376 96.3382 41.5197C96.1502 41.8018 96.0965 42.1376 96.1636 42.5272C96.2308 42.9033 96.392 43.1988 96.674 43.4271Z" fill="white"/>
<path d="M10.3561 54.0118L6.28608 54.1998L6.32638 55.3013L10.4098 55.1133L10.477 56.6177L11.3098 56.5774L11.1218 52.4671L10.2889 52.5074L10.3561 54.0118Z" fill="white"/>
<path d="M7.50859 58.8611L8.75782 58.6731L8.99959 60.3656L9.80555 60.2446L9.56376 58.5656L10.7592 58.391L11.0279 60.2178L11.8338 60.0969L11.404 57.182L6.54145 57.894L6.98473 60.9297L7.79068 60.8088L7.50859 58.8611Z" fill="white"/>
<path d="M13.0025 64.8923L12.707 63.7102L11.1354 63.2401C11.0548 63.2132 10.9876 63.1998 10.9205 63.1863C10.8533 63.1729 10.7861 63.1595 10.7055 63.1595V63.146C10.8264 63.0654 10.9339 62.9714 11.0279 62.8774L12.1965 61.7491L11.8742 60.473L9.91303 62.5685L7.07878 61.5476L7.40115 62.7968L9.14737 63.3072C9.21453 63.3207 9.28169 63.3341 9.33542 63.3475C9.38915 63.361 9.42946 63.361 9.46976 63.361V63.3744C9.41603 63.4147 9.3623 63.4416 9.322 63.4818C9.2817 63.5087 9.24141 63.549 9.20111 63.5893L7.93846 64.8788L8.26084 66.1281L10.2354 63.9386L13.0025 64.8923Z" fill="white"/>
<path d="M14.4005 68.4922L12.5737 69.2176L11.7678 67.149L13.5812 66.4371L13.1782 65.4028L8.61116 67.2027L9.01414 68.237L10.9753 67.458L11.7946 69.5265L9.82007 70.2922L10.2231 71.3265L14.8035 69.5265L14.4005 68.4922Z" fill="white"/>
<path d="M14.4818 76.2021C14.8176 76.1484 15.1668 76.0275 15.5161 75.8395C15.825 75.6649 16.0937 75.4499 16.2951 75.1947C16.4966 74.9395 16.6444 74.6709 16.7384 74.3753C16.8324 74.0798 16.8459 73.7709 16.8056 73.4351C16.7653 73.0992 16.6578 72.7769 16.4698 72.4545C16.2683 72.1053 16.0399 71.8097 15.7713 71.5948C15.5026 71.3799 15.2071 71.2187 14.8982 71.1381C14.5892 71.0575 14.2668 71.0306 13.931 71.0844C13.5952 71.1381 13.2594 71.259 12.9236 71.4471C12.6012 71.6217 12.346 71.8366 12.1311 72.1053C11.9162 72.3739 11.7818 72.6425 11.7013 72.9381C11.6207 73.2336 11.5938 73.556 11.6475 73.8783C11.7012 74.2142 11.8087 74.5365 11.9968 74.8723C12.1848 75.2081 12.3997 75.4768 12.6684 75.6917C12.9236 75.9066 13.2057 76.0544 13.5146 76.1484C13.8101 76.229 14.1325 76.2559 14.4818 76.2021ZM13.1116 74.9395C12.9639 74.8186 12.8296 74.6709 12.7087 74.4694C12.6012 74.2813 12.5475 74.0933 12.5341 73.9052C12.5206 73.7171 12.5475 73.5291 12.6146 73.3545C12.6818 73.1798 12.8027 73.0187 12.9505 72.8575C13.0982 72.6963 13.2863 72.5619 13.5146 72.4276C13.743 72.3067 13.9579 72.2127 14.1728 72.1724C14.3877 72.1187 14.5892 72.1187 14.7773 72.159C14.9653 72.1859 15.1399 72.2664 15.3011 72.3739C15.4623 72.4813 15.5967 72.6426 15.7041 72.8306C15.8116 73.0321 15.8787 73.2202 15.8922 73.4082C15.9056 73.5963 15.8787 73.7709 15.8116 73.9455C15.7444 74.1201 15.6235 74.2813 15.4623 74.4425C15.3011 74.6037 15.1131 74.738 14.8713 74.8723C14.643 75.0067 14.4146 75.0873 14.2131 75.141C13.9982 75.1947 13.7967 75.1947 13.6221 75.1678C13.434 75.141 13.2728 75.0604 13.1116 74.9395Z" fill="white"/>
<path d="M18.6458 76.0814C18.4175 76.2023 18.1891 76.3232 17.9876 76.4441C17.7727 76.5515 17.5713 76.659 17.3698 76.7665C17.1683 76.8739 16.9668 76.968 16.7653 77.062C16.5638 77.156 16.3758 77.25 16.1743 77.3441C15.9191 77.465 15.7041 77.5455 15.5295 77.6261C15.3549 77.6933 15.1937 77.7336 15.0728 77.7605C14.9519 77.7739 14.8444 77.7739 14.7504 77.747C14.6698 77.7067 14.5892 77.653 14.5221 77.559C14.4415 77.4515 14.3878 77.3306 14.3475 77.1829L13.6893 77.6664C13.7564 77.8545 13.8639 78.0291 13.9982 78.2172C14.1594 78.4321 14.334 78.5933 14.5221 78.6739C14.7101 78.7679 14.8982 78.8082 15.0862 78.8082C15.2743 78.8082 15.4758 78.7679 15.6773 78.7008C15.8788 78.6336 16.0802 78.5396 16.2952 78.4455C16.4429 78.3784 16.5907 78.3112 16.7519 78.2306C16.9131 78.15 17.0877 78.0694 17.2623 77.9754C17.4369 77.8814 17.6384 77.7873 17.8533 77.6799C18.0548 77.5724 18.2832 77.4515 18.5384 77.3172L19.1563 78.1366L15.8922 80.5947L16.5504 81.4678L20.4727 78.5127L18.6458 76.0814Z" fill="white"/>
<path d="M23.3725 83.5901C23.5068 83.2946 23.574 82.9856 23.5874 82.6767C23.5874 82.3677 23.5337 82.0588 23.4128 81.7498C23.2919 81.4409 23.0904 81.1588 22.8218 80.8902C22.5397 80.5947 22.2307 80.3797 21.9218 80.2454C21.6128 80.1111 21.277 80.0305 20.9681 80.0305C20.6457 80.0305 20.3233 80.0976 20.0144 80.232C19.7054 80.3663 19.4099 80.5678 19.1413 80.8364C18.886 81.0917 18.6846 81.3737 18.5502 81.6693C18.4159 81.9648 18.3488 82.2737 18.3488 82.5826C18.3488 82.8916 18.4159 83.2005 18.5502 83.5095C18.6846 83.8184 18.886 84.1005 19.1413 84.3692C19.4099 84.6378 19.692 84.8527 20.0009 84.9871C20.3099 85.1214 20.6188 85.202 20.9412 85.202C21.2636 85.202 21.5725 85.1483 21.8949 85.0005C22.2173 84.8528 22.5128 84.6647 22.7949 84.3826C23.0367 84.1542 23.2382 83.8856 23.3725 83.5901ZM22.3919 83.0662C22.2845 83.2543 22.1233 83.4423 21.9352 83.6438C21.7472 83.8319 21.5591 83.9796 21.3711 84.0737C21.183 84.1811 20.9949 84.2349 20.8069 84.2483C20.6188 84.2617 20.4308 84.2348 20.2562 84.1677C20.0815 84.1005 19.9069 83.9796 19.7457 83.8185C19.598 83.6707 19.4905 83.4961 19.4234 83.3215C19.3562 83.1468 19.3428 82.9588 19.3562 82.7707C19.3831 82.5827 19.4368 82.3946 19.5442 82.2065C19.6517 82.0185 19.7994 81.8305 19.9741 81.6424C20.1621 81.4678 20.3502 81.32 20.5382 81.226C20.7263 81.1185 20.9278 81.0648 21.1158 81.0514C21.3039 81.0379 21.4919 81.0514 21.68 81.132C21.868 81.2126 22.0292 81.3066 22.1904 81.4678C22.3516 81.629 22.4591 81.8036 22.5262 81.9782C22.5934 82.1528 22.6068 82.3409 22.58 82.5155C22.5665 82.6901 22.4994 82.8782 22.3919 83.0662Z" fill="white"/>
<path d="M26.945 85.7124L27.4555 85.0676L25.0914 83.1602L22.0019 86.975L22.8616 87.6735L25.4406 84.49L26.945 85.7124Z" fill="white"/>
<path d="M30.8548 87.2976L27.3892 88.6946C27.2549 88.7484 27.1608 88.7886 27.0802 88.8289C26.9996 88.8692 26.9459 88.8961 26.8922 88.923H26.8787C26.919 88.8692 26.9728 88.8021 27.0399 88.6946C27.1071 88.5872 27.1877 88.4797 27.2817 88.3319L28.7727 85.9812L27.913 85.4305L25.2803 89.5812L26.2206 90.1722L29.7533 88.7752C29.8742 88.7215 29.9816 88.6812 30.0757 88.6409C30.1697 88.6006 30.2369 88.5603 30.2906 88.5334L30.304 88.5469C30.2637 88.6006 30.1966 88.6812 30.1294 88.7886C30.0622 88.8961 29.9816 89.017 29.8876 89.1647L28.3697 91.5557L29.2294 92.1064L31.8622 87.9558L30.8548 87.2976Z" fill="white"/>
<path d="M35.4622 89.6482L34.5757 91.5691C34.3339 91.5825 34.119 91.5691 33.9175 91.5422C33.716 91.5154 33.5279 91.4616 33.3533 91.3811C33.125 91.2736 32.9906 91.1527 32.9369 90.9915C32.8832 90.8303 32.91 90.6423 33.0175 90.4005L33.7294 88.8423L32.7354 88.3856L31.9563 90.0781C31.7549 90.5079 31.728 90.884 31.8623 91.2064C31.9966 91.5288 32.2787 91.7974 32.722 91.9855C32.9638 92.0929 33.219 92.1735 33.4742 92.2138C33.7294 92.2541 33.9981 92.2676 34.2667 92.2542L33.4205 94.1078L34.4145 94.5645L36.4697 90.1049L35.4622 89.6482Z" fill="white"/>
<path d="M40.1103 92.2002L40.3655 91.4212L37.5582 90.4943L36.0269 95.1688L38.9417 96.1225L39.1835 95.3568L37.3164 94.739L37.7193 93.5435L39.3312 94.0673L39.5865 93.3017L37.9746 92.7644L38.3507 91.6226L40.1103 92.2002Z" fill="white"/>
<path d="M42.4875 92.0526C42.1248 92.1063 41.8025 92.2138 41.507 92.3884C41.2249 92.563 40.9696 92.7913 40.7682 93.0869C40.5667 93.3689 40.4323 93.7048 40.3383 94.0943C40.2577 94.457 40.2443 94.7928 40.298 95.1152C40.3517 95.4376 40.4592 95.7196 40.6338 95.9748C40.8084 96.2301 41.0368 96.445 41.3189 96.6331C41.601 96.8077 41.9368 96.942 42.3263 97.036C42.9308 97.1703 43.4547 97.1838 43.8711 97.0898L44.0591 96.2166C43.6561 96.3509 43.2129 96.3644 42.7293 96.2569C42.4741 96.2032 42.2592 96.1092 42.0711 95.9883C41.8831 95.8674 41.7353 95.7196 41.6278 95.545C41.5204 95.3704 41.4532 95.1823 41.4129 94.9674C41.386 94.7525 41.3995 94.5241 41.4532 94.2689C41.5069 94.0137 41.601 93.7854 41.7219 93.5973C41.8427 93.4092 42.004 93.2481 42.1786 93.1406C42.3532 93.0197 42.5681 92.9525 42.7965 92.9122C43.0248 92.8719 43.2666 92.8854 43.5352 92.9391C43.9651 93.0331 44.3277 93.2212 44.6367 93.4898L44.8382 92.563C44.5292 92.3615 44.1128 92.2138 43.6024 92.0929C43.2397 92.0123 42.8502 91.9988 42.4875 92.0526Z" fill="white"/>
<path d="M48.4507 92.8451L46.7582 94.7391C46.7179 94.7794 46.6776 94.8196 46.6508 94.8734C46.6239 94.9271 46.5836 94.9674 46.5702 94.9943H46.5567L46.7851 92.6839L45.6836 92.5764L45.1866 97.4659L46.2881 97.5733L46.5299 95.1689H46.5433C46.5702 95.2226 46.5836 95.2764 46.6105 95.3301C46.6373 95.3838 46.6642 95.4241 46.6776 95.451L48.0343 97.7345L49.3372 97.8688L47.6448 95.1286L49.6731 92.966L48.4507 92.8451Z" fill="white"/>
<path d="M53.6888 92.8853L51.5934 95.9882C51.5128 96.1091 51.4591 96.2031 51.4053 96.2703C51.365 96.3374 51.3247 96.4046 51.2979 96.4583H51.2844C51.2844 96.3912 51.2979 96.2971 51.2979 96.1762C51.2979 96.0553 51.2979 95.9076 51.2979 95.733L51.2173 92.9525L50.1964 92.9793L50.3442 97.8956L51.4456 97.8687L53.5814 94.739C53.662 94.6315 53.7157 94.5241 53.7694 94.4435C53.8232 94.3495 53.8635 94.2823 53.8769 94.2286H53.8903C53.8903 94.2957 53.8769 94.4032 53.8769 94.5241C53.8769 94.645 53.8769 94.8061 53.8769 94.9673L53.9575 97.8016L54.9784 97.7747L54.844 92.8584L53.6888 92.8853Z" fill="white"/>
<path d="M59.3832 92.1467L57.7444 95.5048C57.6907 95.6257 57.6369 95.7332 57.6101 95.8138C57.5832 95.8944 57.5563 95.9615 57.5295 96.0153H57.516C57.516 95.9481 57.5026 95.8541 57.4892 95.7332C57.4757 95.6123 57.4489 95.4645 57.422 95.3034L56.9519 92.5631L55.9445 92.7378L56.7773 97.5869L57.8653 97.3988L59.5443 93.987C59.5981 93.8661 59.6518 93.7586 59.6921 93.6646C59.7324 93.5706 59.7593 93.49 59.7727 93.4363H59.7861C59.7861 93.5034 59.7995 93.6109 59.813 93.7318C59.8264 93.8527 59.8533 94.0004 59.8801 94.175L60.3637 96.969L61.3711 96.7944L60.5383 91.9453L59.3832 92.1467Z" fill="white"/>
<path d="M58.0277 91.0451C57.5575 91.1257 57.2755 90.9511 57.168 90.5212L56.5501 90.6287C56.6307 91.0048 56.8187 91.2735 57.1008 91.4615C57.3829 91.6496 57.7187 91.7033 58.1083 91.6361C58.4844 91.569 58.7665 91.4078 58.9948 91.1257C59.2097 90.857 59.3038 90.5212 59.2769 90.1451L58.659 90.2526C58.659 90.4541 58.6053 90.6287 58.4844 90.7764C58.3769 90.9242 58.2157 91.0182 58.0277 91.0451Z" fill="white"/>
<path d="M66.692 92.0122C66.6786 92.1331 66.6786 92.2674 66.6652 92.3749C66.6652 92.4958 66.6517 92.6166 66.6517 92.7375C66.6114 92.6838 66.5711 92.6301 66.5308 92.5764C66.4905 92.5226 66.4502 92.4823 66.4099 92.442L64.5965 90.7361L63.4817 91.1525L66.4099 93.745C66.3831 93.9062 66.3562 94.0405 66.3159 94.148C66.2756 94.2554 66.2353 94.3629 66.1681 94.4435C66.1144 94.5241 66.0473 94.5912 65.9801 94.6315C65.9129 94.6852 65.8458 94.7255 65.7652 94.7524C65.5503 94.833 65.3219 94.8465 65.0936 94.8196L65.4025 95.6658C65.4965 95.6658 65.604 95.6524 65.7249 95.6255C65.8458 95.5987 65.9935 95.5584 66.1681 95.4912C66.4099 95.3972 66.6114 95.2897 66.7726 95.1554C66.9338 95.0211 67.0547 94.8733 67.1622 94.6853C67.2562 94.5106 67.3368 94.2957 67.3905 94.0674C67.4442 93.839 67.4845 93.5704 67.5114 93.2749L67.9009 89.5003L66.8263 89.9033L66.692 92.0122Z" fill="white"/>
<path d="M71.2049 87.7675L72.1049 89.4868L70.1437 90.5211L69.2303 88.7883L68.2632 89.3122L70.5601 93.6509L71.5273 93.1404L70.5467 91.2733L72.5078 90.239L73.4884 92.1061L74.469 91.5957L72.172 87.2436L71.2049 87.7675Z" fill="white"/>
<path d="M75.9598 84.6109L75.9732 88.3452C75.9732 88.4795 75.9732 88.6004 75.9732 88.681C75.9732 88.7616 75.9866 88.8287 75.9866 88.8959L75.9732 88.9093C75.9463 88.8556 75.8926 88.775 75.8254 88.6675C75.7583 88.5601 75.6777 88.4392 75.5837 88.3049L73.9583 86.0482L73.1389 86.6526L76.0135 90.6287L76.9135 89.9839V86.196C76.9135 86.0616 76.9135 85.9407 76.9 85.8467C76.8866 85.7392 76.8866 85.6587 76.8732 85.6049L76.8866 85.5915C76.9269 85.6587 76.9672 85.7392 77.0478 85.8467C77.115 85.9542 77.209 86.0751 77.303 86.2228L78.9552 88.5198L79.7746 87.9153L76.9 83.9393L75.9598 84.6109Z" fill="white"/>
<path d="M82.8771 83.1333C82.7696 83.0258 82.6487 82.9318 82.5278 82.8781C82.3935 82.8109 82.2592 82.784 82.1115 82.784C81.9637 82.784 81.8159 82.811 81.6547 82.8647C81.4936 82.9184 81.3324 83.0124 81.1712 83.1333L81.1577 83.1199C81.3324 82.8378 81.413 82.5557 81.3995 82.3005C81.3861 82.0319 81.2921 81.8035 81.104 81.602C80.8622 81.3468 80.5667 81.2393 80.2175 81.2931C79.8682 81.3468 79.4921 81.5617 79.0757 81.9512L77.7593 83.187L81.1174 86.7735L82.4875 85.484C82.689 85.2959 82.8502 85.0945 82.9711 84.893C83.092 84.6915 83.1726 84.4766 83.1995 84.2751C83.2263 84.0736 83.2263 83.8721 83.1726 83.684C83.1189 83.4691 83.0248 83.2945 82.8771 83.1333ZM79.922 83.8855L79.0757 82.9856L79.3981 82.6901C79.5996 82.4886 79.7876 82.3811 79.9354 82.3408C80.0831 82.3005 80.2309 82.3677 80.3786 82.5154C80.5398 82.69 80.607 82.8647 80.5801 83.0527C80.5533 83.2408 80.4458 83.4288 80.2443 83.6034L79.922 83.8855ZM81.8294 85.0541L81.3995 85.4571L80.4458 84.4363L80.8354 84.0736C81.0771 83.8452 81.2921 83.7109 81.4935 83.684C81.695 83.6572 81.8697 83.7244 82.0443 83.9124C82.2189 84.087 82.2726 84.2751 82.2323 84.4631C82.1786 84.6512 82.0443 84.8527 81.8294 85.0541Z" fill="white"/>
<path d="M84.8653 81.8169L83.9115 80.9975L85.013 79.708L84.3951 79.1707L83.2936 80.4736L82.3668 79.6811L83.5757 78.2707L82.9578 77.7468L81.037 79.9766L84.7578 83.187L86.7592 80.8632L86.1548 80.3259L84.8653 81.8169Z" fill="white"/>
<path d="M87.0838 77.4784C87.2584 77.2366 87.3793 76.9814 87.4599 76.7396C87.5405 76.4978 87.5673 76.256 87.5405 76.0277C87.527 75.7993 87.4599 75.5844 87.339 75.3963C87.2315 75.1949 87.0703 75.0337 86.8688 74.8994C86.4659 74.6173 86.0494 74.5367 85.6465 74.6576C85.2435 74.7785 84.854 75.1009 84.4913 75.6382L83.5107 77.0486L87.5405 79.8559L88.1718 78.956L86.7479 77.9754L87.0838 77.4784ZM86.3718 77.156L86.13 77.5187L84.7868 76.5784L85.0555 76.1889C85.2435 75.9202 85.4316 75.7725 85.6196 75.7053C85.8077 75.6516 86.0226 75.6919 86.2375 75.8531C86.4793 76.0143 86.6002 76.2158 86.6271 76.4307C86.6405 76.6456 86.5599 76.8874 86.3718 77.156Z" fill="white"/>
<path d="M90.803 73.2203C90.6821 73.4487 90.5343 73.6367 90.3731 73.7711C90.2119 73.9188 90.0239 74.0128 89.8358 74.0666C89.6343 74.1203 89.4328 74.1337 89.2179 74.1069C89.003 74.08 88.7747 73.9994 88.5598 73.8785C88.3314 73.7577 88.1299 73.5964 87.9821 73.4218C87.8344 73.2472 87.7269 73.0591 87.6732 72.8442C87.6195 72.6427 87.606 72.4278 87.6329 72.1861C87.6598 71.9577 87.7404 71.7294 87.8747 71.4876C88.0896 71.098 88.3583 70.8025 88.7075 70.5876L87.8881 70.1443C87.606 70.3861 87.3374 70.7353 87.0956 71.2055C86.8941 71.5681 86.7732 71.9308 86.7195 72.2935C86.6658 72.6562 86.6926 73.0054 86.7732 73.3278C86.8673 73.6502 87.015 73.9591 87.2299 74.2278C87.4449 74.4964 87.7269 74.7382 88.0762 74.9128C88.3986 75.0874 88.7209 75.1949 89.0433 75.2352C89.3657 75.2755 89.6746 75.2486 89.9567 75.1546C90.2522 75.0606 90.5209 74.8994 90.7761 74.6845C91.0313 74.4561 91.2597 74.174 91.4477 73.8248C91.7432 73.2741 91.9044 72.7905 91.9313 72.3472L91.1522 71.9174C91.1522 72.3606 91.0313 72.7905 90.803 73.2203Z" fill="white"/>
<path d="M89.3796 66.1549L91.4214 69.2847C91.502 69.4056 91.5557 69.4996 91.6094 69.5667C91.6631 69.6339 91.7034 69.6876 91.7437 69.7414V69.7548C91.69 69.7279 91.6094 69.6877 91.4885 69.6339C91.3811 69.5802 91.2467 69.5265 91.0855 69.4727L88.4931 68.4653L88.1304 69.419L92.7109 71.2055L93.1139 70.1712L91.0587 66.9877C90.9915 66.8803 90.9244 66.7728 90.8572 66.6922C90.79 66.6116 90.7497 66.5444 90.7094 66.5041V66.4907C90.7766 66.531 90.8572 66.5713 90.9781 66.6116C91.099 66.6654 91.2333 66.7191 91.3945 66.7863L94.0273 67.8071L94.3899 66.8534L89.8095 65.0669L89.3796 66.1549Z" fill="white"/>
<path d="M91.1261 63.3072L95.0752 64.3012L95.3439 63.24L91.3947 62.2326L91.7574 60.7819L90.9515 60.5804L89.944 64.5564L90.75 64.7579L91.1261 63.3072Z" fill="white"/>
<path d="M95.2478 59.5193L93.9985 59.3313L94.2538 57.6388L93.4478 57.5179L93.1926 59.2104L91.9971 59.0223L92.2792 57.1955L91.4732 57.0746L91.03 59.9894L95.8925 60.7282L96.3492 57.6791L95.5433 57.5582L95.2478 59.5193Z" fill="white"/>
<path d="M92.4409 55.2613L96.511 55.4494L96.5647 54.3479L92.4946 54.1598L92.5618 52.6554L91.729 52.6151L91.5275 56.712L92.3603 56.7523L92.4409 55.2613Z" fill="white"/>
<path d="M93.7996 49.8211C93.7996 50.5062 94.3637 51.0703 95.0488 51.0703C95.7338 51.0703 96.298 50.5062 96.298 49.8211C96.298 49.1361 95.7338 48.5719 95.0488 48.5719C94.3637 48.5719 93.7996 49.1226 93.7996 49.8211Z" fill="white"/>
<path d="M57.4246 49.6464H54.765V58.0551H57.4246V49.6464Z" fill="white"/>
<path d="M61.4413 49.6464H58.7817V58.0551H61.4413V49.6464Z" fill="white"/>
<path d="M65.4414 49.6464H62.7818V58.0551H65.4414V49.6464Z" fill="white"/>
<path d="M69.4449 49.6464H66.7852V58.0551H69.4449V49.6464Z" fill="white"/>
<path d="M38.4159 35.9318H35.3668V58.1222H38.4159V35.9318Z" fill="white"/>
<path d="M43.3202 35.9318H40.2711V58.1222H43.3202V35.9318Z" fill="white"/>
<path d="M48.2219 35.9318H45.1727V58.1222H48.2219V35.9318Z" fill="white"/>
<path d="M55.2622 39.8675C54.9935 39.9884 54.698 40.069 54.3756 40.1227V41.2511C54.604 41.2242 54.8055 41.1973 54.9801 41.1436C55.1547 41.0898 55.3293 41.0227 55.4905 40.9287V44.5689H56.995V39.3974H56.1084C55.8263 39.5854 55.5442 39.7466 55.2622 39.8675Z" fill="white"/>
<path d="M61.0899 39.7065C60.7943 39.505 60.4585 39.411 60.069 39.411C59.6929 39.411 59.3705 39.4916 59.0884 39.6393C58.8064 39.7871 58.578 40.002 58.4302 40.2841C58.2825 40.5662 58.2019 40.8886 58.2019 41.2647C58.2019 41.5602 58.2556 41.8288 58.3765 42.0706C58.4974 42.299 58.6586 42.487 58.8735 42.6213C59.0884 42.7557 59.3168 42.8228 59.572 42.8228C60.0019 42.8228 60.3242 42.6751 60.5392 42.393H60.566C60.566 42.7691 60.472 43.0646 60.2839 43.2527C60.0959 43.4407 59.8272 43.5482 59.478 43.5482C59.3302 43.5482 59.1556 43.5213 58.9676 43.4676C58.7795 43.4139 58.6317 43.3601 58.5243 43.293V44.4482C58.8601 44.5825 59.2362 44.6497 59.6795 44.6497C60.4048 44.6497 60.969 44.3944 61.3854 43.8974C61.8018 43.4004 62.0033 42.7019 62.0033 41.8154C62.0033 41.3184 61.9361 40.902 61.7884 40.5393C61.6137 40.1901 61.3854 39.908 61.0899 39.7065ZM60.3779 41.6005C60.3108 41.708 60.2033 41.7751 60.0556 41.7751C59.9347 41.7751 59.8272 41.7214 59.7466 41.6139C59.666 41.5064 59.6257 41.3587 59.6257 41.1572C59.6257 40.9423 59.666 40.7811 59.7466 40.6871C59.8272 40.593 59.9347 40.5393 60.069 40.5393C60.2033 40.5393 60.2974 40.5931 60.3779 40.714C60.4585 40.8349 60.4989 40.9826 60.4989 41.1572C60.4854 41.3453 60.4451 41.493 60.3779 41.6005Z" fill="white"/>
<path d="M65.4679 41.2242C65.0247 41.2242 64.6889 41.3719 64.4471 41.654H64.4202C64.4471 41.3048 64.5545 41.0361 64.756 40.8212C64.9575 40.6063 65.2127 40.4988 65.5351 40.4988C65.8575 40.4988 66.1261 40.566 66.3545 40.7138V39.5317C66.1261 39.4511 65.8038 39.3974 65.4277 39.3974C64.9172 39.3974 64.4874 39.5048 64.1247 39.7332C63.762 39.9615 63.4799 40.2973 63.2785 40.7406C63.077 41.1839 62.9695 41.6943 62.9695 42.2585C62.9695 43.0107 63.1441 43.5883 63.4665 44.0047C63.8023 44.4211 64.2725 44.6226 64.8903 44.6226C65.2396 44.6226 65.562 44.542 65.8441 44.3808C66.1261 44.2196 66.3545 44.0047 66.5022 43.7226C66.6634 43.4405 66.7306 43.1316 66.7306 42.7958C66.7306 42.3256 66.6097 41.9495 66.3813 41.654C66.1799 41.3719 65.8575 41.2242 65.4679 41.2242ZM65.2127 43.3331C65.1321 43.4405 65.0247 43.5077 64.8903 43.5077C64.7694 43.5077 64.662 43.454 64.5814 43.3331C64.5008 43.2122 64.4605 43.0644 64.4605 42.8898C64.4605 42.7018 64.5008 42.554 64.568 42.4331C64.6486 42.3257 64.756 42.2585 64.8903 42.2585C65.0381 42.2585 65.1456 42.3122 65.2127 42.4197C65.2799 42.5271 65.3202 42.6749 65.3202 42.8629C65.3336 43.0644 65.2933 43.2256 65.2127 43.3331Z" fill="white"/>
<path d="M69.5937 41.3585C69.4728 41.3585 69.3519 41.3585 69.2041 41.3853L69.2578 40.6734H70.9503V39.5048H68.0892L67.9012 42.5405C68.1698 42.4868 68.4519 42.4465 68.7608 42.4465C69.3787 42.4465 69.6877 42.6346 69.6877 43.0107C69.6877 43.1853 69.6205 43.3196 69.4862 43.4136C69.3519 43.5076 69.1504 43.5614 68.8952 43.5614C68.5056 43.5614 68.1295 43.4674 67.7803 43.2793V44.4479C67.9415 44.5151 68.1564 44.5554 68.3982 44.5957C68.6534 44.636 68.8952 44.6494 69.1235 44.6494C69.5399 44.6494 69.9026 44.5688 70.2116 44.4211C70.5205 44.2733 70.7623 44.0584 70.9235 43.7763C71.0847 43.5077 71.1652 43.1987 71.1652 42.8495C71.1652 42.3928 71.0309 42.0301 70.7488 41.7615C70.4802 41.4928 70.0907 41.3585 69.5937 41.3585Z" fill="white"/>
<path d="M25.5067 68.2907L50.3567 68.237L51.1895 69.1906H53.2581L54.0909 68.237L78.8335 68.3578L78.8469 43.266L75.959 43.1586L75.9993 35.7304L52.6671 35.8244V31.1231H50.1955L47.4822 29.2023H42.6868V30.6261H41.1689V29.2157H36.2929L33.6064 31.1634H31.1214V36.2006H28.3275L28.2872 43.0377L25.4932 43.2526L25.5067 68.2907ZM32.6124 32.641H34.1034L36.7899 30.6932H39.7048V32.1037H44.1778V30.6932H47.0254L49.7388 32.6141H51.2029L51.1895 58.1358H52.6671V47.645L71.6471 47.6853V60.5939H32.6124V32.641ZM29.8051 37.6781H31.1214V62.058H73.1247V46.2077L52.6671 46.1674V37.3155L74.5083 37.2214L74.3605 63.6833H29.6573L29.8051 37.6781ZM28.2872 44.5152L28.1663 65.1609H75.8246L75.9455 44.6496L77.3559 44.7033L77.3425 66.8803L53.4059 66.7594L52.5731 67.7131H51.8611L51.0283 66.7594L26.9842 66.8131L26.9708 44.6093L28.2872 44.5152Z" fill="white"/>
<path d="M53.8367 75.289L62.8768 75.3024V73.6905L53.3397 73.6771L52.0636 74.5636L50.7876 73.6771H41.2774V75.289H50.2906L52.0771 76.5248L53.8367 75.289Z" fill="white"/>
</svg>
